<?xml version="1.0" standalone="no"?>
<!DOCTYPE svg PUBLIC "-//W3C//DTD SVG 20010904//EN"
 "http://www.w3.org/TR/2001/REC-SVG-20010904/DTD/svg10.dtd">
<svg version="1.0" xmlns="http://www.w3.org/2000/svg"
 width="558.000000pt" height="447.000000pt" viewBox="0 0 558.000000 447.000000"
 preserveAspectRatio="xMidYMid meet">

<g transform="translate(0.000000,447.000000) scale(0.100000,-0.100000)"
fill="#000000" stroke="none">
<path d="M845 3303 c-82 -10 -189 -39 -265 -72 -451 -194 -674 -698 -516
-1164 100 -292 344 -519 643 -598 98 -26 285 -36 379 -20 348 58 648 293 748
588 45 132 47 176 44 735 l-3 526 -55 -34 c-81 -49 -164 -68 -300 -68 -111 0
-120 2 -251 46 -174 59 -297 77 -424 61z"/>
<path d="M3486 978 c-8 -18 -26 -59 -40 -91 -14 -32 -26 -60 -26 -62 0 -3 20
-5 44 -5 47 0 41 -7 131 134 l36 56 -66 0 c-64 0 -65 -1 -79 -32z"/>
<path d="M0 625 l0 -365 50 0 c47 0 50 2 50 25 l0 25 41 -27 c86 -57 210 -36
263 44 69 105 54 299 -30 372 -65 57 -149 63 -218 16 -20 -14 -39 -25 -41 -25
-3 0 -5 67 -5 148 l0 149 -55 2 -55 2 0 -366z m265 21 c52 -22 75 -67 75 -149
0 -102 -37 -157 -107 -157 -85 0 -123 47 -123 155 0 82 22 128 73 150 40 18
41 18 82 1z"/>
<path d="M511 667 c0 -222 4 -333 12 -357 14 -41 48 -61 97 -58 32 3 35 6 38
37 3 25 -2 37 -17 48 -20 14 -21 22 -21 331 l0 317 -55 2 -55 3 1 -323z"/>
<path d="M2010 845 l0 -144 -32 19 c-80 46 -167 33 -234 -34 -25 -24 -46 -58
-53 -81 -14 -51 -14 -168 0 -218 13 -47 63 -106 106 -123 70 -30 171 -8 209
45 11 14 14 13 24 -11 15 -31 56 -51 96 -46 25 3 29 8 32 37 3 25 -2 37 -17
48 -21 14 -21 22 -21 334 l0 319 -55 0 -55 0 0 -145z m-66 -199 c55 -23 66
-49 66 -149 0 -88 0 -89 -34 -123 -27 -27 -42 -34 -74 -34 -81 0 -129 73 -119
180 6 67 29 107 72 126 39 17 49 17 89 0z"/>
<path d="M4456 955 c-26 -27 -29 -56 -9 -84 40 -53 123 -31 123 33 0 19 -8 40
-18 49 -23 21 -76 22 -96 2z"/>
<path d="M837 736 c-55 -15 -90 -45 -120 -101 -18 -33 -22 -57 -22 -135 0
-107 18 -156 75 -203 79 -67 226 -62 308 9 l37 32 -29 31 -29 30 -32 -28 c-18
-16 -49 -31 -69 -35 -71 -14 -156 47 -156 112 0 17 8 19 103 18 151 -1 197 27
197 121 0 114 -128 187 -263 149z m137 -98 c58 -53 38 -99 -46 -106 -71 -6
-128 12 -128 39 0 75 116 119 174 67z"/>
<path d="M1168 743 c-26 -7 -25 -74 2 -91 19 -11 20 -23 20 -202 l0 -190 55 0
55 0 0 155 c0 174 8 203 62 231 25 13 38 14 67 5 58 -17 65 -38 71 -203 5
-135 7 -149 27 -170 17 -16 35 -22 70 -22 l48 -1 3 38 c2 28 0 37 -13 37 -26
0 -35 45 -35 173 0 96 -4 129 -18 157 -37 75 -135 107 -215 72 -25 -11 -52
-30 -59 -41 -17 -27 -24 -26 -32 4 -9 34 -65 59 -108 48z"/>
<path d="M2518 736 c-103 -37 -133 -92 -133 -241 0 -84 3 -107 22 -142 55
-103 190 -136 273 -67 l30 26 0 -156 0 -156 55 0 55 0 0 370 0 370 -45 0 c-44
0 -45 -1 -45 -31 l0 -31 -32 24 c-62 47 -116 57 -180 34z m126 -90 c55 -23 66
-49 66 -149 0 -88 0 -89 -34 -123 -60 -60 -147 -40 -181 43 -34 82 -4 201 57
228 42 18 51 18 92 1z"/>
<path d="M3613 743 c-7 -2 -13 -22 -13 -43 0 -29 4 -39 20 -43 19 -5 20 -14
20 -201 l0 -196 55 0 55 0 0 155 c0 120 4 163 15 185 16 30 61 60 90 60 25 0
72 -27 81 -47 4 -10 11 -84 14 -165 6 -170 12 -183 91 -194 l47 -6 4 38 c4 30
0 42 -14 52 -16 11 -18 28 -18 132 0 118 0 120 29 152 24 27 36 33 70 33 29 0
47 -7 63 -23 21 -21 23 -34 29 -170 3 -81 11 -157 17 -169 13 -24 69 -46 104
-41 31 4 38 63 11 83 -15 11 -19 33 -23 157 -6 160 -18 195 -73 228 -72 44
-181 31 -227 -27 l-19 -25 -31 31 c-63 63 -173 65 -240 5 l-38 -34 -6 26 c-9
35 -75 63 -113 47z"/>
<path d="M4788 741 c-101 -33 -150 -111 -150 -240 -1 -149 67 -235 195 -248
72 -7 154 17 192 57 l29 30 -29 30 c-28 30 -29 30 -49 11 -52 -46 -119 -54
-174 -21 -42 26 -62 73 -62 148 0 90 50 151 123 152 39 0 87 -49 87 -89 0 -30
1 -31 45 -31 l45 0 0 50 c0 67 -21 105 -72 131 -46 23 -138 33 -180 20z"/>
<path d="M5226 735 c-92 -33 -131 -115 -124 -264 5 -99 28 -152 83 -190 65
-44 177 -37 225 14 l23 25 18 -30 c18 -29 65 -46 106 -38 30 5 29 61 -1 92
l-26 25 0 186 0 185 -46 0 c-44 0 -46 -1 -40 -25 8 -30 3 -31 -32 -7 -60 42
-120 51 -186 27z m138 -90 c49 -23 66 -61 66 -145 0 -82 -17 -123 -60 -145
-91 -47 -170 22 -170 150 0 67 20 109 63 135 39 24 59 25 101 5z"/>
<path d="M2910 568 c1 -200 7 -240 49 -281 53 -53 172 -48 241 10 l30 25 10
-26 c11 -30 50 -48 94 -44 28 3 31 7 34 41 2 28 -1 37 -12 37 -30 0 -36 38
-36 224 l0 186 -50 0 -50 0 0 -145 c0 -101 -4 -156 -14 -179 -30 -73 -113
-100 -161 -51 -25 24 -25 27 -25 200 l0 175 -55 0 -55 0 0 -172z"/>
<path d="M3420 530 c0 -137 4 -218 12 -235 13 -29 72 -49 113 -39 35 9 35 58
0 86 l-25 19 0 190 0 189 -50 0 -50 0 0 -210z"/>
<path d="M4450 526 c0 -211 0 -215 23 -242 19 -21 33 -27 67 -28 44 -1 44 0
51 36 5 30 2 39 -12 43 -25 8 -29 34 -29 228 l0 177 -50 0 -50 0 0 -214z"/>
</g>
</svg>
