<?xml version="1.0" encoding="UTF-8"?>
<svg version="1.1" xmlns="http://www.w3.org/2000/svg" width="294" height="208">
<path d="M0 0 C3.96 0 7.92 0 12 0 C12.33 0.99 12.66 1.98 13 3 C15.15503279 2.53820726 16.85507072 2.08799278 18.75 0.9375 C22.26386452 -0.52661022 25.20543329 -0.24481076 29 0 C29.66 0.66 30.32 1.32 31 2 C30.67 2.33 30.34 2.66 30 3 C30.33 3.66 30.66 4.32 31 5 C32.99983534 4.20882096 32.99983534 4.20882096 35 3 C35.33 2.01 35.66 1.02 36 0 C37.62418745 -0.08090971 39.24951745 -0.13914995 40.875 -0.1875 C41.77992188 -0.22230469 42.68484375 -0.25710937 43.6171875 -0.29296875 C44.79667969 -0.14794922 44.79667969 -0.14794922 46 0 C48.35119399 3.52679099 48.21443452 5.02879485 48.125 9.1875 C48.10695312 10.27417969 48.08890625 11.36085938 48.0703125 12.48046875 C48.04710937 13.31191406 48.02390625 14.14335938 48 15 C44.30995799 17.34894745 41.1328897 17.23059746 36.828125 17.1953125 C36.1457074 17.1924826 35.46328979 17.18965271 34.76019287 17.18673706 C32.58994693 17.17558098 30.42012029 17.15048557 28.25 17.125 C26.77474556 17.11496426 25.29948463 17.10583944 23.82421875 17.09765625 C20.21601058 17.07565687 16.60804625 17.04115883 13 17 C12.07330844 19.78007468 11.88237943 21.39231797 11.90234375 24.25610352 C11.90729858 25.53741905 11.90729858 25.53741905 11.91235352 26.84461975 C11.92065186 27.7634343 11.9289502 28.68224884 11.9375 29.62890625 C11.94128662 30.57434799 11.94507324 31.51978973 11.94897461 32.49388123 C11.96120298 35.51680011 11.97983629 38.53962424 12 41.5625 C12.02650489 45.54296611 12.04654133 49.52338547 12.0625 53.50390625 C12.07079834 54.42474503 12.07909668 55.3455838 12.08764648 56.29432678 C12.09260132 57.57091408 12.09260132 57.57091408 12.09765625 58.87329102 C12.10289307 59.62369156 12.10812988 60.3740921 12.11352539 61.14723206 C12 63 12 63 11 65 C11.61875 64.505 12.2375 64.01 12.875 63.5 C15 62 15 62 17 62 C17 61.34 17 60.68 17 60 C17.66 60 18.32 60 19 60 C18.67 59.34 18.34 58.68 18 58 C17.92609905 55.71073317 17.91656352 53.41926989 17.9375 51.12890625 C17.94128662 50.45077377 17.94507324 49.7726413 17.94897461 49.07395935 C17.96534206 46.16959323 17.99345228 43.26536704 18.02050781 40.36108398 C18.03858076 38.24203134 18.05068386 36.12300152 18.0625 34.00390625 C18.07990234 32.09847046 18.07990234 32.09847046 18.09765625 30.15454102 C18.15003041 26.97222177 18.15003041 26.97222177 17 24 C18.375 22.5 18.375 22.5 20 21 C20.66 21 21.32 21 22 21 C22 21.66 22 22.32 22 23 C23.02154175 22.9388501 23.02154175 22.9388501 24.0637207 22.87646484 C27.14612145 22.69819412 30.22917242 22.53641156 33.3125 22.375 C34.9202832 22.27832031 34.9202832 22.27832031 36.56054688 22.1796875 C38.10258789 22.10234375 38.10258789 22.10234375 39.67578125 22.0234375 C41.0975769 21.94488525 41.0975769 21.94488525 42.5480957 21.86474609 C45 22 45 22 48 24 C48.328125 26.3125 48.328125 26.3125 48.25 29 C48.23453125 29.886875 48.2190625 30.77375 48.203125 31.6875 C48 34 48 34 47 36 C46.01 36 45.02 36 44 36 C44 36.66 44 37.32 44 38 C43.01 38.66 42.02 39.32 41 40 C43.31 40.66 45.62 41.32 48 42 C48 45.3 48 48.6 48 52 C41.73 52 35.46 52 29 52 C29 52.66 29 53.32 29 54 C27.01310269 55.35278115 25.01254782 56.68568305 23 58 C22.67 58.66 22.34 59.32 22 60 C23.485 59.505 23.485 59.505 25 59 C26.60339791 58.9072371 28.21032864 58.86931536 29.81640625 58.8671875 C30.74517578 58.86589844 31.67394531 58.86460938 32.63085938 58.86328125 C34.08202148 58.86908203 34.08202148 58.86908203 35.5625 58.875 C37.01946289 58.86919922 37.01946289 58.86919922 38.50585938 58.86328125 C39.43333984 58.86457031 40.36082031 58.86585937 41.31640625 58.8671875 C42.16662354 58.86831543 43.01684082 58.86944336 43.89282227 58.87060547 C46 59 46 59 48 60 C48.08096803 61.45742463 48.13917774 62.91612807 48.1875 64.375 C48.23970703 65.59316406 48.23970703 65.59316406 48.29296875 66.8359375 C48.19628906 67.55007812 48.09960938 68.26421875 48 69 C44.25031951 71.49978699 42.32195932 71.21813439 37.84765625 71.16015625 C37.15111435 71.15495468 36.45457245 71.14975311 35.73692322 71.14439392 C33.51190254 71.12659525 31.28734403 71.09544106 29.0625 71.0625 C26.8412711 71.03482788 24.62011076 71.01010419 22.39878845 70.99131775 C20.38045524 70.97349766 18.36221346 70.94609265 16.34399414 70.91821289 C12.56774569 70.98599142 12.56774569 70.98599142 9 72 C8.29788106 73.65204456 7.63028587 75.31923769 7 77 C5.515 77.495 5.515 77.495 4 78 C4 78.66 4 79.32 4 80 C2.68 79.34 1.36 78.68 0 78 C0 52.26 0 26.52 0 0 Z M30 34 C28.61773984 36.76452033 28.90474613 39.0461363 28.9375 42.125 C28.94652344 43.22070312 28.95554688 44.31640625 28.96484375 45.4453125 C28.97644531 46.28835937 28.98804688 47.13140625 29 48 C29.66 48 30.32 48 31 48 C31 47.34 31 46.68 31 46 C31.61875 45.835 32.2375 45.67 32.875 45.5 C35.82993928 43.41416051 36.05854297 41.28472106 36.8984375 37.875 C36.93195313 37.25625 36.96546875 36.6375 37 36 C35.16116119 33.71271266 35.16116119 33.71271266 32.375 33.875 C31.199375 33.936875 31.199375 33.936875 30 34 Z " fill="#398098" transform="translate(123,30)"/>
<path d="M0 0 C0.33 0.33 0.66 0.66 1 1 C1.99 0.67 2.98 0.34 4 0 C6.73865287 -0.07051114 9.45027588 -0.09357765 12.1875 -0.0625 C12.93708984 -0.05798828 13.68667969 -0.05347656 14.45898438 -0.04882812 C16.30602383 -0.03706354 18.15302213 -0.01912865 20 0 C20.495 1.98 20.495 1.98 21 4 C21.99 4 22.98 4 24 4 C24.556875 3.34 25.11375 2.68 25.6875 2 C28.40770703 -0.35261148 30.20582293 -0.56696846 33.76171875 -0.40625 C37.8074059 0.32804575 41.3718128 2.11871775 45 4 C45.66 2.68 46.32 1.36 47 0 C54.74136601 -0.10920422 62.31395526 0.02840067 70 1 C72 6.75 72 6.75 72 9 C73.65 8.34 75.3 7.68 77 7 C77.33 4.69 77.66 2.38 78 0 C79.010625 0.185625 80.02125 0.37125 81.0625 0.5625 C84.9773884 0.9974876 88.13518486 0.61837042 92 0 C93 1 93 1 93.0625 4.0625 C93.041875 5.031875 93.02125 6.00125 93 7 C93.66 7 94.32 7 95 7 C95 5.68 95 4.36 95 3 C95.62648438 3.0721875 96.25296875 3.144375 96.8984375 3.21875 C97.71570313 3.3115625 98.53296875 3.404375 99.375 3.5 C100.18710938 3.5928125 100.99921875 3.685625 101.8359375 3.78125 C103.96912825 4.03352351 103.96912825 4.03352351 106 4 C106 4.66 106 5.32 106 6 C106.66 6 107.32 6 108 6 C108 6.99 108 7.98 108 9 C105.69 8.67 103.38 8.34 101 8 C102.72226496 11.24849977 102.72226496 11.24849977 106 12 C105.67 12.99 105.34 13.98 105 15 C103.515 15.495 103.515 15.495 102 16 C101.67 16.66 101.34 17.32 101 18 C102.65 18 104.3 18 106 18 C106.33 17.34 106.66 16.68 107 16 C107.495 18.475 107.495 18.475 108 21 C104.7 21 101.4 21 98 21 C97.01751476 16.9472484 96.91840426 13.16138263 97 9 C96.01 8.67 95.02 8.34 94 8 C94.01160156 8.80824219 94.02320313 9.61648437 94.03515625 10.44921875 C94.04417969 11.51785156 94.05320312 12.58648437 94.0625 13.6875 C94.07410156 14.74324219 94.08570313 15.79898438 94.09765625 16.88671875 C94.00865425 19.72410262 93.64939838 22.2438919 93 25 C90 25 87 25 84 25 C83.0409375 25.3403125 83.0409375 25.3403125 82.0625 25.6875 C81.381875 25.790625 80.70125 25.89375 80 26 C78.25 24.5625 78.25 24.5625 77 23 C77.66 20.69 78.32 18.38 79 16 C76.36 16 73.72 16 71 16 C71.20625 16.928125 71.4125 17.85625 71.625 18.8125 C72 22 72 22 70 25 C68.35 25 66.7 25 65 25 C65 18.73 65 12.46 65 6 C64.34 6 63.68 6 63 6 C63 7.98 63 9.96 63 12 C60.69 11.67 58.38 11.34 56 11 C56.33 9.68 56.66 8.36 57 7 C55.35 7 53.7 7 52 7 C51.01 9.97 50.02 12.94 49 16 C50.485 16.495 50.485 16.495 52 17 C52 17.66 52 18.32 52 19 C53.258125 18.835 54.51625 18.67 55.8125 18.5 C58.26456585 18.17841759 60.51650694 18 63 18 C63.495 19.98 63.495 19.98 64 22 C60.74093264 25.69948187 60.74093264 25.69948187 58 27 C54.18915325 26.84840253 50.66492846 26.02383233 47 25 C47 24.34 47 23.68 47 23 C46.34 23 45.68 23 45 23 C43.375 21.5 43.375 21.5 42 20 C41.505 22.475 41.505 22.475 41 25 C35.67141968 26.80791118 32.08892678 27.54026127 26.83203125 25.26953125 C23.49138786 22.95458647 21.76956074 19.581659 20 16 C18.68 16.99 17.36 17.98 16 19 C15.505 17.515 15.505 17.515 15 16 C14.34 16.66 13.68 17.32 13 18 C13 18.33 13 18.66 13 19 C15.64 19.33 18.28 19.66 21 20 C21.495 22.475 21.495 22.475 22 25 C15.66666667 25 9.33333333 25 3 25 C1.56118235 25.22074282 0.12368982 25.45026083 -1.3125 25.6875 C-6.14331691 26.25255437 -8.7734234 25.3668829 -13 23 C-15.70605507 20.78361204 -16.47546013 19.21267888 -16.875 15.75 C-17.3266487 10.08134795 -15.60269771 6.17508975 -12.25 1.625 C-8.35764616 -1.18614444 -4.48988607 -1.49662869 0 0 Z M61 2 C62 4 62 4 62 4 Z M42 4 C43 6 43 6 43 6 Z M-9 8 C-9.13076643 10.7460951 -9.14561316 13.27649467 -9 16 C-9 16.99 -9 17.98 -9 19 C-4.36784746 19.90208263 -4.36784746 19.90208263 0.25 19.4375 C1.11625 19.2209375 1.11625 19.2209375 2 19 C2.99 19.66 3.98 20.32 5 21 C6.10540926 18.21081851 6.10540926 18.21081851 6 16 C6 14.33333333 6 12.66666667 6 11 C4.35 11 2.7 11 1 11 C0.773125 10.360625 0.54625 9.72125 0.3125 9.0625 C-0.84824288 6.77351151 -0.84824288 6.77351151 -3.4375 6.125 C-6.24443417 5.73353649 -6.24443417 5.73353649 -9 8 Z M85 6 C83.76572669 7.01384805 83.76572669 7.01384805 83.8671875 9.109375 C83.86742986 15.61247444 83.86742986 15.61247444 85 22 C87.35119399 18.47320901 87.21443452 16.97120515 87.125 12.8125 C87.10695313 11.72582031 87.08890625 10.63914062 87.0703125 9.51953125 C87.04710937 8.68808594 87.02390625 7.85664062 87 7 C86.34 6.67 85.68 6.34 85 6 Z M12 7 C12.33 7.66 12.66 8.32 13 9 C13.33 8.34 13.66 7.68 14 7 C13.34 7 12.68 7 12 7 Z M18 7 C18.66 8.32 19.32 9.64 20 11 C20.33 9.68 20.66 8.36 21 7 C20.01 7 19.02 7 18 7 Z M28 8 C28 8.928125 28 9.85625 28 10.8125 C28 12.875 28 14.9375 28 17 C28.99 17.99 29.98 18.98 31 20 C33.64 19.01 36.28 18.02 39 17 C39.33 17.66 39.66 18.32 40 19 C40.99 19 41.98 19 43 19 C42.67 16.69 42.34 14.38 42 12 C40.35 11.67 38.7 11.34 37 11 C37 9.68 37 8.36 37 7 C33.38055101 5.65946334 31.42632833 6.38201162 28 8 Z M20 12 C21 14 21 14 21 14 Z " fill="#A4C5CF" transform="translate(50,114)"/>
<path d="M0 0 C0.495 0.99 0.495 0.99 1 2 C2.65 1.67 4.3 1.34 6 1 C6 1.66 6 2.32 6 3 C6.66 3.33 7.32 3.66 8 4 C9.04808041 5.97522846 10.0520411 7.97481509 11 10 C13.64752004 7.42215154 15.94432065 5.08351902 18 2 C20.9812093 0.80751628 22.97786398 1.02859914 26 2 C26 3.98 26 5.96 26 8 C26.2784375 7.1028125 26.2784375 7.1028125 26.5625 6.1875 C28.67156885 2.9780474 31.36514492 1.82143618 35 1 C39.70437266 0.9375871 43.05288841 1.36859227 47 4 C48.32 4 49.64 4 51 4 C51.33 3.34 51.66 2.68 52 2 C57.44927536 0.72463768 57.44927536 0.72463768 60 2 C60 1.34 60 0.68 60 0 C63.56157348 0.96258743 64.8085752 1.72212529 66.9375 4.8125 C68 8 68 8 67.1875 10.75 C66.795625 11.4925 66.40375 12.235 66 13 C65.94617048 15.25157826 65.94617048 15.25157826 66.5625 18.4375 C67 22 67 22 66 25 C65.34 25 64.68 25 64 25 C63.67 25.66 63.34 26.32 63 27 C57.60550707 27.27429625 54.48074195 27.36055646 50 24 C51.45255699 20.17053157 53.42895561 18.87949705 57 17 C55.35 16.01 53.7 15.02 52 14 C52.495 14.99 52.495 14.99 53 16 C53 16.99 53 17.98 53 19 C52.01 19 51.02 19 50 19 C49.731875 19.5775 49.46375 20.155 49.1875 20.75 C46.88235294 25.11764706 46.88235294 25.11764706 45 27 C41.64453125 27.390625 41.64453125 27.390625 37.8125 27.25 C35.90404297 27.19585937 35.90404297 27.19585937 33.95703125 27.140625 C32.98121094 27.09421875 32.00539063 27.0478125 31 27 C31 26.34 31 25.68 31 25 C30.01 25 29.02 25 28 25 C27.34 24.34 26.68 23.68 26 23 C25.67 24.32 25.34 25.64 25 27 C22.69 27 20.38 27 18 27 C17.07529447 22.28400182 16.77076223 19.32734391 19 15 C18.34 15.66 17.68 16.32 17 17 C15.1875 18.75 15.1875 18.75 13 20 C10.375 19.4375 10.375 19.4375 8 18 C7.34 16.68 6.68 15.36 6 14 C6 18.29 6 22.58 6 27 C4.02 27 2.04 27 0 27 C-1 26 -1 26 -1.0625 23.4375 C-1.041875 22.633125 -1.02125 21.82875 -1 21 C-1.66 21 -2.32 21 -3 21 C-2.505 23.475 -2.505 23.475 -2 26 C-4.9348614 26.84903735 -7.5119254 27.10895545 -10.5625 27.0625 C-11.32691406 27.05347656 -12.09132812 27.04445312 -12.87890625 27.03515625 C-13.57886719 27.02355469 -14.27882812 27.01195312 -15 27 C-16.99873227 27 -18.99749906 27.01170468 -20.99609375 27.03515625 C-22.69958984 27.04869141 -22.69958984 27.04869141 -24.4375 27.0625 C-25.57058594 27.07410156 -26.70367187 27.08570313 -27.87109375 27.09765625 C-30.46906765 27.01657092 -32.53782523 26.76829532 -35 26 C-34.84152588 25.42024414 -34.68305176 24.84048828 -34.51977539 24.24316406 C-33.71911382 20.78779602 -33.62776918 17.28089697 -33.4375 13.75 C-33.39431641 13.00492188 -33.35113281 12.25984375 -33.30664062 11.4921875 C-33.20103275 9.661651 -33.10005799 7.83084824 -33 6 C-33.66 5.67 -34.32 5.34 -35 5 C-34.34 3.68 -33.68 2.36 -33 1 C-28.125 1.875 -28.125 1.875 -27 3 C-26.92674832 5.86267567 -26.90761795 8.700719 -26.9375 11.5625 C-26.94201172 12.36880859 -26.94652344 13.17511719 -26.95117188 14.00585938 C-26.96299482 16.00393756 -26.98093086 18.00197783 -27 20 C-24.36 20.33 -21.72 20.66 -19 21 C-18.74997791 19.25285767 -18.52576806 17.50200859 -18.3125 15.75 C-18.12107422 14.28820312 -18.12107422 14.28820312 -17.92578125 12.796875 C-17.730638 9.94530017 -17.730638 9.94530017 -19.54296875 7.953125 C-21 6 -21 6 -20.6875 3.25 C-20.460625 2.5075 -20.23375 1.765 -20 1 C-19.42967041 1.00523682 -18.85934082 1.01047363 -18.27172852 1.01586914 C-15.70199677 1.03658221 -13.13228253 1.0496419 -10.5625 1.0625 C-9.66466797 1.07087891 -8.76683594 1.07925781 -7.84179688 1.08789062 C-6.56079102 1.09272461 -6.56079102 1.09272461 -5.25390625 1.09765625 C-4.46314697 1.10289307 -3.6723877 1.10812988 -2.85766602 1.11352539 C-0.98407311 1.20495909 -0.98407311 1.20495909 0 0 Z M-4 7 C-4.33 7.33 -4.66 7.66 -5 8 C-6.66617115 8.04063832 -8.33388095 8.042721 -10 8 C-8.7934375 8.86625 -8.7934375 8.86625 -7.5625 9.75 C-5.02133261 11.98126893 -4.34879632 12.74456771 -4 16 C-6.3078491 17.15392455 -8.47230331 17.53437166 -11 18 C-11 18.66 -11 19.32 -11 20 C-6.47388905 21.20750536 -6.47388905 21.20750536 -2.28125 19.875 C-0.50507965 17.27572632 -0.70254752 15.42782026 -0.8125 12.3125 C-0.83957031 11.31863281 -0.86664063 10.32476562 -0.89453125 9.30078125 C-0.92933594 8.54152344 -0.96414062 7.78226562 -1 7 C-1.99 7 -2.98 7 -4 7 Z M57 8 C57.33 9.32 57.66 10.64 58 12 C58.66 11.67 59.32 11.34 60 11 C59.67 10.67 59.34 10.34 59 10 C59.66 9.34 60.32 8.68 61 8 C59.68 8 58.36 8 57 8 Z M25 9 C25 12.3 25 15.6 25 19 C25.33 19 25.66 19 26 19 C26 15.7 26 12.4 26 9 C25.67 9 25.34 9 25 9 Z M33.3125 9.25 C32.879375 9.8275 32.44625 10.405 32 11 C32.32843384 13.06381575 32.32843384 13.06381575 33 15 C32.67 15.66 32.34 16.32 32 17 C32.78375 17.45375 33.5675 17.9075 34.375 18.375 C37 20 37 20 39 22 C39.33 21.01 39.66 20.02 40 19 C42.0625 18.3125 42.0625 18.3125 44 18 C44 15.36 44 12.72 44 10 C38.47943586 7.81352582 38.47943586 7.81352582 33.3125 9.25 Z " fill="#A0C3CF" transform="translate(194,112)"/>
<path d="M0 0 C2.97 0 5.94 0 9 0 C9 1.32 9 2.64 9 4 C11.97 4 14.94 4 18 4 C18 2.68 18 1.36 18 0 C20.97 0 23.94 0 27 0 C27 1.32 27 2.64 27 4 C30.3 4 33.6 4 37 4 C37 2.68 37 1.36 37 0 C39.64 0 42.28 0 45 0 C45 4.29 45 8.58 45 13 C33.12 13 21.24 13 9 13 C9.05220703 18.83365234 9.05220703 18.83365234 9.10546875 24.78515625 C9.12888049 28.56143459 9.14708794 32.33770478 9.16479492 36.11401367 C9.17985979 38.73384229 9.20031554 41.35364578 9.22631836 43.97338867 C9.26280162 47.74404105 9.27974988 51.51435926 9.29296875 55.28515625 C9.30845261 56.45208511 9.32393646 57.61901398 9.33988953 58.82130432 C9.34114901 64.9388823 9.20185256 69.69074119 6 75 C4.515 75.495 4.515 75.495 3 76 C3 76.66 3 77.32 3 78 C2.01 77.67 1.02 77.34 0 77 C0 51.59 0 26.18 0 0 Z " fill="#39839D" transform="translate(124,32)"/>
<path d="M0 0 C8.58 0 17.16 0 26 0 C26 9 26 9 24 13 C23.01 13.66 22.02 14.32 21 15 C23.31 15.66 25.62 16.32 28 17 C28 20.3 28 23.6 28 27 C21.73 27 15.46 27 9 27 C9 27.66 9 28.32 9 29 C4.545 31.475 4.545 31.475 0 34 C0 22.78 0 11.56 0 0 Z M10 9 C8.61773984 11.76452033 8.90474613 14.0461363 8.9375 17.125 C8.94652344 18.22070312 8.95554688 19.31640625 8.96484375 20.4453125 C8.97644531 21.28835937 8.98804688 22.13140625 9 23 C9.66 23 10.32 23 11 23 C11 22.34 11 21.68 11 21 C11.61875 20.835 12.2375 20.67 12.875 20.5 C15.82993928 18.41416051 16.05854297 16.28472106 16.8984375 12.875 C16.93195313 12.25625 16.96546875 11.6375 17 11 C15.16116119 8.71271266 15.16116119 8.71271266 12.375 8.875 C11.199375 8.936875 11.199375 8.936875 10 9 Z " fill="#3B7C92" transform="translate(143,55)"/>
<path d="M0 0 C3.96 0 7.92 0 12 0 C12.33 0.99 12.66 1.98 13 3 C15.15503279 2.53820726 16.85507072 2.08799278 18.75 0.9375 C22.26386452 -0.52661022 25.20543329 -0.24481076 29 0 C29.66 0.66 30.32 1.32 31 2 C30.67 2.33 30.34 2.66 30 3 C30.33 3.66 30.66 4.32 31 5 C32.99983534 4.20882096 32.99983534 4.20882096 35 3 C35.33 2.01 35.66 1.02 36 0 C37.62418745 -0.08090971 39.24951745 -0.13914995 40.875 -0.1875 C41.77992188 -0.22230469 42.68484375 -0.25710937 43.6171875 -0.29296875 C44.79667969 -0.14794922 44.79667969 -0.14794922 46 0 C48.35119399 3.52679099 48.21443452 5.02879485 48.125 9.1875 C48.10695312 10.27417969 48.08890625 11.36085938 48.0703125 12.48046875 C48.04710937 13.31191406 48.02390625 14.14335938 48 15 C44.30995799 17.34894745 41.1328897 17.23059746 36.828125 17.1953125 C36.1457074 17.1924826 35.46328979 17.18965271 34.76019287 17.18673706 C32.58994693 17.17558098 30.42012029 17.15048557 28.25 17.125 C26.77474556 17.11496426 25.29948463 17.10583944 23.82421875 17.09765625 C20.21601058 17.07565687 16.60804625 17.04115883 13 17 C12.07330844 19.78007468 11.88237943 21.39231797 11.90234375 24.25610352 C11.90729858 25.53741905 11.90729858 25.53741905 11.91235352 26.84461975 C11.92065186 27.7634343 11.9289502 28.68224884 11.9375 29.62890625 C11.94128662 30.57434799 11.94507324 31.51978973 11.94897461 32.49388123 C11.96120298 35.51680011 11.97983629 38.53962424 12 41.5625 C12.02650489 45.54296611 12.04654133 49.52338547 12.0625 53.50390625 C12.07079834 54.42474503 12.07909668 55.3455838 12.08764648 56.29432678 C12.09260132 57.57091408 12.09260132 57.57091408 12.09765625 58.87329102 C12.10289307 59.62369156 12.10812988 60.3740921 12.11352539 61.14723206 C12 63 12 63 11 65 C12.32 64.01 13.64 63.02 15 62 C15.66 62.33 16.32 62.66 17 63 C15.35 64.65 13.7 66.3 12 68 C23.22 68.33 34.44 68.66 46 69 C46 66.36 46 63.72 46 61 C44.35 61 42.7 61 41 61 C41.66 60.34 42.32 59.68 43 59 C45.625 59.375 45.625 59.375 48 60 C48.08096803 61.45742463 48.13917774 62.91612807 48.1875 64.375 C48.23970703 65.59316406 48.23970703 65.59316406 48.29296875 66.8359375 C48.19628906 67.55007812 48.09960938 68.26421875 48 69 C44.24323391 71.50451073 42.2960686 71.21797127 37.8125 71.16015625 C37.11358643 71.15495468 36.41467285 71.14975311 35.69458008 71.14439392 C33.46284116 71.12659445 31.23156297 71.09543022 29 71.0625 C26.7684819 71.0348584 24.53703027 71.01014392 22.30541992 70.99131775 C20.28036819 70.97347453 18.25540744 70.94607329 16.23046875 70.91821289 C12.98406818 70.84302396 12.98406818 70.84302396 10 72 C8.70575042 69.41150084 8.91875288 67.620693 8.97827148 64.72412109 C9.00841591 63.07263565 9.00841591 63.07263565 9.03916931 61.38778687 C9.06620438 60.19505157 9.09323944 59.00231628 9.12109375 57.7734375 C9.14470474 56.55548492 9.16831573 55.33753235 9.19264221 54.08267212 C9.26941624 50.18000019 9.35338157 46.27751988 9.4375 42.375 C9.49070691 39.73438448 9.54344739 37.09375952 9.59570312 34.453125 C9.72417027 27.96859298 9.86235009 21.4843697 10 15 C21.88 15 33.76 15 46 15 C46 10.71 46 6.42 46 2 C43.36 2 40.72 2 38 2 C38 3.32 38 4.64 38 6 C34.7 6 31.4 6 28 6 C28 4.68 28 3.36 28 2 C25.03 2 22.06 2 19 2 C19 3.32 19 4.64 19 6 C16.03 6 13.06 6 10 6 C10 4.68 10 3.36 10 2 C7.03 2 4.06 2 1 2 C1 27.08 1 52.16 1 78 C0.67 78 0.34 78 0 78 C0 52.26 0 26.52 0 0 Z " fill="#C8E1EA" transform="translate(123,30)"/>
<path d="M0 0 C7.74136601 -0.10920422 15.31395526 0.02840067 23 1 C23 1.33 23 1.66 23 2 C20.69 2 18.38 2 16 2 C16 2.99 16 3.98 16 5 C16.99 5 17.98 5 19 5 C19 11.27 19 17.54 19 24 C20.32 24.33 21.64 24.66 23 25 C21.35 25 19.7 25 18 25 C18 18.73 18 12.46 18 6 C17.34 6 16.68 6 16 6 C16 7.98 16 9.96 16 12 C13.69 11.67 11.38 11.34 9 11 C9.33 9.68 9.66 8.36 10 7 C8.35 7 6.7 7 5 7 C4.01 9.97 3.02 12.94 2 16 C2.99 16.33 3.98 16.66 5 17 C5 17.66 5 18.32 5 19 C6.8871875 18.7525 6.8871875 18.7525 8.8125 18.5 C11.26456585 18.17841759 13.51650694 18 16 18 C16.33 19.32 16.66 20.64 17 22 C13.74093264 25.69948187 13.74093264 25.69948187 11 27 C7.18915325 26.84840253 3.66492846 26.02383233 0 25 C0 24.34 0 23.68 0 23 C-0.66 23 -1.32 23 -2 23 C-4.30313944 20.60473498 -4.97137338 19.20447585 -5.4375 15.875 C-5.623125 14.92625 -5.80875 13.9775 -6 13 C-7.95163118 11.56362302 -7.95163118 11.56362302 -10 11 C-9.67 9.68 -9.34 8.36 -9 7 C-9 7.99 -9 8.98 -9 10 C-8.01 10 -7.02 10 -6 10 C-6.66 7.69 -7.32 5.38 -8 3 C-7.34 2.67 -6.68 2.34 -6 2 C-3.875 2.9375 -3.875 2.9375 -2 4 C-1.34 2.68 -0.68 1.36 0 0 Z M14 2 C15 4 15 4 15 4 Z M-5 4 C-4 6 -4 6 -4 6 Z " fill="#B0CFD7" transform="translate(97,114)"/>
<path d="M0 0 C3.56157348 0.96258743 4.8085752 1.72212529 6.9375 4.8125 C8 8 8 8 7.1875 10.75 C6.795625 11.4925 6.40375 12.235 6 13 C5.94617048 15.25157826 5.94617048 15.25157826 6.5625 18.4375 C7 22 7 22 6 25 C5.34 25 4.68 25 4 25 C3.67 25.66 3.34 26.32 3 27 C-2.39449293 27.27429625 -5.51925805 27.36055646 -10 24 C-8.54744301 20.17053157 -6.57104439 18.87949705 -3 17 C-4.65 16.01 -6.3 15.02 -8 14 C-7.67 14.66 -7.34 15.32 -7 16 C-7 16.99 -7 17.98 -7 19 C-7.99 19 -8.98 19 -10 19 C-10.33 19.99 -10.66 20.98 -11 22 C-12.30963364 19.38073273 -11.92345749 17.6007974 -11.75 14.6875 C-11.63209759 10.72239113 -11.63209759 10.72239113 -13.109375 7.1640625 C-14.60739131 5.64351676 -14.60739131 5.64351676 -17 4 C-16.67 3.34 -16.34 2.68 -16 2 C-14.515 2.99 -14.515 2.99 -13 4 C-11.68 4 -10.36 4 -9 4 C-8.67 3.34 -8.34 2.68 -8 2 C-2.55072464 0.72463768 -2.55072464 0.72463768 0 2 C0 1.34 0 0.68 0 0 Z M-3 8 C-2.67 9.32 -2.34 10.64 -2 12 C-1.34 11.67 -0.68 11.34 0 11 C-0.33 10.67 -0.66 10.34 -1 10 C-0.34 9.34 0.32 8.68 1 8 C-0.32 8 -1.64 8 -3 8 Z " fill="#719EAD" transform="translate(254,112)"/>
<path d="M0 0 C2.64 0 5.28 0 8 0 C8 1.32 8 2.64 8 4 C11.3 4 14.6 4 18 4 C18 2.68 18 1.36 18 0 C20.64 0 23.28 0 26 0 C26 4.29 26 8.58 26 13 C14.12 13 2.24 13 -10 13 C-10 30.49 -10 47.98 -10 66 C-10.33 66 -10.66 66 -11 66 C-11 47.85 -11 29.7 -11 11 C-5.555 10.505 -5.555 10.505 0 10 C0.99 9.01 1.98 8.02 3 7 C2.505 6.5875 2.01 6.175 1.5 5.75 C0 4 0 4 0 0 Z " fill="#3F7F96" transform="translate(143,32)"/>
<path d="M0 0 C0 1.98 0 3.96 0 6 C0.66 6 1.32 6 2 6 C2 4.68 2 3.36 2 2 C2.62648437 2.0721875 3.25296875 2.144375 3.8984375 2.21875 C4.71570313 2.3115625 5.53296875 2.404375 6.375 2.5 C7.59316406 2.63921875 7.59316406 2.63921875 8.8359375 2.78125 C10.96912825 3.03352351 10.96912825 3.03352351 13 3 C13 3.66 13 4.32 13 5 C13.66 5 14.32 5 15 5 C15 5.99 15 6.98 15 8 C12.69 7.67 10.38 7.34 8 7 C9.72226496 10.24849977 9.72226496 10.24849977 13 11 C12.67 11.99 12.34 12.98 12 14 C11.01 14.33 10.02 14.66 9 15 C8.67 15.66 8.34 16.32 8 17 C9.65 17 11.3 17 13 17 C13.33 16.34 13.66 15.68 14 15 C14.33 16.65 14.66 18.3 15 20 C11.7 20 8.4 20 5 20 C4.01751476 15.9472484 3.91840426 12.16138263 4 8 C3.01 7.67 2.02 7.34 1 7 C1.01160156 7.80824219 1.02320313 8.61648437 1.03515625 9.44921875 C1.04869141 11.05216797 1.04869141 11.05216797 1.0625 12.6875 C1.07410156 13.74324219 1.08570313 14.79898438 1.09765625 15.88671875 C1.00865425 18.72410262 0.64939838 21.2438919 0 24 C-6.75 24.125 -6.75 24.125 -9 23 C-9 20.69 -9 18.38 -9 16 C-8.34 16.66 -7.68 17.32 -7 18 C-7 14.04 -7 10.08 -7 6 C-7.66 6 -8.32 6 -9 6 C-9 4.35 -9 2.7 -9 1 C-2.25 -1.125 -2.25 -1.125 0 0 Z " fill="#D1E5EA" transform="translate(143,115)"/>
<path d="M0 0 C0.680625 0.00644531 1.36125 0.01289062 2.0625 0.01953125 C4 0.1875 4 0.1875 7 1.1875 C9.04108797 4.19541911 9.19878036 6.60945344 9 10.1875 C8.01 10.1875 7.02 10.1875 6 10.1875 C6 9.1975 6 8.2075 6 7.1875 C1.545 7.6825 1.545 7.6825 -3 8.1875 C-3.07427838 11.53002724 -3.06546953 13.9910914 -2 17.1875 C-1.67 17.5175 -1.34 17.8475 -1 18.1875 C2.72988878 18.39831851 2.72988878 18.39831851 5.0625 17.5 C7 17.1875 7 17.1875 8.8125 18.3125 C10 20.1875 10 20.1875 9.6875 22.875 C9.3471875 24.0196875 9.3471875 24.0196875 9 25.1875 C3.43450351 27.07579345 0.24374952 27.46191665 -5.23828125 25.3046875 C-7.53106076 23.85072976 -8.64377717 22.54757356 -10 20.1875 C-10.90142968 13.84214204 -10.80930783 7.54874806 -7 2.1875 C-3.97455666 0.17053778 -3.38932618 -0.07061096 0 0 Z " fill="#6EA1B2" transform="translate(82,113.8125)"/>
<path d="M0 0 C2.5 1.8125 2.5 1.8125 5 4 C5 4.99 5 5.98 5 7 C5.66 7 6.32 7 7 7 C7.66 4.69 8.32 2.38 9 0 C14.53846154 -0.36923077 14.53846154 -0.36923077 16.875 1.5 C17.24625 1.995 17.6175 2.49 18 3 C19.32 2.34 20.64 1.68 22 1 C22 0.67 22 0.34 22 0 C25.3 0 28.6 0 32 0 C31.67 0.66 31.34 1.32 31 2 C31.99 2 32.98 2 34 2 C34 7.69230769 34 7.69230769 33 10 C31 11.4375 31 11.4375 28 12 C24.88862043 11.26515156 21.96013723 10.19953273 19 9 C19.33 7.68 19.66 6.36 20 5 C18.7018576 6.1490712 18.7018576 6.1490712 18 9 C16.3125 10.75 16.3125 10.75 14 12 C11 11.625 11 11.625 8 11 C6.88625 11.2784375 6.88625 11.2784375 5.75 11.5625 C4.88375 11.7790625 4.88375 11.7790625 4 12 C3.34 11.34 2.68 10.68 2 10 C-0.06874034 9.3574765 -0.06874034 9.3574765 -2 9 C-2 10.32 -2 11.64 -2 13 C-3.32 12.67 -4.64 12.34 -6 12 C-4.81819916 6.97734643 -3.55007718 3.9050849 0 0 Z M26 5 C26.33 5.99 26.66 6.98 27 8 C27.66 8 28.32 8 29 8 C28.67 7.01 28.34 6.02 28 5 C27.34 5 26.68 5 26 5 Z M5 9 C5 9.66 5 10.32 5 11 C5.66 10.67 6.32 10.34 7 10 C6.34 9.67 5.68 9.34 5 9 Z " fill="#BCBCBC" transform="translate(160,143)"/>
<path d="M0 0 C0.33 0.66 0.66 1.32 1 2 C3.9737344 3.09036928 4.88407501 3.03864166 8 2 C10.54760941 1.93295765 13.07750612 2.00184538 15.625 2.0625 C18.1512134 2.11135199 18.1512134 2.11135199 21 1 C23.26171875 1.12109375 23.26171875 1.12109375 25.6875 1.4375 C26.49574219 1.53933594 27.30398437 1.64117187 28.13671875 1.74609375 C28.75160156 1.82988281 29.36648437 1.91367188 30 2 C32.21538462 7.29230769 32.21538462 7.29230769 31.125 10.875 C30.75375 11.57625 30.3825 12.2775 30 13 C22 13.30769231 22 13.30769231 19 11 C18.25 8.875 18.25 8.875 18 7 C17.01 7.33 16.02 7.66 15 8 C15 10.31 15 12.62 15 15 C14.01 15 13.02 15 12 15 C12 14.01 12 13.02 12 12 C11.34 12 10.68 12 10 12 C10 11.34 10 10.68 10 10 C7.36893239 8.94729537 7.36893239 8.94729537 6 9 C5.67 9.99 5.34 10.98 5 12 C2.36 12.33 -0.28 12.66 -3 13 C-3 9.37 -3 5.74 -3 2 C-2.01 2 -1.02 2 0 2 C0 1.34 0 0.68 0 0 Z M8 6 C9 8 9 8 9 8 Z M22 8 C22.33 8.66 22.66 9.32 23 10 C23.66 10 24.32 10 25 10 C25 9.34 25 8.68 25 8 C24.01 8 23.02 8 22 8 Z " fill="#F2F2F2" transform="translate(108,141)"/>
<path d="M0 0 C4.875 0.875 4.875 0.875 6 2 C6.07325168 4.86267567 6.09238205 7.700719 6.0625 10.5625 C6.05798828 11.36880859 6.05347656 12.17511719 6.04882812 13.00585938 C6.03700518 15.00393756 6.01906914 17.00197783 6 19 C8.64 19.33 11.28 19.66 14 20 C14.25002209 18.25285767 14.47423194 16.50200859 14.6875 14.75 C14.87892578 13.28820312 14.87892578 13.28820312 15.07421875 11.796875 C14.98585696 8.46703084 14.07892642 7.50112485 12 5 C12 4.01 12 3.02 12 2 C12.66 2 13.32 2 14 2 C14 2.99 14 3.98 14 5 C15.32 5.33 16.64 5.66 18 6 C17.67 11.94 17.34 17.88 17 24 C19.97 24 22.94 24 26 24 C21.5911646 26.2044177 20.58522186 25.91704437 16 25 C15.67 25.33 15.34 25.66 15 26 C12.89778307 26.09968672 10.79207396 26.12968203 8.6875 26.125 C7.53636719 26.12757813 6.38523438 26.13015625 5.19921875 26.1328125 C2.58748263 26.02438878 0.47692016 25.77059738 -2 25 C-1.84152588 24.42024414 -1.68305176 23.84048828 -1.51977539 23.24316406 C-0.71911382 19.78779602 -0.62776918 16.28089697 -0.4375 12.75 C-0.39431641 12.00492188 -0.35113281 11.25984375 -0.30664062 10.4921875 C-0.20103275 8.661651 -0.10005799 6.83084824 0 5 C-0.66 4.67 -1.32 4.34 -2 4 C-1.34 2.68 -0.68 1.36 0 0 Z " fill="#CFE3EA" transform="translate(161,113)"/>
<path d="M0 0 C3.14518815 1.76916833 4.58408421 2.84823319 5.8125 6.25 C6.59557196 17.73505535 6.59557196 17.73505535 3 23 C-0.21100427 24.2041266 -3.35219989 24.10295 -6.75 24.0625 C-7.73484375 24.05347656 -8.7196875 24.04445312 -9.734375 24.03515625 C-10.48203125 24.02355469 -11.2296875 24.01195312 -12 24 C-12.28875 23.236875 -12.5775 22.47375 -12.875 21.6875 C-13.96269013 18.84970692 -13.96269013 18.84970692 -16 16 C-16.07905064 13.66800612 -16.08798769 11.33167378 -16 9 C-15.67 9.66 -15.34 10.32 -15 11 C-14.34 11 -13.68 11 -13 11 C-12.62875 11.969375 -12.2575 12.93875 -11.875 13.9375 C-10.28717868 17.25257824 -10.28717868 17.25257824 -7 18.0625 C-4.00907737 18.30957671 -4.00907737 18.30957671 -2.25 16.5625 C-1.8375 16.046875 -1.425 15.53125 -1 15 C-0.34 15 0.32 15 1 15 C0.34 11.7 -0.32 8.4 -1 5 C-2.464375 4.71125 -3.92875 4.4225 -5.4375 4.125 C-7.93359375 3.6328125 -7.93359375 3.6328125 -10 3 C-10.33 2.34 -10.66 1.68 -11 1 C-7.53431742 -0.73284129 -3.78929407 -0.47120755 0 0 Z " fill="#4C8698" transform="translate(237,115)"/>
<path d="M0 0 C5.28 0 10.56 0 16 0 C16 1.32 16 2.64 16 4 C13.03 4 10.06 4 7 4 C7 5.65 7 7.3 7 9 C9.64 9 12.28 9 15 9 C15.36923077 13.55384615 15.36923077 13.55384615 13.5 15.8125 C13.005 16.204375 12.51 16.59625 12 17 C11.67 16.01 11.34 15.02 11 14 C10.34 14.66 9.68 15.32 9 16 C9 16.33 9 16.66 9 17 C11.64 17.33 14.28 17.66 17 18 C17.33 19.65 17.66 21.3 18 23 C13.05 23 8.1 23 3 23 C3 16.4 3 9.8 3 3 C2.01 3 1.02 3 0 3 C0 2.01 0 1.02 0 0 Z " fill="#4A8394" transform="translate(54,116)"/>
<path d="M0 0 C3.3 0 6.6 0 10 0 C10.33 2.31 10.66 4.62 11 7 C12.299375 7.144375 13.59875 7.28875 14.9375 7.4375 C18.875 7.875 18.875 7.875 20 9 C20.14257189 12.33618231 20.04228157 15.65975606 20 19 C13.73 19 7.46 19 1 19 C1 19.66 1 20.32 1 21 C-0.32 21.33 -1.64 21.66 -3 22 C-2.01 20.515 -2.01 20.515 -1 19 C-0.63566627 16.87662229 -0.63566627 16.87662229 -0.5859375 14.55078125 C-0.54726562 13.70322266 -0.50859375 12.85566406 -0.46875 11.98242188 C-0.4378125 11.10134766 -0.406875 10.22027344 -0.375 9.3125 C-0.33632812 8.41982422 -0.29765625 7.52714844 -0.2578125 6.60742188 C-0.16360349 4.40528622 -0.08071506 2.20267153 0 0 Z M2 1 C0.61773984 3.76452033 0.90474613 6.0461363 0.9375 9.125 C0.94652344 10.22070312 0.95554688 11.31640625 0.96484375 12.4453125 C0.97644531 13.28835937 0.98804688 14.13140625 1 15 C1.66 15 2.32 15 3 15 C3 14.34 3 13.68 3 13 C3.61875 12.835 4.2375 12.67 4.875 12.5 C7.82993928 10.41416051 8.05854297 8.28472106 8.8984375 4.875 C8.93195313 4.25625 8.96546875 3.6375 9 3 C7.16116119 0.71271266 7.16116119 0.71271266 4.375 0.875 C3.199375 0.936875 3.199375 0.936875 2 1 Z " fill="#38829B" transform="translate(151,63)"/>
<path d="M0 0 C2.625 0.375 2.625 0.375 5 1 C5 2.98 5 4.96 5 7 C5.185625 6.401875 5.37125 5.80375 5.5625 5.1875 C7.76794061 1.83139472 10.22714933 1.17515021 14 0 C17.9375 0.3125 17.9375 0.3125 21 1 C21 1.33 21 1.66 21 2 C18.94921875 2.22786458 16.8984375 2.45572917 14.84765625 2.68359375 C12.98859771 2.81886614 12.98859771 2.81886614 12 4 C12.63808594 4.12117188 13.27617187 4.24234375 13.93359375 4.3671875 C14.75988281 4.53476563 15.58617187 4.70234375 16.4375 4.875 C17.26121094 5.03742188 18.08492187 5.19984375 18.93359375 5.3671875 C19.61550781 5.57601562 20.29742187 5.78484375 21 6 C21.33 6.66 21.66 7.32 22 8 C18.7 8 15.4 8 12 8 C12.08082531 13.59373338 12.08082531 13.59373338 15.0625 17.875 C15.701875 18.24625 16.34125 18.6175 17 19 C17 19.66 17 20.32 17 21 C14.6875 20.8125 14.6875 20.8125 12 20 C9 15.96551724 9 15.96551724 9 13 C8.34 13 7.68 13 7 13 C7.58174845 18.3086849 7.58174845 18.3086849 10 23 C9.01 23.33 8.02 23.66 7 24 C6.34 23.34 5.68 22.68 5 22 C4.67 23.32 4.34 24.64 4 26 C1.69 26 -0.62 26 -3 26 C-3.92470553 21.28400182 -4.22923777 18.32734391 -2 14 C-2.66 14 -3.32 14 -4 14 C-3.34 12.68 -2.68 11.36 -2 10 C-1.67 10 -1.34 10 -1 10 C-1 14.95 -1 19.9 -1 25 C0.32 25 1.64 25 3 25 C3 17.41 3 9.82 3 2 C1.35 2 -0.3 2 -2 2 C-1.34 1.34 -0.68 0.68 0 0 Z M4 8 C4 11.3 4 14.6 4 18 C4.33 18 4.66 18 5 18 C5 14.7 5 11.4 5 8 C4.67 8 4.34 8 4 8 Z " fill="#4C8597" transform="translate(215,113)"/>
<path d="M0 0 C2.97 0 5.94 0 9 0 C8.67 0.99 8.34 1.98 8 3 C8 2.34 8 1.68 8 1 C6.02 1 4.04 1 2 1 C2 25.09 2 49.18 2 74 C4.96731398 72.16343011 4.96731398 72.16343011 7 70 C6.67 71.65 6.34 73.3 6 75 C4.515 75.495 4.515 75.495 3 76 C3 76.66 3 77.32 3 78 C2.01 77.67 1.02 77.34 0 77 C0 51.59 0 26.18 0 0 Z " fill="#508796" transform="translate(124,32)"/>
<path d="M0 0 C4.95 0 9.9 0 15 0 C15 1.32 15 2.64 15 4 C12.36 4 9.72 4 7 4 C7 5.98 7 7.96 7 10 C9.31 10 11.62 10 14 10 C14 10.99 14 11.98 14 13 C11.69 13 9.38 13 7 13 C7 14.98 7 16.96 7 19 C9.64 19 12.28 19 15 19 C15 20.32 15 21.64 15 23 C11.04 22.67 7.08 22.34 3 22 C3 16.06 3 10.12 3 4 C2.01 3.67 1.02 3.34 0 3 C0 2.01 0 1.02 0 0 Z " fill="#498092" transform="translate(175,115)"/>
<path d="M0 0 C0 0.66 0 1.32 0 2 C0.68102783 1.9592334 1.36205566 1.9184668 2.0637207 1.87646484 C5.14612145 1.69819412 8.22917242 1.53641156 11.3125 1.375 C12.9202832 1.27832031 12.9202832 1.27832031 14.56054688 1.1796875 C16.10258789 1.10234375 16.10258789 1.10234375 17.67578125 1.0234375 C19.0975769 0.94488525 19.0975769 0.94488525 20.5480957 0.86474609 C23 1 23 1 26 3 C26.328125 5.3125 26.328125 5.3125 26.25 8 C26.23453125 8.886875 26.2190625 9.77375 26.203125 10.6875 C26 13 26 13 25 15 C24.01 14.67 23.02 14.34 22 14 C22.33 13.67 22.66 13.34 23 13 C23.33 10.03 23.66 7.06 24 4 C15.42 4 6.84 4 -2 4 C-1.88023292 8.66327136 -1.757642 13.32628515 -1.62768555 17.98925781 C-1.58432759 19.57612657 -1.54265313 21.16304224 -1.50268555 22.75 C-1.44500368 25.02878979 -1.38130362 27.30734322 -1.31640625 29.5859375 C-1.29969376 30.29744965 -1.28298126 31.00896179 -1.26576233 31.74203491 C-1.20278063 35.49660817 -1.20278063 35.49660817 0 39 C1.485 38.505 1.485 38.505 3 38 C4.72795352 37.93197033 6.45835365 37.91504355 8.1875 37.9375 C9.08855469 37.94652344 9.98960937 37.95554688 10.91796875 37.96484375 C11.60503906 37.97644531 12.29210937 37.98804688 13 38 C13 38.33 13 38.66 13 39 C7.06 39.66 1.12 40.32 -5 41 C-5 40.34 -5 39.68 -5 39 C-4.34 39 -3.68 39 -3 39 C-3.33 38.34 -3.66 37.68 -4 37 C-4.07390095 34.71073317 -4.08343648 32.41926989 -4.0625 30.12890625 C-4.05871338 29.45077377 -4.05492676 28.7726413 -4.05102539 28.07395935 C-4.03465794 25.16959323 -4.00654772 22.26536704 -3.97949219 19.36108398 C-3.96141924 17.24203134 -3.94931614 15.12300152 -3.9375 13.00390625 C-3.92589844 11.73361572 -3.91429687 10.4633252 -3.90234375 9.15454102 C-3.84996959 5.97222177 -3.84996959 5.97222177 -5 3 C-2.25 0 -2.25 0 0 0 Z " fill="#BED7DD" transform="translate(145,51)"/>
<path d="M0 0 C3.96 0 7.92 0 12 0 C12.33 0.99 12.66 1.98 13 3 C15.15503279 2.53820726 16.85507072 2.08799278 18.75 0.9375 C22.26386452 -0.52661022 25.20543329 -0.24481076 29 0 C29.66 0.66 30.32 1.32 31 2 C30.67 2.33 30.34 2.66 30 3 C30.33 3.66 30.66 4.32 31 5 C31.61875 4.690625 32.2375 4.38125 32.875 4.0625 C34.25 3.375 35.625 2.6875 37 2 C37 3.32 37 4.64 37 6 C34.03 6 31.06 6 28 6 C28 4.68 28 3.36 28 2 C25.03 2 22.06 2 19 2 C19 3.32 19 4.64 19 6 C16.03 6 13.06 6 10 6 C10 4.68 10 3.36 10 2 C7.03 2 4.06 2 1 2 C1 27.08 1 52.16 1 78 C0.67 78 0.34 78 0 78 C0 52.26 0 26.52 0 0 Z " fill="#F4FBFB" transform="translate(123,30)"/>
<path d="M0 0 C0.99 0.33 1.98 0.66 3 1 C3.0825 2.27875 3.165 3.5575 3.25 4.875 C3.61605871 8.08898225 3.61605871 8.08898225 5.5625 10.5625 C9.21539295 11.21814745 12.33148929 10.58230329 16 10 C16.99 10 17.98 10 19 10 C19.33 11.32 19.66 12.64 20 14 C16.74093264 17.69948187 16.74093264 17.69948187 14 19 C10.18915325 18.84840253 6.66492846 18.02383233 3 17 C3 16.34 3 15.68 3 15 C2.34 15 1.68 15 1 15 C-1.16331487 12.79032839 -1.975057 11.57992475 -2.109375 8.45703125 C-1.99078125 7.58433594 -1.8721875 6.71164063 -1.75 5.8125 C-1.64171875 4.93207031 -1.5334375 4.05164063 -1.421875 3.14453125 C-1 1 -1 1 0 0 Z " fill="#5C91A0" transform="translate(94,122)"/>
<path d="M0 0 C0.33 0.66 0.66 1.32 1 2 C2.65 1.67 4.3 1.34 6 1 C5.67 1.66 5.34 2.32 5 3 C2.66666667 3.33333333 0.33333333 3.66666667 -2 4 C-2.33 4.66 -2.66 5.32 -3 6 C-2.01 6 -1.02 6 0 6 C0 12.6 0 19.2 0 26 C-0.33 26 -0.66 26 -1 26 C-1 24.35 -1 22.7 -1 21 C-1.66 21 -2.32 21 -3 21 C-2.67 22.65 -2.34 24.3 -2 26 C-3.32 26.33 -4.64 26.66 -6 27 C-5.34 26.67 -4.68 26.34 -4 26 C-4 24.68 -4 23.36 -4 22 C-6.64 22 -9.28 22 -12 22 C-12 20.02 -12 18.04 -12 16 C-9.69 16 -7.38 16 -5 16 C-5 15.01 -5 14.02 -5 13 C-7.31 13 -9.62 13 -12 13 C-12 11.02 -12 9.04 -12 7 C-9.36 7 -6.72 7 -4 7 C-4 5.68 -4 4.36 -4 3 C-8.95 3 -13.9 3 -19 3 C-19.33 2.34 -19.66 1.68 -20 1 C-19.42967041 1.00523682 -18.85934082 1.01047363 -18.27172852 1.01586914 C-15.70199677 1.03658221 -13.13228253 1.0496419 -10.5625 1.0625 C-9.66466797 1.07087891 -8.76683594 1.07925781 -7.84179688 1.08789062 C-6.56079102 1.09272461 -6.56079102 1.09272461 -5.25390625 1.09765625 C-4.46314697 1.10289307 -3.6723877 1.10812988 -2.85766602 1.11352539 C-0.98407311 1.20495909 -0.98407311 1.20495909 0 0 Z M-4 7 C-4.33 7.33 -4.66 7.66 -5 8 C-6.66617115 8.04063832 -8.33388095 8.042721 -10 8 C-8.7934375 8.86625 -8.7934375 8.86625 -7.5625 9.75 C-5.02133261 11.98126893 -4.34879632 12.74456771 -4 16 C-6.3078491 17.15392455 -8.47230331 17.53437166 -11 18 C-11 18.66 -11 19.32 -11 20 C-6.47388905 21.20750536 -6.47388905 21.20750536 -2.28125 19.875 C-0.50507965 17.27572632 -0.70254752 15.42782026 -0.8125 12.3125 C-0.83957031 11.31863281 -0.86664063 10.32476562 -0.89453125 9.30078125 C-0.92933594 8.54152344 -0.96414062 7.78226562 -1 7 C-1.99 7 -2.98 7 -4 7 Z " fill="#DFEEF2" transform="translate(194,112)"/>
<path d="M0 0 C3.56157348 0.96258743 4.8085752 1.72212529 6.9375 4.8125 C8 8 8 8 7.4375 10.8125 C6 13 6 13 4.125 14.0625 C2 14 2 14 -0.25 12.0625 C-0.8275 11.381875 -1.405 10.70125 -2 10 C-2 10.66 -2 11.32 -2 12 C-3.32 12 -4.64 12 -6 12 C-6 10.02 -6 8.04 -6 6 C-7.0725 6.226875 -8.145 6.45375 -9.25 6.6875 C-13 7 -13 7 -15.4375 5.5625 C-15.953125 5.046875 -16.46875 4.53125 -17 4 C-16.67 3.34 -16.34 2.68 -16 2 C-14.515 2.99 -14.515 2.99 -13 4 C-11.68 4 -10.36 4 -9 4 C-8.67 3.34 -8.34 2.68 -8 2 C-2.55072464 0.72463768 -2.55072464 0.72463768 0 2 C0 1.34 0 0.68 0 0 Z " fill="#9FC2CE" transform="translate(254,112)"/>
<path d="M0 0 C1.65 0 3.3 0 5 0 C5 7.59 5 15.18 5 23 C3.68 23 2.36 23 1 23 C0.67 18.38 0.34 13.76 0 9 C-0.66 9.66 -1.32 10.32 -2 11 C-2.99 11 -3.98 11 -5 11 C-4.46899792 6.4864823 -2.91497071 3.48177056 0 0 Z " fill="#5D8E9E" transform="translate(213,115)"/>
<path d="M0 0 C7.75 -0.125 7.75 -0.125 10 1 C10 2.98 10 4.96 10 7 C8.68 7 7.36 7 6 7 C6 12.28 6 17.56 6 23 C4.68 23 3.36 23 2 23 C2 16.4 2 9.8 2 3 C1.01 3 0.02 3 -1 3 C-0.67 2.01 -0.34 1.02 0 0 Z " fill="#548B9C" transform="translate(192,115)"/>
<path d="M0 0 C4.95 0 9.9 0 15 0 C17.16753927 7.22513089 17.16753927 7.22513089 16.5 10.3125 C14.37050838 12.70817808 11.90882311 13.7352943 9 15 C8.67 11.7 8.34 8.4 8 5 C7.01 5 6.02 5 5 5 C5 4.01 5 3.02 5 2 C4.01 2 3.02 2 2 2 C2 2.66 2 3.32 2 4 C1.34 4 0.68 4 0 4 C0 2.68 0 1.36 0 0 Z " fill="#3B829A" transform="translate(152,56)"/>
<path d="M0 0 C2.09350689 3.4019487 2.17942163 6.05272412 2 10 C0.02 10.99 0.02 10.99 -2 12 C-1.34 12.33 -0.68 12.66 0 13 C-6.42210386 13.48468708 -6.42210386 13.48468708 -8.9375 11.375 C-10.295454 8.33957342 -10.42030443 6.29238472 -10 3 C-7.7109263 -1.03954182 -4.21983723 -0.23885871 0 0 Z M-7 5 C-6 7 -6 7 -6 7 Z " fill="#E0E0E0" transform="translate(152,143)"/>
<path d="M0 0 C1.32 0.33 2.64 0.66 4 1 C4 6.28 4 11.56 4 17 C6.97 17 9.94 17 13 17 C13 18.32 13 19.64 13 21 C8.71 21 4.42 21 0 21 C0 14.07 0 7.14 0 0 Z " fill="#487F91" transform="translate(162,117)"/>
<path d="M0 0 C1.98 0 3.96 0 6 0 C5.0409375 0.6496875 5.0409375 0.6496875 4.0625 1.3125 C1.73253997 2.91239177 1.73253997 2.91239177 1 6 C-13.85 5.67 -28.7 5.34 -44 5 C-44.33 3.68 -44.66 2.36 -45 1 C-43.28780273 1.24447876 -43.28780273 1.24447876 -41.54101562 1.49389648 C-37.12426925 2.04380736 -32.78956525 2.12840829 -28.34375 2.09765625 C-27.16214294 2.09553383 -27.16214294 2.09553383 -25.95666504 2.09336853 C-23.47106936 2.08782612 -20.98556789 2.07528485 -18.5 2.0625 C-16.80208465 2.05747754 -15.10416786 2.05291595 -13.40625 2.04882812 C-9.27079771 2.03787564 -5.13541476 2.02065166 -1 2 C-0.67 1.34 -0.34 0.68 0 0 Z " fill="#D8DFE1" transform="translate(168,155)"/>
<path d="M0 0 C3.3 0 6.6 0 10 0 C9.67 0.66 9.34 1.32 9 2 C9.99 2 10.98 2 12 2 C12 7.69230769 12 7.69230769 11 10 C9 11.4375 9 11.4375 6 12 C2.88862043 11.26515156 -0.03986277 10.19953273 -3 9 C-2.67 7.68 -2.34 6.36 -2 5 C-2.33 5.33 -2.66 5.66 -3 6 C-3.66 6 -4.32 6 -5 6 C-4.1875 4.0625 -4.1875 4.0625 -3 2 C-2.01 1.67 -1.02 1.34 0 1 C0 0.67 0 0.34 0 0 Z M4 5 C4.33 5.99 4.66 6.98 5 8 C5.66 8 6.32 8 7 8 C6.67 7.01 6.34 6.02 6 5 C5.34 5 4.68 5 4 5 Z " fill="#C8C8C7" transform="translate(182,143)"/>
<path d="M0 0 C1.5625 1 1.5625 1 3 3 C2.96726452 5.76614782 2.49404328 8.26030547 2 11 C1.34 11 0.68 11 0 11 C-0.33 11.66 -0.66 12.32 -1 13 C-6.39449293 13.27429625 -9.51925805 13.36055646 -14 10 C-12.27137715 5.44272158 -9.18330285 4.09165143 -5 2 C-2 4 -2 4 0 7 C0 4.69 0 2.38 0 0 Z " fill="#94BAC4" transform="translate(258,126)"/>
<path d="M0 0 C2.98941909 2.98941909 2.46571109 6.41877342 2.625 10.4375 C2.66367188 11.21416016 2.70234375 11.99082031 2.7421875 12.79101562 C3.17420676 21.74770056 3.17420676 21.74770056 1.1875 24.625 C-1 27 -1 27 -4 28 C-4 26.02 -4 24.04 -4 22 C-3.34 22 -2.68 22 -2 22 C-2.33 21.67 -2.66 21.34 -3 21 C-3.09217384 17.85220027 -2.85390811 14.70601756 -2.6875 11.5625 C-2.65205078 10.67755859 -2.61660156 9.79261719 -2.58007812 8.88085938 C-2.53689453 8.03458984 -2.49371094 7.18832031 -2.44921875 6.31640625 C-2.39254028 5.14766968 -2.39254028 5.14766968 -2.3347168 3.95532227 C-2 2 -2 2 0 0 Z " fill="#3A829B" transform="translate(147,61)"/>
<path d="M0 0 C2.31 0 4.62 0 7 0 C7 3.3 7 6.6 7 10 C9.31 10 11.62 10 14 10 C13.67 10.66 13.34 11.32 13 12 C11.02 12 9.04 12 7 12 C7 15.3 7 18.6 7 22 C5.68 22 4.36 22 3 22 C3 15.73 3 9.46 3 3 C2.01 3 1.02 3 0 3 C0 2.01 0 1.02 0 0 Z " fill="#3F7D91" transform="translate(113,116)"/>
<path d="M0 0 C0.33 1.98 0.66 3.96 1 6 C-6.82608696 9.39130435 -6.82608696 9.39130435 -11.375 7.875 C-13.49730537 6.35906759 -15.3078148 4.97421607 -17 3 C-16.67 2.34 -16.34 1.68 -16 1 C-11.52459016 -0.26229508 -11.52459016 -0.26229508 -9 1 C-8.21625 0.67 -7.4325 0.34 -6.625 0 C-3.79733145 -1.07720707 -2.77147574 -1.0264725 0 0 Z " fill="#468194" transform="translate(91,132)"/>
<path d="M0 0 C0 0.99 0 1.98 0 3 C-1.134375 3.309375 -2.26875 3.61875 -3.4375 3.9375 C-6.78775099 4.62924531 -6.78775099 4.62924531 -8 6 C-8.07244053 8.01964199 -8.08377188 10.04167124 -8.0625 12.0625 C-8.05347656 13.16722656 -8.04445313 14.27195313 -8.03515625 15.41015625 C-8.02355469 16.26480469 -8.01195312 17.11945313 -8 18 C-8.99 18.33 -9.98 18.66 -11 19 C-13.77856443 15.63204311 -15.40414939 13.39543115 -15.125 8.9375 C-14.48032355 5.61199077 -13.78122759 4.74387621 -11.4375 2 C-7.10577042 -0.52027903 -4.91444203 -0.4236588 0 0 Z " fill="#76A3B5" transform="translate(48,116)"/>
<path d="M0 0 C3.3 0 6.6 0 10 0 C10.33 2.31 10.66 4.62 11 7 C12.299375 7.144375 13.59875 7.28875 14.9375 7.4375 C18.875 7.875 18.875 7.875 20 9 C20.14257189 12.33618231 20.04228157 15.65975606 20 19 C13.73 19 7.46 19 1 19 C1 19.66 1 20.32 1 21 C-0.32 21.33 -1.64 21.66 -3 22 C-2.07421875 20.015625 -2.07421875 20.015625 0 18 C3.06833622 17.47660982 6.08608398 17.62527175 9.1875 17.75 C10.03248047 17.76804687 10.87746094 17.78609375 11.74804688 17.8046875 C13.83251573 17.85179414 15.91640144 17.92353767 18 18 C18 15.03 18 12.06 18 9 C16.55625 9.144375 15.1125 9.28875 13.625 9.4375 C12.81289062 9.51871094 12.00078125 9.59992188 11.1640625 9.68359375 C8.95727195 9.89090114 8.95727195 9.89090114 7 11 C7.33 8.36 7.66 5.72 8 3 C6.02 2.34 4.04 1.68 2 1 C2.01160156 1.67546875 2.02320313 2.3509375 2.03515625 3.046875 C2.04869141 4.38492188 2.04869141 4.38492188 2.0625 5.75 C2.07410156 6.63171875 2.08570313 7.5134375 2.09765625 8.421875 C2.00826198 10.7818838 1.66912821 12.74498524 1 15 C1.66 15.33 2.32 15.66 3 16 C2.01 16.33 1.02 16.66 0 17 C0 11.39 0 5.78 0 0 Z " fill="#CDE6EE" transform="translate(151,63)"/>
<path d="M0 0 C6.27 0 12.54 0 19 0 C19.33 1.32 19.66 2.64 20 4 C20.99 4.33 21.98 4.66 23 5 C22.34 9.29 21.68 13.58 21 18 C20.01 17.01 19.02 16.02 18 15 C18 13.68 18 12.36 18 11 C15.36 11 12.72 11 10 11 C10 9.35 10 7.7 10 6 C12.97 6 15.94 6 19 6 C19 4.68 19 3.36 19 2 C13.72 2 8.44 2 3 2 C2.67 2.99 2.34 3.98 2 5 C1.01 4.01 0.02 3.02 -1 2 C-0.67 1.34 -0.34 0.68 0 0 Z M11 7 C11.33 7.66 11.66 8.32 12 9 C12.33 8.34 12.66 7.68 13 7 C12.34 7 11.68 7 11 7 Z M17 7 C17.66 8.32 18.32 9.64 19 11 C19.33 9.68 19.66 8.36 20 7 C19.01 7 18.02 7 17 7 Z M19 12 C20 14 20 14 20 14 Z " fill="#E0F1F5" transform="translate(51,114)"/>
<path d="M0 0 C2.31 0 4.62 0 7 0 C7 7.26 7 14.52 7 22 C5.68 22 4.36 22 3 22 C3 15.73 3 9.46 3 3 C2.01 3 1.02 3 0 3 C0 2.01 0 1.02 0 0 Z " fill="#477986" transform="translate(135,116)"/>
<path d="M0 0 C2.625 0.375 2.625 0.375 5 1 C4.979375 1.969375 4.95875 2.93875 4.9375 3.9375 C4.64381501 6.87465895 4.64381501 6.87465895 6 8 C6.15803776 9.58037765 6.27651104 11.16479674 6.375 12.75 C6.73658432 16.88747301 7.41624501 19.6298848 10 23 C9.01 23.33 8.02 23.66 7 24 C6.34 23.34 5.68 22.68 5 22 C4.67 23.32 4.34 24.64 4 26 C1.69 26 -0.62 26 -3 26 C-3.92470553 21.28400182 -4.22923777 18.32734391 -2 14 C-2.66 14 -3.32 14 -4 14 C-3.34 12.68 -2.68 11.36 -2 10 C-1.67 10 -1.34 10 -1 10 C-1 14.95 -1 19.9 -1 25 C0.32 25 1.64 25 3 25 C3 17.41 3 9.82 3 2 C1.35 2 -0.3 2 -2 2 C-1.34 1.34 -0.68 0.68 0 0 Z M4 8 C4 11.3 4 14.6 4 18 C4.33 18 4.66 18 5 18 C5 14.7 5 11.4 5 8 C4.67 8 4.34 8 4 8 Z " fill="#CCE2E8" transform="translate(215,113)"/>
<path d="M0 0 C1.134375 0.020625 2.26875 0.04125 3.4375 0.0625 C4.02971552 3.07507459 4.4851436 5.98684068 4.4375 9.0625 C2.625 11.625 2.625 11.625 0.4375 13.0625 C-0.2225 13.0625 -0.8825 13.0625 -1.5625 13.0625 C-1.5625 12.0725 -1.5625 11.0825 -1.5625 10.0625 C-2.8825 9.4025 -4.2025 8.7425 -5.5625 8.0625 C-4.54651535 0.07976343 -4.54651535 0.07976343 0 0 Z " fill="#BBBABB" transform="translate(199.5625,142.9375)"/>
<path d="M0 0 C3.75068199 0.45008184 4.78988517 1.50101252 7.125 4.375 C6.465 6.355 5.805 8.335 5.125 10.375 C-1.625 10.5 -1.625 10.5 -3.875 9.375 C-4.625 5.9375 -4.625 5.9375 -4.875 2.375 C-2.875 0.375 -2.875 0.375 0 0 Z M-2.875 5.375 C-2.545 6.035 -2.215 6.695 -1.875 7.375 C-1.215 7.375 -0.555 7.375 0.125 7.375 C0.125 6.715 0.125 6.055 0.125 5.375 C-0.865 5.375 -1.855 5.375 -2.875 5.375 Z " fill="#A3A3A2" transform="translate(132.875,143.625)"/>
<path d="M0 0 C0.99 0 1.98 0 3 0 C3.103125 0.639375 3.20625 1.27875 3.3125 1.9375 C3.539375 2.618125 3.76625 3.29875 4 4 C4.99 4.33 5.98 4.66 7 5 C7 7.31 7 9.62 7 12 C4.03 12 1.06 12 -2 12 C-2.33 9.69 -2.66 7.38 -3 5 C-2.34 4.67 -1.68 4.34 -1 4 C-0.34786708 1.97536745 -0.34786708 1.97536745 0 0 Z " fill="#C3C3C3" transform="translate(94,143)"/>
<path d="M0 0 C0 0.99 0 1.98 0 3 C1.32 3.66 2.64 4.32 4 5 C4 7.31 4 9.62 4 12 C2.0625 11.6875 2.0625 11.6875 0 11 C-0.33 10.01 -0.66 9.02 -1 8 C-3.50447516 6.78130071 -3.50447516 6.78130071 -6 6 C-6.33 6.66 -6.66 7.32 -7 8 C-7.66 7.34 -8.32 6.68 -9 6 C-5.535 5.505 -5.535 5.505 -2 5 C-2 4.01 -2 3.02 -2 2 C-7.71241466 2.38728235 -10.73688282 2.87010523 -15 7 C-13.70689829 4.11538849 -12.58442376 1.87147927 -10 0 C-6.13853697 -0.82745636 -3.77058297 -1.25686099 0 0 Z " fill="#8DB7C4" transform="translate(50,114)"/>
<path d="M0 0 C2.625 0.375 2.625 0.375 5 1 C5.08096803 2.45742463 5.13917774 3.91612807 5.1875 5.375 C5.23970703 6.59316406 5.23970703 6.59316406 5.29296875 7.8359375 C5.19628906 8.55007812 5.09960938 9.26421875 5 10 C1.24323391 12.50451073 -0.7039314 12.21797127 -5.1875 12.16015625 C-6.23587036 12.1523539 -6.23587036 12.1523539 -7.30541992 12.14439392 C-9.53715884 12.12659445 -11.76843703 12.09543022 -14 12.0625 C-16.2315181 12.0348584 -18.46296973 12.01014392 -20.69458008 11.99131775 C-22.71963181 11.97347453 -24.74459256 11.94607329 -26.76953125 11.91821289 C-30.01593182 11.84302396 -30.01593182 11.84302396 -33 13 C-33 12.01 -33 11.02 -33 10 C-21.12 10 -9.24 10 3 10 C3 7.36 3 4.72 3 2 C1.35 2 -0.3 2 -2 2 C-1.34 1.34 -0.68 0.68 0 0 Z " fill="#C6DEE5" transform="translate(166,89)"/>
<path d="M0 0 C0.99 0.33 1.98 0.66 3 1 C2.67 1.99 2.34 2.98 2 4 C1.91875911 5.41674718 1.89245119 6.83706342 1.90234375 8.25610352 C1.90564697 9.11031387 1.9089502 9.96452423 1.91235352 10.84461975 C1.92065186 11.7634343 1.9289502 12.68224884 1.9375 13.62890625 C1.94128662 14.57434799 1.94507324 15.51978973 1.94897461 16.49388123 C1.96120298 19.51680011 1.97983629 22.53962424 2 25.5625 C2.02650489 29.54296611 2.04654133 33.52338547 2.0625 37.50390625 C2.07079834 38.42474503 2.07909668 39.3455838 2.08764648 40.29432678 C2.09094971 41.14538498 2.09425293 41.99644318 2.09765625 42.87329102 C2.10289307 43.62369156 2.10812988 44.3740921 2.11352539 45.14723206 C2 47 2 47 1 49 C2.32 48.01 3.64 47.02 5 46 C5.66 46.33 6.32 46.66 7 47 C4.69 48.98 2.38 50.96 0 53 C0 35.51 0 18.02 0 0 Z " fill="#CFEDF7" transform="translate(133,46)"/>
<path d="M0 0 C0.66 1.32 1.32 2.64 2 4 C-1.43523316 7.69948187 -1.43523316 7.69948187 -4 9 C-7.18107032 8.84999831 -10.00293267 8.04564349 -13 7 C-11.68 6.01 -10.36 5.02 -9 4 C-9.33 3.01 -9.66 2.02 -10 1 C-6.56484998 0.37542727 -3.50935186 0 0 0 Z " fill="#83A9B6" transform="translate(112,132)"/>
<path d="M0 0 C0.33 0.66 0.66 1.32 1 2 C1.99 2.33 2.98 2.66 4 3 C4.36426713 9.43538595 4.36426713 9.43538595 2.75 11.9375 C1 13 1 13 -3 13 C-3 9.37 -3 5.74 -3 2 C-2.01 2 -1.02 2 0 2 C0 1.34 0 0.68 0 0 Z " fill="#9F9F9F" transform="translate(108,141)"/>
<path d="M0 0 C0.33 0.66 0.66 1.32 1 2 C1.66 2 2.32 2 3 2 C3.433125 3.423125 3.433125 3.423125 3.875 4.875 C6.34837262 8.51231267 7.05128805 8.57934961 11.1875 9.375 C12.78818595 9.60857649 14.39185505 9.82500486 16 10 C16 10.99 16 11.98 16 13 C7.0247473 13.62739631 7.0247473 13.62739631 2.9375 11.125 C-0.42077914 7.44172611 -0.09068677 4.89708562 0 0 Z " fill="#477F90" transform="translate(221,124)"/>
<path d="M0 0 C0.33 0 0.66 0 1 0 C1.33 3.63 1.66 7.26 2 11 C2.66 11 3.32 11 4 11 C4 12.65 4 14.3 4 16 C6.97 16 9.94 16 13 16 C13 16.99 13 17.98 13 19 C8.71 19 4.42 19 0 19 C0 12.73 0 6.46 0 0 Z " fill="#508393" transform="translate(57,119)"/>
<path d="M0 0 C0.66 0 1.32 0 2 0 C2.93570461 4.77209353 3.13363464 7.6072228 1 12 C1 12.66 1 13.32 1 14 C1.99 14 2.98 14 4 14 C3.34 15.32 2.68 16.64 2 18 C-2.62 18 -7.24 18 -12 18 C-12 17.01 -12 16.02 -12 15 C-10.37509046 14.97301811 -8.75005367 14.95361243 -7.125 14.9375 C-6.22007812 14.92589844 -5.31515625 14.91429687 -4.3828125 14.90234375 C-2 15 -2 15 0 16 C0 15.01 0 14.02 0 13 C-1.32 12.67 -2.64 12.34 -4 12 C-2.625 10.5 -2.625 10.5 -1 9 C-0.34 9 0.32 9 1 9 C0.67 6.03 0.34 3.06 0 0 Z " fill="#A0C0CA" transform="translate(237,121)"/>
<path d="M0 0 C1.98 0 3.96 0 6 0 C8 5.75 8 5.75 8 8 C6 9.625 6 9.625 4 11 C2.68 10.34 1.36 9.68 0 9 C0 6.03 0 3.06 0 0 Z " fill="#979797" transform="translate(170,144)"/>
<path d="M0 0 C-4.69341345 2.97368944 -9.98984665 2.3929347 -15.37109375 2.55859375 C-19.10150606 3.01234681 -21.03605184 3.74518336 -24 6 C-24.33 6.66 -24.66 7.32 -25 8 C-23.35 8 -21.7 8 -20 8 C-20 8.33 -20 8.66 -20 9 C-23.3 9 -26.6 9 -30 9 C-23.02152496 0.83369942 -23.02152496 0.83369942 -16.0546875 0.1875 C-10.70486415 -0.1408779 -5.35721779 -0.07557204 0 0 Z " fill="#538C9D" transform="translate(164,90)"/>
<path d="M0 0 C0.99 0.33 1.98 0.66 3 1 C3 7.27 3 13.54 3 20 C2.01 20 1.02 20 0 20 C-0.19421438 17.04196565 -0.38066186 14.08379837 -0.5625 11.125 C-0.61857422 10.28324219 -0.67464844 9.44148438 -0.73242188 8.57421875 C-0.78076172 7.76855469 -0.82910156 6.96289062 -0.87890625 6.1328125 C-0.9260376 5.38918457 -0.97316895 4.64555664 -1.02172852 3.87939453 C-1 2 -1 2 0 0 Z " fill="#407C8D" transform="translate(215,117)"/>
<path d="M0 0 C3.63 0 7.26 0 11 0 C11 0.99 11 1.98 11 3 C8.69 2.67 6.38 2.34 4 2 C5.72226496 5.24849977 5.72226496 5.24849977 9 6 C9 6.66 9 7.32 9 8 C7.02 8 5.04 8 3 8 C3 9.65 3 11.3 3 13 C4.98 13 6.96 13 9 13 C9 13.33 9 13.66 9 14 C6.69 14 4.38 14 2 14 C2 9.71 2 5.42 2 1 C1.34 0.67 0.68 0.34 0 0 Z " fill="#6E8B8E" transform="translate(147,120)"/>
<path d="M0 0 C0 0.33 0 0.66 0 1 C-2.05078125 1.22786458 -4.1015625 1.45572917 -6.15234375 1.68359375 C-8.01140229 1.81886614 -8.01140229 1.81886614 -9 3 C-8.36191406 3.12117188 -7.72382813 3.24234375 -7.06640625 3.3671875 C-5.82697266 3.61855469 -5.82697266 3.61855469 -4.5625 3.875 C-3.73878906 4.03742188 -2.91507813 4.19984375 -2.06640625 4.3671875 C-1.38449219 4.57601562 -0.70257813 4.78484375 0 5 C0.33 5.66 0.66 6.32 1 7 C-2.3 7 -5.6 7 -9 7 C-9.33 7.66 -9.66 8.32 -10 9 C-10 7.35 -10 5.7 -10 4 C-12.475 5.485 -12.475 5.485 -15 7 C-14.9375 4.6875 -14.9375 4.6875 -14 2 C-8.94800363 -1.03119782 -5.85951675 -1.31540172 0 0 Z " fill="#E2F3F6" transform="translate(236,114)"/>
<path d="M0 0 C0.99 0 1.98 0 3 0 C3 7.26 3 14.52 3 22 C2.01 22 1.02 22 0 22 C-0.05437607 20.41705218 -0.09296271 18.83355744 -0.125 17.25 C-0.14820313 16.36828125 -0.17140625 15.4865625 -0.1953125 14.578125 C0.00860498 11.8864142 0.63448279 10.30095026 2 8 C1.34 8 0.68 8 0 8 C0 5.36 0 2.72 0 0 Z " fill="#437A90" transform="translate(130,116)"/>
<path d="M0 0 C3.6946276 3.6946276 3.53697672 6.26323832 3.6875 11.1875 C3.72166016 11.93708984 3.75582031 12.68667969 3.79101562 13.45898438 C3.87334294 15.30546838 3.93835281 17.15270994 4 19 C2.68 19 1.36 19 0 19 C0 12.73 0 6.46 0 0 Z " fill="#4A8293" transform="translate(194,119)"/>
<path d="M0 0 C7.2 -0.36 7.2 -0.36 10.5 1.125 C12.60705132 3.75881415 12.29101222 5.72611257 12 9 C11.01 9 10.02 9 9 9 C8.34 7.35 7.68 5.7 7 4 C4.69 4 2.38 4 0 4 C-0.33 3.34 -0.66 2.68 -1 2 C-0.67 1.34 -0.34 0.68 0 0 Z " fill="#4E8394" transform="translate(100,116)"/>
<path d="M0 0 C7.23809524 -0.36190476 7.23809524 -0.36190476 10.5 1.1875 C12 3 12 3 12.25 5.6875 C12.1675 6.450625 12.085 7.21375 12 8 C11.01 8 10.02 8 9 8 C8.67 7.01 8.34 6.02 8 5 C6.88625 4.855625 5.7725 4.71125 4.625 4.5625 C1 4 1 4 -1 3 C-0.67 2.01 -0.34 1.02 0 0 Z " fill="#4D8294" transform="translate(79,116)"/>
<path d="M0 0 C5.28 0 10.56 0 16 0 C16 1.32 16 2.64 16 4 C13.03 4 10.06 4 7 4 C6.67 3.01 6.34 2.02 6 1 C5.01 1 4.02 1 3 1 C3 1.66 3 2.32 3 3 C2.01 3 1.02 3 0 3 C0 2.01 0 1.02 0 0 Z " fill="#508695" transform="translate(54,116)"/>
<path d="M0 0 C0.33 0 0.66 0 1 0 C1.33 8.91 1.66 17.82 2 27 C4.96731398 25.16343011 4.96731398 25.16343011 7 23 C6.67 24.65 6.34 26.3 6 28 C5.01 28.33 4.02 28.66 3 29 C3 29.66 3 30.32 3 31 C2.01 30.67 1.02 30.34 0 30 C0 20.1 0 10.2 0 0 Z " fill="#6A96A1" transform="translate(124,79)"/>
<path d="M0 0 C2.64 0 5.28 0 8 0 C7.34 1.32 6.68 2.64 6 4 C5.34 3.67 4.68 3.34 4 3 C4 2.34 4 1.68 4 1 C3.34 1.66 2.68 2.32 2 3 C2 3.33 2 3.66 2 4 C4.64 4.33 7.28 4.66 10 5 C10.33 6.65 10.66 8.3 11 10 C6.05 10 1.1 10 -4 10 C-4 9.67 -4 9.34 -4 9 C0.29 9 4.58 9 9 9 C9 8.01 9 7.02 9 6 C6.03 6 3.06 6 0 6 C0 4.02 0 2.04 0 0 Z " fill="#C5DDE5" transform="translate(61,129)"/>
<path d="M0 0 C2.475 0.99 2.475 0.99 5 2 C5.33 1.34 5.66 0.68 6 0 C6 0.99 6 1.98 6 3 C5.34 3.66 4.68 4.32 4 5 C3.53709779 7.66242821 3.53709779 7.66242821 3.375 10.625 C3.30023438 11.62789062 3.22546875 12.63078125 3.1484375 13.6640625 C3.09945312 14.43492187 3.05046875 15.20578125 3 16 C2.34 15.67 1.68 15.34 1 15 C1 13.68 1 12.36 1 11 C-0.32 10.34 -1.64 9.68 -3 9 C-2.67 7.68 -2.34 6.36 -2 5 C-2 5.99 -2 6.98 -2 8 C-1.01 8 -0.02 8 1 8 C0.34 5.69 -0.32 3.38 -1 1 C-0.67 0.67 -0.34 0.34 0 0 Z M2 2 C3 4 3 4 3 4 Z " fill="#DBEEF2" transform="translate(90,116)"/>
<path d="M0 0 C3.3 0 6.6 0 10 0 C10 2.97 10 5.94 10 9 C11.32 9.33 12.64 9.66 14 10 C12.1875 10.6875 12.1875 10.6875 10 11 C8.25 9.5625 8.25 9.5625 7 8 C7.66 5.69 8.32 3.38 9 1 C6.36 1 3.72 1 1 1 C1.20625 1.94875 1.4125 2.8975 1.625 3.875 C1.74875 4.90625 1.8725 5.9375 2 7 C1.34 7.66 0.68 8.32 0 9 C0 6.03 0 3.06 0 0 Z " fill="#D6EAEE" transform="translate(120,129)"/>
<path d="M0 0 C3.46679688 0.04882812 3.46679688 0.04882812 6.93359375 0.09765625 C6.93359375 3.06765625 6.93359375 6.03765625 6.93359375 9.09765625 C4.62359375 9.09765625 2.31359375 9.09765625 -0.06640625 9.09765625 C-0.06640625 8.76765625 -0.06640625 8.43765625 -0.06640625 8.09765625 C1.91359375 8.09765625 3.89359375 8.09765625 5.93359375 8.09765625 C5.93359375 6.11765625 5.93359375 4.13765625 5.93359375 2.09765625 C2.06711103 3.13863237 -1.56102068 4.13464033 -5.06640625 6.09765625 C-2.77153066 0.13097971 -2.77153066 0.13097971 0 0 Z " fill="#497C8C" transform="translate(162.06640625,71.90234375)"/>
<path d="M0 0 C0.99 0 1.98 0 3 0 C3 6.6 3 13.2 3 20 C2.34 20 1.68 20 1 20 C0.67 13.4 0.34 6.8 0 0 Z " fill="#438597" transform="translate(138,117)"/>
<path d="M0 0 C0.33 0.99 0.66 1.98 1 3 C1.99 3 2.98 3 4 3 C4 9.6 4 16.2 4 23 C2.68 22.67 1.36 22.34 0 22 C0 19.69 0 17.38 0 15 C0.66 15.66 1.32 16.32 2 17 C2 13.04 2 9.08 2 5 C1.34 5 0.68 5 0 5 C0 3.35 0 1.7 0 0 Z " fill="#E3F5F8" transform="translate(134,116)"/>
<path d="M0 0 C1.32 0.33 2.64 0.66 4 1 C4 2.65 4 4.3 4 6 C1.03 6 -1.94 6 -5 6 C-4.34 7.32 -3.68 8.64 -3 10 C-4.32 9.34 -5.64 8.68 -7 8 C-5.53932124 4.14911964 -3.53704399 2.95468221 0 1 C0 0.67 0 0.34 0 0 Z " fill="#D3E6E9" transform="translate(251,128)"/>
<path d="M0 0 C0 0.99 0 1.98 0 3 C-1.093125 3.28875 -2.18625 3.5775 -3.3125 3.875 C-7.04013845 4.81893204 -7.04013845 4.81893204 -10 7 C-10.6875 5.1875 -10.6875 5.1875 -11 3 C-8.69211729 -1.30804773 -4.25159903 -0.20909503 0 0 Z " fill="#4A8294" transform="translate(48,116)"/>
<path d="M0 0 C0.99 0 1.98 0 3 0 C3.04898438 0.62648438 3.09796875 1.25296875 3.1484375 1.8984375 C3.22320312 2.71570313 3.29796875 3.53296875 3.375 4.375 C3.44460937 5.18710938 3.51421875 5.99921875 3.5859375 6.8359375 C3.82892588 9.20334191 3.82892588 9.20334191 6 11 C5.360625 11.103125 4.72125 11.20625 4.0625 11.3125 C3.0415625 11.6528125 3.0415625 11.6528125 2 12 C1.67 12.99 1.34 13.98 1 15 C-0.44207941 12.11584117 -0.09394887 9.58278472 -0.0625 6.375 C-0.05347656 5.18648438 -0.04445312 3.99796875 -0.03515625 2.7734375 C-0.02355469 1.85820313 -0.01195312 0.94296875 0 0 Z " fill="#A1C7CC" transform="translate(242,119)"/>
<path d="M0 0 C0.66 1.32 1.32 2.64 2 4 C0.25 6.0625 0.25 6.0625 -2 8 C-4.0625 8.0625 -4.0625 8.0625 -6 7 C-7.75 4.4375 -7.75 4.4375 -9 2 C-9.33 2.99 -9.66 3.98 -10 5 C-10 3.68 -10 2.36 -10 1 C-8.02 1 -6.04 1 -4 1 C-4 1.99 -4 2.98 -4 4 C-2.68 4 -1.36 4 0 4 C0 2.68 0 1.36 0 0 Z " fill="#F1FAFC" transform="translate(260,118)"/>
<path d="M0 0 C4.875 1.875 4.875 1.875 6 3 C6.04092937 5.33297433 6.04241723 7.66705225 6 10 C5.38125 9.3503125 5.38125 9.3503125 4.75 8.6875 C1.78322435 5.82668062 -1.26327555 3.73490778 -5 2 C-4.01 1.67 -3.02 1.34 -2 1 C-1.34 1.33 -0.68 1.66 0 2 C0 1.34 0 0.68 0 0 Z " fill="#6F99A8" transform="translate(254,112)"/>
<path d="M0 0 C1.99609375 0.05078125 1.99609375 0.05078125 4.4375 0.3125 C5.64212891 0.43044922 5.64212891 0.43044922 6.87109375 0.55078125 C9 1 9 1 11 3 C10 4 10 4 7.49609375 4.09765625 C5.98208984 4.08025391 5.98208984 4.08025391 4.4375 4.0625 C3.42558594 4.05347656 2.41367187 4.04445312 1.37109375 4.03515625 C0.58863281 4.02355469 -0.19382813 4.01195312 -1 4 C-1 1 -1 1 0 0 Z " fill="#497E92" transform="translate(41,134)"/>
<path d="M0 0 C0.33 0 0.66 0 1 0 C1 4.95 1 9.9 1 15 C2.65 15 4.3 15 6 15 C6 15.33 6 15.66 6 16 C3.69 16 1.38 16 -1 16 C-1.92470553 11.28400182 -2.22923777 8.32734391 0 4 C-0.66 4 -1.32 4 -2 4 C-1.34 2.68 -0.68 1.36 0 0 Z " fill="#EEFCFD" transform="translate(213,123)"/>
<path d="M0 0 C0.99 0 1.98 0 3 0 C3.33 1.32 3.66 2.64 4 4 C3.34 4 2.68 4 2 4 C2.33 5.65 2.66 7.3 3 9 C3.66 9 4.32 9 5 9 C4.67 10.32 4.34 11.64 4 13 C3.01 13 2.02 13 1 13 C0.67 8.71 0.34 4.42 0 0 Z " fill="#3B8198" transform="translate(57,117)"/>
<path d="M0 0 C0.99 0.33 1.98 0.66 3 1 C3 3.97 3 6.94 3 10 C1.68 9.67 0.36 9.34 -1 9 C-1.09765625 2.84765625 -1.09765625 2.84765625 -1 1 C-0.67 0.67 -0.34 0.34 0 0 Z " fill="#427E91" transform="translate(94,122)"/>
<path d="M0 0 C0.66 1.32 1.32 2.64 2 4 C-0.38957269 7.24299151 -2.2047869 9.50902342 -6 11 C-5.67 8.69 -5.34 6.38 -5 4 C-4.01 3.67 -3.02 3.34 -2 3 C-1.34 3.33 -0.68 3.66 0 4 C0 2.68 0 1.36 0 0 Z " fill="#4E8599" transform="translate(131,96)"/>
<path d="M0 0 C0 0.66 0 1.32 0 2 C-1.95689037 2.36205464 -3.91557668 2.71441421 -5.875 3.0625 C-6.96554688 3.25972656 -8.05609375 3.45695313 -9.1796875 3.66015625 C-12 4 -12 4 -14 3 C-13.34 2.01 -12.68 1.02 -12 0 C-11.01 0.33 -10.02 0.66 -9 1 C-8.195625 0.67 -7.39125 0.34 -6.5625 0 C-3.7718276 -1.08904289 -2.74630362 -1.01714949 0 0 Z " fill="#C4DCE3" transform="translate(91,132)"/>
<path d="M0 0 C0.99 0 1.98 0 3 0 C4.125 3.75 4.125 3.75 3 6 C4.32 6 5.64 6 7 6 C7 6.99 7 7.98 7 9 C4.03824877 8.38722388 2.61941217 7.74627478 0 6 C-0.1875 2.875 -0.1875 2.875 0 0 Z " fill="#4E8394" transform="translate(245,118)"/>
<path d="M0 0 C0.66 0 1.32 0 2 0 C1.79375 0.70125 1.5875 1.4025 1.375 2.125 C0.92149643 5.60186072 1.72459723 7.77398123 3 11 C1.02 11.99 1.02 11.99 -1 13 C-2.16045439 8.74500059 -1.82904781 5.31104861 -1 1 C-0.67 0.67 -0.34 0.34 0 0 Z " fill="#5393AC" transform="translate(164,57)"/>
<path d="M0 0 C0.99 0.495 0.99 0.495 2 1 C2 1.99 2 2.98 2 4 C2.66 3.67 3.32 3.34 4 3 C4.33 2.01 4.66 1.02 5 0 C5.66 0 6.32 0 7 0 C7.66 1.32 8.32 2.64 9 4 C8.360625 4.28875 7.72125 4.5775 7.0625 4.875 C4.84793921 5.82823451 4.84793921 5.82823451 4 8 C3.34 8 2.68 8 2 8 C2 7.01 2 6.02 2 5 C1.34 5 0.68 5 0 5 C0 3.35 0 1.7 0 0 Z " fill="#9B9B9B" transform="translate(117,144)"/>
<path d="M0 0 C0.33 0.99 0.66 1.98 1 3 C1.99 3 2.98 3 4 3 C4 2.34 4 1.68 4 1 C6.64 1 9.28 1 12 1 C12 1.99 12 2.98 12 4 C8.04 4 4.08 4 0 4 C0 2.68 0 1.36 0 0 Z " fill="#42798B" transform="translate(58,134)"/>
<path d="M0 0 C2 4 2 4 2 7 C3.98 6.34 5.96 5.68 8 5 C8.33 6.32 8.66 7.64 9 9 C6.03 9 3.06 9 0 9 C0 6.03 0 3.06 0 0 Z " fill="#EDFEFF" transform="translate(120,116)"/>
<path d="M0 0 C1.65 0.33 3.3 0.66 5 1 C5 2.65 5 4.3 5 6 C3.35 6.33 1.7 6.66 0 7 C0.66 6.67 1.32 6.34 2 6 C2 5.34 2 4.68 2 4 C0.68 4.33 -0.64 4.66 -2 5 C-1.34 3.35 -0.68 1.7 0 0 Z " fill="#F7F7F7" transform="translate(131,145)"/>
<path d="M0 0 C0.66 1.32 1.32 2.64 2 4 C-1.43523316 7.69948187 -1.43523316 7.69948187 -4 9 C-7.18107032 8.84999831 -10.00293267 8.04564349 -13 7 C-9 6 -5 5 -1 4 C-0.67 2.68 -0.34 1.36 0 0 Z " fill="#C9DAE1" transform="translate(112,132)"/>
<path d="M0 0 C0.99 0.495 0.99 0.495 2 1 C2.309375 1.969375 2.61875 2.93875 2.9375 3.9375 C3.74744122 7.2680443 3.74744122 7.2680443 7 9 C7 9.66 7 10.32 7 11 C4.625 10.6875 4.625 10.6875 2 10 C-0.4294516 6.3558226 -0.16179575 4.28758728 0 0 Z " fill="#E1F6F7" transform="translate(225,123)"/>
<path d="M0 0 C1.90318884 2.85478326 2.4619099 4.41941308 3.125 7.6875 C3.29257812 8.49574219 3.46015625 9.30398437 3.6328125 10.13671875 C3.75398438 10.75160156 3.87515625 11.36648437 4 12 C3.01 12.33 2.02 12.66 1 13 C0.34 12.34 -0.32 11.68 -1 11 C-0.9765625 8.3984375 -0.9765625 8.3984375 -0.625 5.375 C-0.51414063 4.37210937 -0.40328125 3.36921875 -0.2890625 2.3359375 C-0.19367187 1.56507812 -0.09828125 0.79421875 0 0 Z " fill="#3F7D97" transform="translate(36,122)"/>
<path d="M0 0 C0 0.66 0 1.32 0 2 C-0.66386719 2.02578125 -1.32773437 2.0515625 -2.01171875 2.078125 C-7.54441741 2.43351002 -10.96566075 2.83118278 -15 7 C-13.70689829 4.11538849 -12.58442376 1.87147927 -10 0 C-6.13853697 -0.82745636 -3.77058297 -1.25686099 0 0 Z " fill="#CFE4E9" transform="translate(50,114)"/>
<path d="M0 0 C0 1.32 0 2.64 0 4 C1.32 4.66 2.64 5.32 4 6 C2.02 6 0.04 6 -2 6 C-2 4.68 -2 3.36 -2 2 C-4.97 2 -7.94 2 -11 2 C-11 1.67 -11 1.34 -11 1 C-7.26562152 0.12132271 -3.83225427 -0.08912219 0 0 Z " fill="#DEF0F2" transform="translate(135,30)"/>
<path d="M0 0 C4.6875 3.61328125 4.6875 3.61328125 6 5 C6 5.99 6 6.98 6 8 C5.401875 7.835 4.80375 7.67 4.1875 7.5 C1.88655664 6.8885876 1.88655664 6.8885876 -1 7 C-0.67 4.69 -0.34 2.38 0 0 Z " fill="#F5F5F5" transform="translate(195,144)"/>
<path d="M0 0 C2.64 0 5.28 0 8 0 C7 2 7 2 6 3 C6.33 3.66 6.66 4.32 7 5 C4.69 5 2.38 5 0 5 C0 3.35 0 1.7 0 0 Z " fill="#F0FBFE" transform="translate(182,119)"/>
<path d="M0 0 C0.62648437 0.0721875 1.25296875 0.144375 1.8984375 0.21875 C3.12433594 0.35796875 3.12433594 0.35796875 4.375 0.5 C5.59316406 0.63921875 5.59316406 0.63921875 6.8359375 0.78125 C8.96912825 1.03352351 8.96912825 1.03352351 11 1 C11 1.66 11 2.32 11 3 C9.7625 3.144375 8.525 3.28875 7.25 3.4375 C3.0417673 3.87441158 3.0417673 3.87441158 -1 5 C-1.33 5.99 -1.66 6.98 -2 8 C-2 6.68 -2 5.36 -2 4 C-1.34 4 -0.68 4 0 4 C0 2.68 0 1.36 0 0 Z " fill="#F3FCFB" transform="translate(145,117)"/>
<path d="M0 0 C1.65 0.33 3.3 0.66 5 1 C4.67 2.32 4.34 3.64 4 5 C3.34 5 2.68 5 2 5 C2.33 5.66 2.66 6.32 3 7 C2.01 7 1.02 7 0 7 C0 6.34 0 5.68 0 5 C-0.66 5 -1.32 5 -2 5 C-2 4.01 -2 3.02 -2 2 C-1.34 2 -0.68 2 0 2 C0 1.34 0 0.68 0 0 Z " fill="#F8F8F8" transform="translate(185,145)"/>
<path d="M0 0 C0.33 0 0.66 0 1 0 C1 2.31 1 4.62 1 7 C1.66 7.33 2.32 7.66 3 8 C1.68 8 0.36 8 -1 8 C-1 10.97 -1 13.94 -1 17 C-2.98983228 13.02033543 -3.22400716 12.32324868 -2.625 8.25 C-2.51414063 7.45078125 -2.40328125 6.6515625 -2.2890625 5.828125 C-2.19367188 5.22484375 -2.09828125 4.6215625 -2 4 C-1.34 4 -0.68 4 0 4 C0 2.68 0 1.36 0 0 Z " fill="#44899F" transform="translate(181,119)"/>
<path d="M0 0 C1.98073365 0.280828 3.95958448 0.57496614 5.9375 0.875 C7.59072266 1.11863281 7.59072266 1.11863281 9.27734375 1.3671875 C10.17582031 1.57601562 11.07429687 1.78484375 12 2 C12.33 2.66 12.66 3.32 13 4 C9.7 4 6.4 4 3 4 C2.67 4.66 2.34 5.32 2 6 C2 4.35 2 2.7 2 1 C1.34 0.67 0.68 0.34 0 0 Z " fill="#A9C7D1" transform="translate(224,117)"/>
<path d="M0 0 C0.680625 0.00644531 1.36125 0.01289062 2.0625 0.01953125 C4 0.1875 4 0.1875 7 1.1875 C7 1.8475 7 2.5075 7 3.1875 C6.32453125 3.17589844 5.6490625 3.16429688 4.953125 3.15234375 C4.06109375 3.14332031 3.1690625 3.13429688 2.25 3.125 C1.36828125 3.11339844 0.4865625 3.10179688 -0.421875 3.08984375 C-2.7818838 3.17923802 -4.74498524 3.51837179 -7 4.1875 C-7 3.5275 -7 2.8675 -7 2.1875 C-3.97455666 0.17053778 -3.38932618 -0.07061096 0 0 Z " fill="#C7DAE2" transform="translate(82,113.8125)"/>
<path d="M0 0 C0.66 0 1.32 0 2 0 C2.8250398 3.82518454 3.32812083 6.20560221 1.8125 9.875 C-0.14079774 12.16507321 -1.05577584 12.69542509 -4 13 C-3.67 12.01 -3.34 11.02 -3 10 C-1.68 9.67 -0.36 9.34 1 9 C0.67 6.03 0.34 3.06 0 0 Z " fill="#D6ECF0" transform="translate(237,121)"/>
<path d="M0 0 C1.24546405 2.49092811 0.7767578 3.41080733 0 6 C1.65 6 3.3 6 5 6 C5 6.33 5 6.66 5 7 C1.37 7 -2.26 7 -6 7 C-4.19587357 3.73539027 -3.16605307 2.11070205 0 0 Z " fill="#6D99A6" transform="translate(157,74)"/>
<path d="M0 0 C0.99 0.33 1.98 0.66 3 1 C2.67 2.32 2.34 3.64 2 5 C3.98 5 5.96 5 8 5 C6.75 6.5 6.75 6.5 5 8 C3.68 8 2.36 8 1 8 C0 1.125 0 1.125 0 0 Z " fill="#F1F1F1" transform="translate(91,147)"/>
<path d="M0 0 C0 2.97 0 5.94 0 9 C-0.99 9.33 -1.98 9.66 -3 10 C-3 7.03 -3 4.06 -3 1 C-1 0 -1 0 0 0 Z " fill="#5489A1" transform="translate(120,116)"/>
<path d="M0 0 C2.3125 -0.1875 2.3125 -0.1875 5 0 C6.6875 1.5 6.6875 1.5 8 3 C8.66 3 9.32 3 10 3 C10 4.32 10 5.64 10 7 C9.01 7 8.02 7 7 7 C7 6.01 7 5.02 7 4 C4.69 3.34 2.38 2.68 0 2 C0 1.34 0 0.68 0 0 Z " fill="#47808D" transform="translate(249,115)"/>
<path d="M0 0 C2.64 0 5.28 0 8 0 C8.33 1.32 8.66 2.64 9 4 C6.03 4 3.06 4 0 4 C-0.33 3.34 -0.66 2.68 -1 2 C-0.67 1.34 -0.34 0.68 0 0 Z " fill="#417B8F" transform="translate(100,116)"/>
<path d="M0 0 C0.99 0.33 1.98 0.66 3 1 C2.67 1.99 2.34 2.98 2 4 C1.93259135 5.56118428 1.91485544 7.1250252 1.9375 8.6875 C1.94652344 9.49574219 1.95554688 10.30398437 1.96484375 11.13671875 C1.97644531 11.75160156 1.98804688 12.36648437 2 13 C1.34 13 0.68 13 0 13 C0 8.71 0 4.42 0 0 Z " fill="#E4F4FA" transform="translate(133,46)"/>
<path d="M0 0 C0.99 0 1.98 0 3 0 C3.33 1.98 3.66 3.96 4 6 C3.34 5.67 2.68 5.34 2 5 C1.67 5.99 1.34 6.98 1 8 C0.34 8 -0.32 8 -1 8 C-1.125 2.25 -1.125 2.25 0 0 Z " fill="#ABAAAA" transform="translate(94,143)"/>
<path d="M0 0 C0.33 1.32 0.66 2.64 1 4 C-7.03501094 7.25601751 -7.03501094 7.25601751 -11.0625 6.1875 C-11.701875 5.795625 -12.34125 5.40375 -13 5 C-13 4.67 -13 4.34 -13 4 C-12.31292969 3.96261719 -11.62585938 3.92523438 -10.91796875 3.88671875 C-10.01691406 3.82097656 -9.11585937 3.75523437 -8.1875 3.6875 C-7.29417969 3.62949219 -6.40085937 3.57148438 -5.48046875 3.51171875 C-2.69396 2.93686419 -1.75864246 2.1793144 0 0 Z " fill="#C2D7DC" transform="translate(91,134)"/>
<path d="M0 0 C2.31 0.33 4.62 0.66 7 1 C7.33 1.99 7.66 2.98 8 4 C6.02 4 4.04 4 2 4 C1.34 2.68 0.68 1.36 0 0 Z " fill="#477E8D" transform="translate(246,134)"/>
<path d="M0 0 C0.66 0 1.32 0 2 0 C2.125 2.375 2.125 2.375 2 5 C1.34 5.66 0.68 6.32 0 7 C-0.99 7 -1.98 7 -3 7 C-2.25 2.25 -2.25 2.25 0 0 Z " fill="#4A8191" transform="translate(211,119)"/>
<path d="M0 0 C2.31 0 4.62 0 7 0 C7.33 0.99 7.66 1.98 8 3 C5.36 3.33 2.72 3.66 0 4 C0 2.68 0 1.36 0 0 Z " fill="#427A8D" transform="translate(79,116)"/>
<path d="M0 0 C0.66 0.33 1.32 0.66 2 1 C1.979375 1.928125 1.95875 2.85625 1.9375 3.8125 C1.84230396 7.02286011 1.84230396 7.02286011 3 10 C2.01 10.33 1.02 10.66 0 11 C-1.49297212 8.01405576 -1.11755228 5.29146376 -1 2 C-0.67 1.34 -0.34 0.68 0 0 Z " fill="#E9F5FA" transform="translate(77,121)"/>
<path d="M0 0 C1.32 0.33 2.64 0.66 4 1 C4 2.65 4 4.3 4 6 C2.68 6.33 1.36 6.66 0 7 C0 4.69 0 2.38 0 0 Z " fill="#F7F7F7" transform="translate(171,145)"/>
<path d="M0 0 C1.98 0 3.96 0 6 0 C5.01 0.495 5.01 0.495 4 1 C4 4.63 4 8.26 4 12 C3.67 12 3.34 12 3 12 C3 9.03 3 6.06 3 3 C2.01 3 1.02 3 0 3 C0 2.01 0 1.02 0 0 Z " fill="#417586" transform="translate(113,116)"/>
<path d="M0 0 C2.64 0 5.28 0 8 0 C8 1.65 8 3.3 8 5 C7.34 4.67 6.68 4.34 6 4 C6 3.34 6 2.68 6 2 C5.01 1.67 4.02 1.34 3 1 C3 1.99 3 2.98 3 4 C2.01 4 1.02 4 0 4 C0 2.68 0 1.36 0 0 Z " fill="#3F7B8E" transform="translate(143,32)"/>
<path d="M0 0 C1.670625 0.061875 1.670625 0.061875 3.375 0.125 C3.375 1.115 3.375 2.105 3.375 3.125 C-1.08 3.62 -1.08 3.62 -5.625 4.125 C-5.625 0.12403124 -3.58125362 0.1234915 0 0 Z " fill="#3F7B8D" transform="translate(185.625,124.875)"/>
<path d="M0 0 C0.99 0 1.98 0 3 0 C2.67 2.31 2.34 4.62 2 7 C2.99 7.33 3.98 7.66 5 8 C3.0625 8.5625 3.0625 8.5625 1 9 C0 8 0 8 -0.09765625 6.15234375 C-0.06510417 4.1015625 -0.03255208 2.05078125 0 0 Z " fill="#E6F9F9" transform="translate(97,123)"/>
<path d="M0 0 C0.66 0.33 1.32 0.66 2 1 C0.68775452 4.93673644 -0.91910327 7.22719294 -4 10 C-4 6 -4 6 -2.5625 4.4375 C-2.046875 3.963125 -1.53125 3.48875 -1 3 C-0.67 2.01 -0.34 1.02 0 0 Z " fill="#EEF8FB" transform="translate(211,114)"/>
<path d="M0 0 C0.66 0.33 1.32 0.66 2 1 C2 3.31 2 5.62 2 8 C1.01 7.67 0.02 7.34 -1 7 C-2.1875 3.9375 -2.1875 3.9375 -3 1 C-2.01 0.67 -1.02 0.34 0 0 Z " fill="#3C7B90" transform="translate(257,127)"/>
<path d="M0 0 C0.33 0.99 0.66 1.98 1 3 C1.99 3.33 2.98 3.66 4 4 C3.67 4.99 3.34 5.98 3 7 C1.68 7 0.36 7 -1 7 C-2 4 -2 4 -1.0625 1.8125 C-0.5365625 0.9153125 -0.5365625 0.9153125 0 0 Z " fill="#568C9D" transform="translate(239,128)"/>
<path d="M0 0 C1.4783226 2.95664519 1.06032783 5.74229737 1 9 C0.01 9 -0.98 9 -2 9 C-2.125 5.625 -2.125 5.625 -2 2 C-1.34 1.34 -0.68 0.68 0 0 Z " fill="#3A7B90" transform="translate(242,122)"/>
<path d="M0 0 C2 2 2 2 2.125 5.625 C2.08375 6.73875 2.0425 7.8525 2 9 C1.01 9.33 0.02 9.66 -1 10 C-1.02689216 8.52093108 -1.04634621 7.04172517 -1.0625 5.5625 C-1.07410156 4.73878906 -1.08570313 3.91507812 -1.09765625 3.06640625 C-1 1 -1 1 0 0 Z " fill="#EFF8FA" transform="translate(40,121)"/>
<path d="M0 0 C2.97 0 5.94 0 9 0 C9 2.64 9 5.28 9 8 C8.67 8 8.34 8 8 8 C7.34 6.02 6.68 4.04 6 2 C4.35 1.67 2.7 1.34 1 1 C0.67 1.66 0.34 2.32 0 3 C0 2.01 0 1.02 0 0 Z " fill="#BBDCE6" transform="translate(152,63)"/>
<path d="M0 0 C0.66 0.33 1.32 0.66 2 1 C2 3.31 2 5.62 2 8 C0.68 7.67 -0.64 7.34 -2 7 C-1.34 4.69 -0.68 2.38 0 0 Z " fill="#E4E4E4" transform="translate(156,148)"/>
<path d="M0 0 C0.99 0 1.98 0 3 0 C3.33 1.65 3.66 3.3 4 5 C3.34 5 2.68 5 2 5 C2 5.66 2 6.32 2 7 C1.34 7 0.68 7 0 7 C0 4.69 0 2.38 0 0 Z " fill="#F7F7F7" transform="translate(107,145)"/>
<path d="M0 0 C0.66 0 1.32 0 2 0 C2 2.97 2 5.94 2 9 C1.67 8.01 1.34 7.02 1 6 C0.34 6 -0.32 6 -1 6 C-1.042721 4.33388095 -1.04063832 2.66617115 -1 1 C-0.67 0.67 -0.34 0.34 0 0 Z " fill="#538C9E" transform="translate(118,129)"/>
<path d="M0 0 C0.99 0.66 1.98 1.32 3 2 C2.67 4.31 2.34 6.62 2 9 C0.35 9 -1.3 9 -3 9 C-2.67 7.68 -2.34 6.36 -2 5 C-2 5.99 -2 6.98 -2 8 C-1.01 8 -0.02 8 1 8 C0.34 5.69 -0.32 3.38 -1 1 C-0.67 0.67 -0.34 0.34 0 0 Z " fill="#BDD1D6" transform="translate(90,116)"/>
<path d="M0 0 C0.66 0 1.32 0 2 0 C2.26785714 8.03571429 2.26785714 8.03571429 0 12 C-0.19477739 10.37585622 -0.38059458 8.75063577 -0.5625 7.125 C-0.66691406 6.22007813 -0.77132812 5.31515625 -0.87890625 4.3828125 C-1 2 -1 2 0 0 Z " fill="#3D8397" transform="translate(215,117)"/>
<path d="M0 0 C0.33 1.32 0.66 2.64 1 4 C-0.98 4.99 -0.98 4.99 -3 6 C-3 6.66 -3 7.32 -3 8 C-3.99 7.67 -4.98 7.34 -6 7 C-5.071875 6.1028125 -5.071875 6.1028125 -4.125 5.1875 C-1.86323046 2.99188856 -1.86323046 2.99188856 0 0 Z " fill="#ECF5F8" transform="translate(130,102)"/>
<path d="M0 0 C0.98120464 3.05263664 0.98120464 4.94736336 0 8 C-0.99 8 -1.98 8 -3 8 C-2.74438677 5.6568787 -2.40729228 3.32156597 -2 1 C-1.34 0.67 -0.68 0.34 0 0 Z " fill="#F7F7F7" transform="translate(193,145)"/>
<path d="M0 0 C1.4540625 0.0309375 1.4540625 0.0309375 2.9375 0.0625 C2.298125 0.31 1.65875 0.5575 1 0.8125 C-1.21352303 1.86712101 -1.21352303 1.86712101 -1.8125 4 C-2.12266568 6.21260085 -2.12266568 6.21260085 -2.0625 9.0625 C-4.0625 7.0625 -4.0625 7.0625 -4.25 4 C-3.9998913 0.08163043 -3.9998913 0.08163043 0 0 Z " fill="#838383" transform="translate(186.0625,143.9375)"/>
<path d="M0 0 C1.134375 0.020625 2.26875 0.04125 3.4375 0.0625 C3.1075 0.7225 2.7775 1.3825 2.4375 2.0625 C-0.125 2.6875 -0.125 2.6875 -2.5625 3.0625 C-2.5625 4.7125 -2.5625 6.3625 -2.5625 8.0625 C-3.2225 7.7325 -3.8825 7.4025 -4.5625 7.0625 C-4.60504356 5.06295254 -4.60330783 3.06208364 -4.5625 1.0625 C-3.5625 0.0625 -3.5625 0.0625 0 0 Z " fill="#787878" transform="translate(147.5625,143.9375)"/>
<path d="M0 0 C0.99 0 1.98 0 3 0 C2.62875 0.7425 2.2575 1.485 1.875 2.25 C0.70484137 4.94283647 0.70484137 4.94283647 1.875 7.3125 C2.431875 8.1478125 2.431875 8.1478125 3 9 C1.68 8.01 0.36 7.02 -1 6 C-0.67 4.02 -0.34 2.04 0 0 Z " fill="#89B5C4" transform="translate(74,130)"/>
<path d="M0 0 C1.98 0.99 3.96 1.98 6 3 C2.25 4.125 2.25 4.125 0 3 C-0.33 3.66 -0.66 4.32 -1 5 C-1.66 4.34 -2.32 3.68 -3 3 C-2.01 2.01 -1.02 1.02 0 0 Z " fill="#7FAAB9" transform="translate(95,130)"/>
<path d="M0 0 C0.66 0.33 1.32 0.66 2 1 C3 4 3 4 3 7 C2.01 7 1.02 7 0 7 C-0.33 7.99 -0.66 8.98 -1 10 C-2.27351308 7.45297384 -1.80191925 6.5717055 -1.0625 3.875 C-0.86785156 3.15054688 -0.67320312 2.42609375 -0.47265625 1.6796875 C-0.31667969 1.12539062 -0.16070312 0.57109375 0 0 Z " fill="#E7F8FB" transform="translate(244,124)"/>
<path d="M0 0 C2.31 0 4.62 0 7 0 C7 0.99 7 1.98 7 3 C4.69 2.67 2.38 2.34 0 2 C0 1.34 0 0.68 0 0 Z " fill="#3E7789" transform="translate(41,116)"/>
<path d="M0 0 C2.475 0.99 2.475 0.99 5 2 C4.67 2.66 4.34 3.32 4 4 C1.03 3.67 -1.94 3.34 -5 3 C-4.67 2.34 -4.34 1.68 -4 1 C-2.02 1.495 -2.02 1.495 0 2 C0 1.34 0 0.68 0 0 Z " fill="#E3F2F6" transform="translate(254,112)"/>
<path d="M0 0 C3 0 3 0 5 1 C4.1875 2.9375 4.1875 2.9375 3 5 C2.01 5.33 1.02 5.66 0 6 C0 4.02 0 2.04 0 0 Z " fill="#5B8E9B" transform="translate(143,83)"/>
<path d="M0 0 C2 3.75 2 3.75 2 6 C-1.63 5.67 -5.26 5.34 -9 5 C-9 4.67 -9 4.34 -9 4 C-6.03 4 -3.06 4 0 4 C0 2.68 0 1.36 0 0 Z " fill="#578F9B" transform="translate(142,32)"/>
<path d="M0 0 C1.65 0 3.3 0 5 0 C5.33 1.65 5.66 3.3 6 5 C3.5625 4.1875 3.5625 4.1875 1 3 C0.67 2.01 0.34 1.02 0 0 Z " fill="#9ABAC1" transform="translate(47,132)"/>
<path d="M0 0 C0.66 0 1.32 0 2 0 C2 1.65 2 3.3 2 5 C-0.31 4.67 -2.62 4.34 -5 4 C-4.67 3.34 -4.34 2.68 -4 2 C-1.9375 1.375 -1.9375 1.375 0 1 C0 0.67 0 0.34 0 0 Z " fill="#F8FEFF" transform="translate(140,31)"/>
<path d="M0 0 C0.99 0.33 1.98 0.66 3 1 C3 1.99 3 2.98 3 4 C1.02 4.33 -0.96 4.66 -3 5 C-1.125 1.125 -1.125 1.125 0 0 Z " fill="#DFE3E2" transform="translate(162,146)"/>
<path d="M0 0 C2.4375 0.375 2.4375 0.375 5 1 C5.33 1.66 5.66 2.32 6 3 C5.01 3.99 4.02 4.98 3 6 C3 5.34 3 4.68 3 4 C2.0206121 2.97980427 1.02104551 1.97850195 0 1 C0 0.67 0 0.34 0 0 Z " fill="#4F8295" transform="translate(200,123)"/>
<path d="M0 0 C0.99 0.33 1.98 0.66 3 1 C2.25 5.75 2.25 5.75 0 8 C0 5.36 0 2.72 0 0 Z " fill="#3B7A8B" transform="translate(72,123)"/>
<path d="M0 0 C0 0.99 0 1.98 0 3 C-2.31 2.67 -4.62 2.34 -7 2 C-6.67 3.32 -6.34 4.64 -6 6 C-6.66 6 -7.32 6 -8 6 C-8 4.35 -8 2.7 -8 1 C-2.25 0 -2.25 0 0 0 Z " fill="#E0F2F1" transform="translate(158,120)"/>
<path d="M0 0 C4.875 1.75 4.875 1.75 6 4 C4.02 4 2.04 4 0 4 C0 2.68 0 1.36 0 0 Z " fill="#528997" transform="translate(48,116)"/>
<path d="M0 0 C2.475 0.495 2.475 0.495 5 1 C4.67 2.32 4.34 3.64 4 5 C3.01 4.67 2.02 4.34 1 4 C0.3125 1.9375 0.3125 1.9375 0 0 Z " fill="#A7BDC1" transform="translate(161,113)"/>
<path d="M0 0 C0.99 0 1.98 0 3 0 C3 0.66 3 1.32 3 2 C4.65 2 6.3 2 8 2 C8 2.33 8 2.66 8 3 C4.7 3 1.4 3 -2 3 C-1.34 2.01 -0.68 1.02 0 0 Z " fill="#4C8294" transform="translate(136,96)"/>
<path d="M0 0 C1.98 0.99 1.98 0.99 4 2 C2.68 2 1.36 2 0 2 C0 1.34 0 0.68 0 0 Z " fill="#FFFFFF" transform="translate(163,155)"/>
<path d="M0 0 C0.99 0.33 1.98 0.66 3 1 C1.68 1.33 0.36 1.66 -1 2 C-0.67 1.34 -0.34 0.68 0 0 Z " fill="#FFFFFF" transform="translate(133,155)"/>
<path d="M0 0 C0.99 0 1.98 0 3 0 C2.67 0.66 2.34 1.32 2 2 C1.34 1.34 0.68 0.68 0 0 Z " fill="#F8FFFF" transform="translate(132,113)"/>
<path d="M0 0 C3 1 3 1 3 1 Z " fill="#FFFFFF" transform="translate(129,155)"/>
<path d="M0 0 C0.66 0 1.32 0 2 0 C1.67 0.66 1.34 1.32 1 2 C0.67 1.34 0.34 0.68 0 0 Z " fill="#FFFFFF" transform="translate(189,122)"/>
<path d="" fill="#FFFFFF" transform="translate(0,0)"/>
<path d="M0 0 C2 1 2 1 2 1 Z " fill="#FFFFFF" transform="translate(80,140)"/>
<path d="M0 0 C2 1 2 1 2 1 Z " fill="#FFFFFF" transform="translate(209,131)"/>
<path d="M0 0 C2 1 2 1 2 1 Z " fill="#F1F1F1" transform="translate(202,131)"/>
<path d="M0 0 C2 1 2 1 2 1 Z " fill="#FFFFFF" transform="translate(172,131)"/>
<path d="M0 0 C2 1 2 1 2 1 Z " fill="#FFFFFF" transform="translate(41,131)"/>
<path d="" fill="#FFFFFF" transform="translate(0,0)"/>
<path d="" fill="#FFFFFF" transform="translate(0,0)"/>
<path d="M0 0 C2 1 2 1 2 1 Z " fill="#FFFFFF" transform="translate(190,112)"/>
<path d="M0 0 C2 1 2 1 2 1 Z " fill="#FFFFFF" transform="translate(187,112)"/>
<path d="" fill="#FFFFFF" transform="translate(0,0)"/>
<path d="" fill="#FFFFFF" transform="translate(0,0)"/>
<path d="" fill="#FFFFFF" transform="translate(0,0)"/>
<path d="" fill="#FFFFFF" transform="translate(0,0)"/>
<path d="" fill="#FFFFFF" transform="translate(0,0)"/>
<path d="" fill="#FFFFFF" transform="translate(0,0)"/>
<path d="" fill="#FFFFFF" transform="translate(0,0)"/>
<path d="" fill="#FFFFFF" transform="translate(0,0)"/>
<path d="" fill="#FFFFFF" transform="translate(0,0)"/>
<path d="" fill="#FFFFFF" transform="translate(0,0)"/>
<path d="" fill="#FFFFFF" transform="translate(0,0)"/>
<path d="" fill="#FFFFFF" transform="translate(0,0)"/>
<path d="" fill="#FFFFFF" transform="translate(0,0)"/>
<path d="" fill="#FFFFFF" transform="translate(0,0)"/>
<path d="" fill="#FFFFFF" transform="translate(0,0)"/>
<path d="" fill="#FFFFFF" transform="translate(0,0)"/>
<path d="" fill="#FFFFFF" transform="translate(0,0)"/>
<path d="" fill="#FFFFFF" transform="translate(0,0)"/>
<path d="" fill="#FFFFFF" transform="translate(0,0)"/>
<path d="" fill="#FFFFFF" transform="translate(0,0)"/>
<path d="" fill="#FFFFFF" transform="translate(0,0)"/>
<path d="" fill="#FFFFFF" transform="translate(0,0)"/>
<path d="" fill="#FFFFFF" transform="translate(0,0)"/>
<path d="" fill="#FFFFFF" transform="translate(0,0)"/>
<path d="" fill="#FFFFFF" transform="translate(0,0)"/>
<path d="" fill="#FFFFFF" transform="translate(0,0)"/>
<path d="" fill="#FFFFFF" transform="translate(0,0)"/>
<path d="" fill="#FFFFFF" transform="translate(0,0)"/>
<path d="" fill="#FFFFFF" transform="translate(0,0)"/>
<path d="" fill="#FFFFFF" transform="translate(0,0)"/>
<path d="" fill="#FFFFFF" transform="translate(0,0)"/>
<path d="" fill="#FFFFFF" transform="translate(0,0)"/>
<path d="" fill="#FFFFFF" transform="translate(0,0)"/>
<path d="" fill="#FFFFFF" transform="translate(0,0)"/>
<path d="" fill="#DFFFFF" transform="translate(0,0)"/>
<path d="" fill="#FFFFFF" transform="translate(0,0)"/>
<path d="" fill="#FFFFFF" transform="translate(0,0)"/>
<path d="" fill="#FFFFFF" transform="translate(0,0)"/>
<path d="" fill="#FFFFFF" transform="translate(0,0)"/>
<path d="" fill="#FFFFFF" transform="translate(0,0)"/>
<path d="" fill="#FFFFFF" transform="translate(0,0)"/>
<path d="" fill="#FFFFFF" transform="translate(0,0)"/>
<path d="" fill="#FFFFFF" transform="translate(0,0)"/>
<path d="" fill="#E8FFFF" transform="translate(0,0)"/>
<path d="" fill="#FFFFFF" transform="translate(0,0)"/>
<path d="" fill="#FFFFFF" transform="translate(0,0)"/>
<path d="" fill="#FFFFFF" transform="translate(0,0)"/>
<path d="" fill="#FFFFFF" transform="translate(0,0)"/>
<path d="" fill="#FFFFFF" transform="translate(0,0)"/>
<path d="" fill="#FFFFFF" transform="translate(0,0)"/>
<path d="" fill="#FFFFFF" transform="translate(0,0)"/>
<path d="" fill="#FFFFFF" transform="translate(0,0)"/>
<path d="" fill="#FFFFFF" transform="translate(0,0)"/>
<path d="" fill="#FFFFFF" transform="translate(0,0)"/>
<path d="" fill="#FFFFFF" transform="translate(0,0)"/>
<path d="" fill="#FFFFFF" transform="translate(0,0)"/>
<path d="" fill="#FFFFFF" transform="translate(0,0)"/>
<path d="" fill="#FFFFFF" transform="translate(0,0)"/>
<path d="" fill="#FFFFFF" transform="translate(0,0)"/>
<path d="" fill="#FFFFFF" transform="translate(0,0)"/>
<path d="" fill="#FFFFFF" transform="translate(0,0)"/>
<path d="" fill="#FFFFFF" transform="translate(0,0)"/>
<path d="" fill="#FFFFFF" transform="translate(0,0)"/>
<path d="" fill="#FFFFFF" transform="translate(0,0)"/>
<path d="" fill="#FFFFFF" transform="translate(0,0)"/>
<path d="" fill="#FFFFFF" transform="translate(0,0)"/>
<path d="" fill="#FFFFFF" transform="translate(0,0)"/>
<path d="" fill="#FFFFFF" transform="translate(0,0)"/>
<path d="" fill="#FFFFFF" transform="translate(0,0)"/>
<path d="" fill="#FFFFFF" transform="translate(0,0)"/>
<path d="" fill="#FFFFFF" transform="translate(0,0)"/>
<path d="" fill="#FFFFFF" transform="translate(0,0)"/>
<path d="" fill="#FFFFFF" transform="translate(0,0)"/>
</svg>
