<?xml version="1.0" encoding="UTF-8"?>
<svg version="1.1" xmlns="http://www.w3.org/2000/svg" width="261" height="323">
<path d="M0 0 C20.05235864 19.07359936 36.45880784 45.05337374 39.73046875 73.14453125 C39.73046875 74.46453125 39.73046875 75.78453125 39.73046875 77.14453125 C22.24046875 77.14453125 4.75046875 77.14453125 -13.26953125 77.14453125 C-14.25953125 74.17453125 -15.24953125 71.20453125 -16.26953125 68.14453125 C-24.84900302 48.70280143 -36.46862484 33.34491971 -56.55078125 24.73828125 C-76.96827838 16.96879119 -98.21015672 17.19786186 -118.26953125 26.14453125 C-123.72653603 29.10848816 -128.65479718 32.50148136 -133.33203125 36.58203125 C-136.26953125 39.14453125 -136.26953125 39.14453125 -138.26953125 39.14453125 C-138.5221875 39.71171875 -138.77484375 40.27890625 -139.03515625 40.86328125 C-140.43067074 43.44233335 -142.10802743 45.42185239 -144.01953125 47.64453125 C-155.81755492 62.26382145 -160.30316256 80.6143409 -159.26953125 99.14453125 C-157.16149111 115.24531029 -151.7631055 130.78122903 -139.9921875 142.390625 C-138.26953125 144.14453125 -138.26953125 144.14453125 -138.26953125 146.14453125 C-137.38394531 146.55638672 -137.38394531 146.55638672 -136.48046875 146.9765625 C-134.36023951 148.09661293 -132.73747948 149.31013961 -130.89453125 150.83203125 C-114.58978801 163.13579506 -95.11245267 167.38461903 -75.02929688 164.86328125 C-58.03185596 162.18508107 -44.00657837 154.60196599 -32.26953125 142.14453125 C-31.5321875 141.36464844 -30.79484375 140.58476562 -30.03515625 139.78125 C-23.36241501 132.0869069 -18.86146553 122.64176248 -15.10546875 113.2265625 C-14.26953125 111.14453125 -14.26953125 111.14453125 -13.26953125 110.14453125 C-11.67889815 110.04598703 -10.08391648 110.01654431 -8.49023438 110.01513672 C-7.47247925 110.01198456 -6.45472412 110.0088324 -5.40612793 110.00558472 C-3.74523132 110.00862106 -3.74523132 110.00862106 -2.05078125 110.01171875 C-0.92256958 110.01076202 0.20564209 110.0098053 1.36804199 110.00881958 C3.75887101 110.00813757 6.14970186 110.00999328 8.54052734 110.01416016 C12.21456026 110.01950809 15.88847092 110.01421582 19.5625 110.0078125 C21.87890652 110.00847328 24.19531297 110.00975443 26.51171875 110.01171875 C27.61898315 110.00969452 28.72624756 110.00767029 29.86706543 110.00558472 C30.88482056 110.00873688 31.90257568 110.01188904 32.95117188 110.01513672 C34.30233093 110.01633011 34.30233093 110.01633011 35.68078613 110.01754761 C37.73046875 110.14453125 37.73046875 110.14453125 38.73046875 111.14453125 C38.84424254 112.89232769 38.88790521 114.64471696 38.90455627 116.39613342 C38.92396019 118.10524147 38.92396019 118.10524147 38.9437561 119.84887695 C38.95272919 121.11054688 38.96170227 122.3722168 38.97094727 123.67211914 C38.98375455 125.00589809 38.99688993 126.33967393 39.0103302 127.67344666 C39.12673757 139.90739215 39.18298659 152.14216838 39.22709751 164.37656498 C39.26021336 173.40896992 39.31949892 182.44036016 39.41460854 191.47233015 C39.47929282 197.83261847 39.51268906 204.19263344 39.52384704 210.55323786 C39.53135803 214.34481335 39.55210546 218.13516626 39.60687447 221.92637825 C39.86329541 240.50881665 39.59993914 255.60439664 26.73046875 270.14453125 C26.07046875 270.14453125 25.41046875 270.14453125 24.73046875 270.14453125 C24.40046875 271.13453125 24.07046875 272.12453125 23.73046875 273.14453125 C23.07046875 273.14453125 22.41046875 273.14453125 21.73046875 273.14453125 C21.73046875 273.80453125 21.73046875 274.46453125 21.73046875 275.14453125 C19.59321051 276.72646256 17.47611131 278.16911937 15.23046875 279.58203125 C14.58916016 279.98873047 13.94785156 280.39542969 13.28710938 280.81445312 C4.49941936 286.27899242 -3.87949622 288.65551658 -14.26953125 288.14453125 C-15.25953125 287.48453125 -16.24953125 286.82453125 -17.26953125 286.14453125 C-17.58552631 283.33638225 -17.70691048 280.74394203 -17.7019043 277.93115234 C-17.71719177 276.65787331 -17.71719177 276.65787331 -17.73278809 275.35887146 C-17.76305078 272.54517125 -17.77220415 269.73181069 -17.78125 266.91796875 C-17.79808687 264.97025408 -17.81623575 263.02255033 -17.83564758 261.07485962 C-17.88326154 255.94237687 -17.91299706 250.80993842 -17.93908691 245.67730713 C-17.9688351 240.44233445 -18.01538503 235.20751463 -18.06054688 229.97265625 C-18.14670955 219.69669435 -18.21399701 209.4207011 -18.26953125 199.14453125 C-18.75795942 199.4062443 -19.2463876 199.66795734 -19.74961662 199.93760109 C-21.98262777 201.13229055 -24.21760696 202.3232517 -26.45263672 203.51416016 C-27.22097336 203.92594009 -27.98931 204.33772003 -28.78092957 204.76197815 C-33.86436837 207.4662687 -38.86960205 209.85143673 -44.39453125 211.51953125 C-45.13985107 211.75373779 -45.8851709 211.98794434 -46.65307617 212.22924805 C-71.91633067 219.94894952 -99.06432053 220.35716154 -124.26953125 212.14453125 C-124.91873535 211.933125 -125.56793945 211.72171875 -126.23681641 211.50390625 C-133.79738019 208.99041609 -140.63743558 206.01548523 -147.54077148 202.02246094 C-148.1889257 201.64971039 -148.83707993 201.27695984 -149.50487518 200.89291382 C-151.0941352 199.97859394 -152.68197664 199.06180907 -154.26953125 198.14453125 C-154.27539749 199.24256073 -154.28126373 200.34059021 -154.28730774 201.47189331 C-154.34443397 211.80214938 -154.41714213 222.13219288 -154.50524616 232.46223259 C-154.55004066 237.77347177 -154.58927653 243.08463263 -154.6159668 248.39599609 C-154.64190948 253.51841243 -154.68224705 258.6405288 -154.73271751 263.76276016 C-154.74944762 265.72041223 -154.76092347 267.67811626 -154.76714516 269.63582993 C-154.77671978 272.37066103 -154.80469803 275.10471398 -154.8371582 277.83935547 C-154.83572311 278.65502991 -154.83428802 279.47070435 -154.83280945 280.31109619 C-154.87080383 282.5632019 -154.87080383 282.5632019 -155.26953125 286.14453125 C-160.47401918 289.61418987 -166.30851377 288.1479891 -172.26953125 287.14453125 C-182.14281072 284.1846616 -189.83285915 279.19299208 -197.26953125 272.14453125 C-197.92566406 271.52964844 -198.58179688 270.91476562 -199.2578125 270.28125 C-207.2092733 262.04769747 -212.38162573 250.89031137 -212.40997314 239.4826355 C-212.41294427 238.81404829 -212.41591539 238.14546108 -212.41897655 237.45661366 C-212.42764521 235.21699405 -212.42917031 232.97742802 -212.43066406 230.73779297 C-212.435294 229.13095994 -212.4403189 227.52412802 -212.44570923 225.91729736 C-212.45882928 221.54869678 -212.46527889 217.18011156 -212.46971989 212.81149435 C-212.47265481 210.07556167 -212.47676069 207.33963313 -212.48122406 204.60370255 C-212.49490578 196.0254639 -212.50456582 187.44723481 -212.50842595 178.86898601 C-212.51289083 169.00287715 -212.53036247 159.13690792 -212.55942655 149.27084148 C-212.58115678 141.62552931 -212.59113645 133.98025605 -212.59246707 126.33491337 C-212.59350819 121.77919907 -212.59926499 117.22361589 -212.61728668 112.66793442 C-212.63396163 108.36853291 -212.63583046 104.06935825 -212.62714767 99.76993561 C-212.62638721 98.20685588 -212.63058594 96.64376298 -212.64060593 95.08071518 C-212.726121 80.88754364 -211.38641199 66.47851675 -206.58203125 53.01953125 C-206.32711914 52.28637695 -206.07220703 51.55322266 -205.80957031 50.79785156 C-194.20780035 18.57071278 -170.0655746 -7.10054272 -139.27587891 -21.94433594 C-93.53002687 -42.71867517 -37.04680036 -34.07774853 0 0 Z " fill="#393939" transform="translate(217.26953125,34.85546875)"/>
<path d="M0 0 C1.01775513 -0.00315216 2.03551025 -0.00630432 3.08410645 -0.009552 C4.19137085 -0.00752777 5.29863525 -0.00550354 6.43945312 -0.00341797 C7.56766479 -0.00437469 8.69587646 -0.00533142 9.85827637 -0.00631714 C12.24910538 -0.00699915 14.63993624 -0.00514344 17.03076172 -0.00097656 C20.70479464 0.00437137 24.37870529 -0.0009209 28.05273438 -0.00732422 C30.3691409 -0.00666344 32.68554734 -0.00538229 35.00195312 -0.00341797 C36.66284973 -0.00645432 36.66284973 -0.00645432 38.3572998 -0.009552 C39.37505493 -0.00639984 40.39281006 -0.00324768 41.44140625 0 C42.79256531 0.00119339 42.79256531 0.00119339 44.17102051 0.00241089 C46.22070312 0.12939453 46.22070312 0.12939453 47.22070312 1.12939453 C47.33447692 2.87719097 47.37813959 4.62958024 47.39479065 6.3809967 C47.40772659 7.52040207 47.42066254 8.65980743 47.43399048 9.83374023 C47.44296356 11.09541016 47.45193665 12.35708008 47.46118164 13.65698242 C47.47398892 14.99076137 47.4871243 16.32453721 47.50056458 17.65830994 C47.61697194 29.89225543 47.67322097 42.12703167 47.71733189 54.36142826 C47.75044774 63.3938332 47.8097333 72.42522344 47.90484291 81.45719343 C47.9695272 87.81748175 48.00292343 94.17749672 48.01408142 100.53810114 C48.02159241 104.32967663 48.04233983 108.12002954 48.09710884 111.91124153 C48.35352978 130.49367993 48.09017352 145.58925992 35.22070312 160.12939453 C34.56070313 160.12939453 33.90070313 160.12939453 33.22070312 160.12939453 C32.89070313 161.11939453 32.56070313 162.10939453 32.22070312 163.12939453 C31.56070313 163.12939453 30.90070313 163.12939453 30.22070312 163.12939453 C30.22070312 163.78939453 30.22070312 164.44939453 30.22070312 165.12939453 C28.08344489 166.71132584 25.96634568 168.15398265 23.72070312 169.56689453 C23.07939453 169.97359375 22.43808594 170.38029297 21.77734375 170.79931641 C12.98965374 176.2638557 4.61073816 178.64037986 -5.77929688 178.12939453 C-6.76929688 177.46939453 -7.75929687 176.80939453 -8.77929688 176.12939453 C-9.09522555 173.23159431 -9.21666189 170.54300683 -9.21166992 167.640625 C-9.22186157 166.7625116 -9.23205322 165.88439819 -9.24255371 164.97967529 C-9.27281975 162.06858046 -9.28197033 159.1578139 -9.29101562 156.24658203 C-9.30785223 154.231607 -9.32600108 152.21664254 -9.34541321 150.20169067 C-9.39302991 144.8916555 -9.42276368 139.58166315 -9.44885254 134.27148438 C-9.47859933 128.85554542 -9.52514974 123.43975424 -9.5703125 118.02392578 C-9.65647832 107.39249248 -9.72376439 96.76102887 -9.77929688 86.12939453 C-9.15806946 85.78984741 -8.53684204 85.45030029 -7.89678955 85.10046387 C-7.08361267 84.65303833 -6.27043579 84.20561279 -5.43261719 83.74462891 C-4.22233856 83.08062073 -4.22233856 83.08062073 -2.98760986 82.40319824 C-0.59096367 81.02075978 1.43695613 79.50397872 3.47070312 77.62939453 C4.12425781 77.03126953 4.7778125 76.43314453 5.45117188 75.81689453 C7.7492489 73.62535088 10.00373872 71.40320418 12.22070312 69.12939453 C12.72988281 68.66533203 13.2390625 68.20126953 13.76367188 67.72314453 C27.57032158 54.83272559 36.17642988 36.71445201 42.22070312 19.12939453 C42.55070312 18.22833984 42.88070312 17.32728516 43.22070312 16.39892578 C44.47394997 12.89826992 45.30880943 9.68822417 45.75463867 5.99267578 C45.90843994 4.71779297 46.06224121 3.44291016 46.22070312 2.12939453 C38.9938018 2.19621151 31.7674493 2.28594441 24.54101562 2.3918457 C22.08112101 2.42516219 19.6211487 2.45317289 17.16113281 2.47583008 C13.63117263 2.50925234 10.10192878 2.56156219 6.57226562 2.61767578 C5.46702545 2.6240657 4.36178528 2.63045563 3.22305298 2.63703918 C2.20214569 2.65683334 1.1812384 2.6766275 0.12939453 2.69702148 C-0.77217377 2.70812454 -1.67374207 2.7192276 -2.60263062 2.73066711 C-3.32093048 2.86224716 -4.03923035 2.99382721 -4.77929688 3.12939453 C-5.76929688 4.61439453 -5.76929688 4.61439453 -6.77929688 6.12939453 C-5.79209948 0.62929474 -5.61534672 0.00495967 0 0 Z " fill="#249791" transform="translate(208.779296875,144.87060546875)"/>
<path d="M0 0 C6.71298261 0.39970431 11.29523172 2.13949462 15.99609375 7.08984375 C15.99609375 7.74984375 15.99609375 8.40984375 15.99609375 9.08984375 C16.98609375 9.41984375 17.97609375 9.74984375 18.99609375 10.08984375 C20.56872911 11.94737682 22.05888278 13.87565543 23.49609375 15.83984375 C24.26953125 16.8865625 25.04296875 17.93328125 25.83984375 19.01171875 C29.68877951 24.506214 32.99609375 29.23444682 32.99609375 36.08984375 C33.65609375 36.08984375 34.31609375 36.08984375 34.99609375 36.08984375 C40.57616492 50.58806439 40.57616492 50.58806439 38.99609375 58.08984375 C37.46875 59.8671875 37.46875 59.8671875 35.99609375 61.08984375 C36.32609375 61.41984375 36.65609375 61.74984375 36.99609375 62.08984375 C37.52979696 67.20449952 36.31217732 69.75189333 33.49609375 73.96484375 C30.21877931 79.2715974 29.46932818 81.97936319 29.99609375 88.08984375 C28.98761763 92.20132333 27.91200937 94.17392813 24.99609375 97.08984375 C23.79559968 100.18991576 23.79559968 100.18991576 22.99609375 103.08984375 C22.33609375 103.08984375 21.67609375 103.08984375 20.99609375 103.08984375 C20.89554688 103.68410156 20.795 104.27835937 20.69140625 104.890625 C19.45995773 108.7855998 16.36274436 110.95344268 12.99609375 113.08984375 C10.54774719 113.82387415 8.57645176 113.98452302 5.99609375 114.08984375 C1.95071292 105.2635583 0.69439675 98.83904562 1.90234375 89.140625 C2.002878 85.86907307 1.45844853 83.98843983 -0.00390625 81.08984375 C-0.33390625 80.75984375 -0.66390625 80.42984375 -1.00390625 80.08984375 C-0.82755173 77.39901503 -0.38554704 74.76132929 -0.00390625 72.08984375 C-0.78765625 72.13109375 -1.57140625 72.17234375 -2.37890625 72.21484375 C-5.00390625 72.08984375 -5.00390625 72.08984375 -7.00390625 70.08984375 C-8.48890625 70.58484375 -8.48890625 70.58484375 -10.00390625 71.08984375 C-14.24414983 72.26340612 -17.59745683 72.57944924 -22.00390625 72.08984375 C-24.47116689 70.44500332 -26.04667948 69.19635053 -28.00390625 67.08984375 C-28.71933594 66.36861328 -28.71933594 66.36861328 -29.44921875 65.6328125 C-32.54355784 62.28208531 -33.7971238 59.63905763 -34.00390625 55.08984375 C-33.67390625 54.42984375 -33.34390625 53.76984375 -33.00390625 53.08984375 C-33.23078125 52.20296875 -33.45765625 51.31609375 -33.69140625 50.40234375 C-34.13843924 45.66379401 -32.78150488 43.91842564 -30.00390625 40.08984375 C-28.675297 39.73815307 -27.34232297 39.40214099 -26.00390625 39.08984375 C-25.28683643 37.1073566 -24.62100212 35.10569026 -24.00390625 33.08984375 C-23.01390625 32.42984375 -22.02390625 31.76984375 -21.00390625 31.08984375 C-22.32390625 29.76984375 -23.64390625 28.44984375 -25.00390625 27.08984375 C-24.01390625 23.62484375 -24.01390625 23.62484375 -23.00390625 20.08984375 C-20.36390625 20.41984375 -17.72390625 20.74984375 -15.00390625 21.08984375 C-15.33390625 20.42984375 -15.66390625 19.76984375 -16.00390625 19.08984375 C-16.99390625 18.75984375 -17.98390625 18.42984375 -19.00390625 18.08984375 C-19.00390625 17.09984375 -19.00390625 16.10984375 -19.00390625 15.08984375 C-21.31390625 14.75984375 -23.62390625 14.42984375 -26.00390625 14.08984375 C-26.00390625 12.43984375 -26.00390625 10.78984375 -26.00390625 9.08984375 C-25.34390625 8.75984375 -24.68390625 8.42984375 -24.00390625 8.08984375 C-23.67390625 7.09984375 -23.34390625 6.10984375 -23.00390625 5.08984375 C-17.09198161 5.43760402 -14.96517165 6.7984729 -11.00390625 11.08984375 C-10.01390625 11.08984375 -9.02390625 11.08984375 -8.00390625 11.08984375 C-7.34390625 11.08984375 -6.68390625 11.08984375 -6.00390625 11.08984375 C-6.00390625 10.42984375 -6.00390625 9.76984375 -6.00390625 9.08984375 C-7.32390625 8.42984375 -8.64390625 7.76984375 -10.00390625 7.08984375 C-10.00390625 5.76984375 -10.00390625 4.44984375 -10.00390625 3.08984375 C-8.86953125 2.78046875 -7.73515625 2.47109375 -6.56640625 2.15234375 C-3.91259764 1.36085697 -2.52227036 0.11308425 0 0 Z M4.99609375 7.08984375 C5.99609375 9.08984375 5.99609375 9.08984375 5.99609375 9.08984375 Z M3.99609375 10.08984375 C3.99609375 10.74984375 3.99609375 11.40984375 3.99609375 12.08984375 C5.31609375 11.75984375 6.63609375 11.42984375 7.99609375 11.08984375 C6.67609375 10.75984375 5.35609375 10.42984375 3.99609375 10.08984375 Z M-8.00390625 23.08984375 C-8.00390625 23.74984375 -8.00390625 24.40984375 -8.00390625 25.08984375 C-9.32390625 25.41984375 -10.64390625 25.74984375 -12.00390625 26.08984375 C-12.00390625 27.07984375 -12.00390625 28.06984375 -12.00390625 29.08984375 C-7.71390625 29.08984375 -3.42390625 29.08984375 0.99609375 29.08984375 C0.99609375 30.73984375 0.99609375 32.38984375 0.99609375 34.08984375 C5.45109375 36.06984375 5.45109375 36.06984375 9.99609375 38.08984375 C9.99609375 37.42984375 9.99609375 36.76984375 9.99609375 36.08984375 C12.57464436 36.51960218 14.72422212 36.94978867 17.05859375 38.15234375 C19.2374671 39.3802177 19.2374671 39.3802177 22.99609375 39.08984375 C22.99609375 37.76984375 22.99609375 36.44984375 22.99609375 35.08984375 C18.18399474 32.79939361 18.18399474 32.79939361 12.99609375 32.08984375 C12.33609375 32.08984375 11.67609375 32.08984375 10.99609375 32.08984375 C10.33609375 31.09984375 9.67609375 30.10984375 8.99609375 29.08984375 C8.00609375 29.41984375 7.01609375 29.74984375 5.99609375 30.08984375 C5.41859375 29.49171875 4.84109375 28.89359375 4.24609375 28.27734375 C0.20517006 24.14331854 0.20517006 24.14331854 -5.25390625 22.90234375 C-6.61515625 22.99515625 -6.61515625 22.99515625 -8.00390625 23.08984375 Z M17.99609375 25.08984375 C18.32609375 26.07984375 18.65609375 27.06984375 18.99609375 28.08984375 C20.31609375 27.75984375 21.63609375 27.42984375 22.99609375 27.08984375 C20.52109375 26.09984375 20.52109375 26.09984375 17.99609375 25.08984375 Z " fill="#3F3F3F" transform="translate(165.00390625,68.91015625)"/>
<path d="M0 0 C6.71298261 0.39970431 11.29523172 2.13949462 15.99609375 7.08984375 C15.99609375 7.74984375 15.99609375 8.40984375 15.99609375 9.08984375 C16.98609375 9.41984375 17.97609375 9.74984375 18.99609375 10.08984375 C20.56872911 11.94737682 22.05888278 13.87565543 23.49609375 15.83984375 C24.26953125 16.8865625 25.04296875 17.93328125 25.83984375 19.01171875 C29.68877951 24.506214 32.99609375 29.23444682 32.99609375 36.08984375 C33.65609375 36.08984375 34.31609375 36.08984375 34.99609375 36.08984375 C40.57616492 50.58806439 40.57616492 50.58806439 38.99609375 58.08984375 C37.46875 59.8671875 37.46875 59.8671875 35.99609375 61.08984375 C36.32609375 61.41984375 36.65609375 61.74984375 36.99609375 62.08984375 C37.30476656 65.5624129 37.38310714 67.47707255 35.49609375 70.46484375 C35.00109375 71.00109375 34.50609375 71.53734375 33.99609375 72.08984375 C34.65609375 69.11984375 35.31609375 66.14984375 35.99609375 63.08984375 C34.34609375 63.08984375 32.69609375 63.08984375 30.99609375 63.08984375 C30.66996094 62.20941406 30.34382813 61.32898438 30.0078125 60.421875 C29.57082031 59.26042969 29.13382813 58.09898438 28.68359375 56.90234375 C28.25433594 55.75378906 27.82507813 54.60523438 27.3828125 53.421875 C26.10573908 50.12548085 26.10573908 50.12548085 24.390625 47.4140625 C22.99609375 45.08984375 22.99609375 45.08984375 22.65625 42.91796875 C22.12638718 40.79617582 22.12638718 40.79617582 19.4921875 39.82421875 C17.97818359 39.33695313 17.97818359 39.33695313 16.43359375 38.83984375 C15.42167969 38.5046875 14.40976563 38.16953125 13.3671875 37.82421875 C12.58472656 37.581875 11.80226562 37.33953125 10.99609375 37.08984375 C10.99609375 37.74984375 10.99609375 38.40984375 10.99609375 39.08984375 C7.08015929 38.30665686 3.6320274 36.69804517 -0.00390625 35.08984375 C-0.00390625 33.43984375 -0.00390625 31.78984375 -0.00390625 30.08984375 C-0.56376221 30.15042969 -1.12361816 30.21101563 -1.70043945 30.2734375 C-4.23892124 30.54721341 -6.7776575 30.81855507 -9.31640625 31.08984375 C-10.19748047 31.18523437 -11.07855469 31.280625 -11.98632812 31.37890625 C-12.83388672 31.46914062 -13.68144531 31.559375 -14.5546875 31.65234375 C-15.33497314 31.73613281 -16.11525879 31.81992188 -16.91918945 31.90625 C-19.00390625 32.08984375 -19.00390625 32.08984375 -22.00390625 32.08984375 C-21.67390625 31.75984375 -21.34390625 31.42984375 -21.00390625 31.08984375 C-22.32390625 29.76984375 -23.64390625 28.44984375 -25.00390625 27.08984375 C-24.01390625 23.62484375 -24.01390625 23.62484375 -23.00390625 20.08984375 C-20.36390625 20.41984375 -17.72390625 20.74984375 -15.00390625 21.08984375 C-15.33390625 20.42984375 -15.66390625 19.76984375 -16.00390625 19.08984375 C-16.99390625 18.75984375 -17.98390625 18.42984375 -19.00390625 18.08984375 C-19.00390625 17.09984375 -19.00390625 16.10984375 -19.00390625 15.08984375 C-21.31390625 14.75984375 -23.62390625 14.42984375 -26.00390625 14.08984375 C-26.00390625 12.43984375 -26.00390625 10.78984375 -26.00390625 9.08984375 C-25.34390625 8.75984375 -24.68390625 8.42984375 -24.00390625 8.08984375 C-23.67390625 7.09984375 -23.34390625 6.10984375 -23.00390625 5.08984375 C-17.09198161 5.43760402 -14.96517165 6.7984729 -11.00390625 11.08984375 C-10.01390625 11.08984375 -9.02390625 11.08984375 -8.00390625 11.08984375 C-7.34390625 11.08984375 -6.68390625 11.08984375 -6.00390625 11.08984375 C-6.00390625 10.42984375 -6.00390625 9.76984375 -6.00390625 9.08984375 C-7.32390625 8.42984375 -8.64390625 7.76984375 -10.00390625 7.08984375 C-10.00390625 5.76984375 -10.00390625 4.44984375 -10.00390625 3.08984375 C-8.86953125 2.78046875 -7.73515625 2.47109375 -6.56640625 2.15234375 C-3.91259764 1.36085697 -2.52227036 0.11308425 0 0 Z M4.99609375 7.08984375 C5.99609375 9.08984375 5.99609375 9.08984375 5.99609375 9.08984375 Z M3.99609375 10.08984375 C3.99609375 10.74984375 3.99609375 11.40984375 3.99609375 12.08984375 C5.31609375 11.75984375 6.63609375 11.42984375 7.99609375 11.08984375 C6.67609375 10.75984375 5.35609375 10.42984375 3.99609375 10.08984375 Z M-8.00390625 23.08984375 C-8.00390625 23.74984375 -8.00390625 24.40984375 -8.00390625 25.08984375 C-9.32390625 25.41984375 -10.64390625 25.74984375 -12.00390625 26.08984375 C-12.00390625 27.07984375 -12.00390625 28.06984375 -12.00390625 29.08984375 C-7.71390625 29.08984375 -3.42390625 29.08984375 0.99609375 29.08984375 C0.99609375 30.73984375 0.99609375 32.38984375 0.99609375 34.08984375 C5.45109375 36.06984375 5.45109375 36.06984375 9.99609375 38.08984375 C9.99609375 37.42984375 9.99609375 36.76984375 9.99609375 36.08984375 C12.57464436 36.51960218 14.72422212 36.94978867 17.05859375 38.15234375 C19.2374671 39.3802177 19.2374671 39.3802177 22.99609375 39.08984375 C22.99609375 37.76984375 22.99609375 36.44984375 22.99609375 35.08984375 C18.18399474 32.79939361 18.18399474 32.79939361 12.99609375 32.08984375 C12.33609375 32.08984375 11.67609375 32.08984375 10.99609375 32.08984375 C10.33609375 31.09984375 9.67609375 30.10984375 8.99609375 29.08984375 C8.00609375 29.41984375 7.01609375 29.74984375 5.99609375 30.08984375 C5.41859375 29.49171875 4.84109375 28.89359375 4.24609375 28.27734375 C0.20517006 24.14331854 0.20517006 24.14331854 -5.25390625 22.90234375 C-6.61515625 22.99515625 -6.61515625 22.99515625 -8.00390625 23.08984375 Z M17.99609375 25.08984375 C18.32609375 26.07984375 18.65609375 27.06984375 18.99609375 28.08984375 C20.31609375 27.75984375 21.63609375 27.42984375 22.99609375 27.08984375 C20.52109375 26.09984375 20.52109375 26.09984375 17.99609375 25.08984375 Z " fill="#4C4E4E" transform="translate(165.00390625,68.91015625)"/>
<path d="M0 0 C0.66 0.33 1.32 0.66 2 1 C2.4140625 3.50390625 2.4140625 3.50390625 2.625 6.5625 C2.69976562 7.57441406 2.77453125 8.58632812 2.8515625 9.62890625 C2.90054688 10.41136719 2.94953125 11.19382813 3 12 C4.09828125 11.50306641 4.09828125 11.50306641 5.21875 10.99609375 C9.33604532 9.52150062 12.82097847 9.79509963 17 11 C19.75 13.4375 19.75 13.4375 22 16 C23.66392045 16.67349161 25.33032028 17.3409159 27 18 C29.41382509 20.58029579 30 21.4065708 30 25 C30.64066406 25.17015625 31.28132813 25.3403125 31.94140625 25.515625 C37.50365317 27.07404888 42.11323714 28.91921472 47 32 C46.25 38.75 46.25 38.75 44 41 C43.42214485 43.25577528 43.04962025 45.51340296 42.66015625 47.80859375 C41.8981822 50.33798689 41.08549744 51.40281416 39 53 C36.3125 53.1875 36.3125 53.1875 34 53 C33.9071875 54.051875 33.9071875 54.051875 33.8125 55.125 C32.67365128 59.1547724 30.96808065 61.03191935 28 64 C26.68 64 25.36 64 24 64 C24 65.32 24 66.64 24 68 C20.11056539 66.41541553 17.66631462 64.2328 15 61 C14.13189502 58.12181218 13.86032514 55.23441119 13.5625 52.25 C12.58675363 44.74391095 10.81981968 39.93415125 6 34 C3.69632541 29.90721732 2.47629149 25.71905226 3.38671875 20.9921875 C3.86670056 19.31054909 4.42679215 17.65218735 5 16 C4.360625 15.7525 3.72125 15.505 3.0625 15.25 C1 14 1 14 0.25 11.875 C0.12625 10.946875 0.12625 10.946875 0 10 C-0.66 10 -1.32 10 -2 10 C-4.1519437 6.77208445 -4.20086443 5.71599191 -4 2 C-2.125 0.9375 -2.125 0.9375 0 0 Z " fill="#414141" transform="translate(65,118)"/>
<path d="M0 0 C4.3419463 4.04250173 7.12143318 8.36429954 9 14 C9 15.32 9 16.64 9 18 C9.66 18 10.32 18 11 18 C16.58007117 32.49822064 16.58007117 32.49822064 15 40 C13.47265625 41.77734375 13.47265625 41.77734375 12 43 C12.33 43.33 12.66 43.66 13 44 C13.30867281 47.47256915 13.38701339 49.3872288 11.5 52.375 C11.005 52.91125 10.51 53.4475 10 54 C10.66 51.03 11.32 48.06 12 45 C10.35 45 8.7 45 7 45 C6.67386719 44.11957031 6.34773438 43.23914063 6.01171875 42.33203125 C5.57472656 41.17058594 5.13773438 40.00914063 4.6875 38.8125 C4.25824219 37.66394531 3.82898438 36.51539063 3.38671875 35.33203125 C2.10964533 32.0356371 2.10964533 32.0356371 0.39453125 29.32421875 C-1 27 -1 27 -1.33984375 24.828125 C-1.86970657 22.70633207 -1.86970657 22.70633207 -4.50390625 21.734375 C-5.51324219 21.40953125 -6.52257812 21.0846875 -7.5625 20.75 C-9.08037109 20.24726562 -9.08037109 20.24726562 -10.62890625 19.734375 C-11.80259766 19.37085938 -11.80259766 19.37085938 -13 19 C-13 19.66 -13 20.32 -13 21 C-14.32 20.67 -15.64 20.34 -17 20 C-14 18 -14 18 -11 17 C-8.51953125 17.77734375 -8.51953125 17.77734375 -5.8125 18.9375 C-4.91144531 19.31777344 -4.01039063 19.69804688 -3.08203125 20.08984375 C-2.39496094 20.39019531 -1.70789063 20.69054687 -1 21 C-1 19.68 -1 18.36 -1 17 C-5.91582077 15.48046291 -5.91582077 15.48046291 -11 15 C-11.99 14.67 -12.98 14.34 -14 14 C-14.33 13.34 -14.66 12.68 -15 12 C-16.32 12.33 -17.64 12.66 -19 13 C-19 12.01 -19 11.02 -19 10 C-19.78375 9.731875 -20.5675 9.46375 -21.375 9.1875 C-24 8 -24 8 -26 5 C-25.01 5 -24.02 5 -23 5 C-23 4.34 -23 3.68 -23 3 C-19.17216185 4.55948962 -16.88905687 7.11094313 -14 10 C-13.34 10 -12.68 10 -12 10 C-10.68 10 -9.36 10 -8 10 C-7.67 8.68 -7.34 7.36 -7 6 C-4.36 6.33 -1.72 6.66 1 7 C0.67 4.69 0.34 2.38 0 0 Z M-6 7 C-5.67 7.99 -5.34 8.98 -5 10 C-3.68 9.67 -2.36 9.34 -1 9 C-3.475 8.01 -3.475 8.01 -6 7 Z " fill="#545454" transform="translate(189,87)"/>
<path d="M0 0 C0.78375 0.04125 1.5675 0.0825 2.375 0.125 C2.045 1.115 1.715 2.105 1.375 3.125 C0.715 3.125 0.055 3.125 -0.625 3.125 C-0.295 4.775 0.035 6.425 0.375 8.125 C0.99375 8.2075 1.6125 8.29 2.25 8.375 C4.375 9.125 4.375 9.125 5.625 11 C6.375 13.125 6.375 13.125 6.375 16.125 C4.395 16.125 2.415 16.125 0.375 16.125 C0.045 17.115 -0.285 18.105 -0.625 19.125 C-3.20572903 21.44765612 -4.07676068 22.125 -7.625 22.125 C-9.06294622 23.78736771 -9.06294622 23.78736771 -10.25 25.9375 C-10.88808594 26.99904297 -10.88808594 26.99904297 -11.5390625 28.08203125 C-12.75043482 30.22456487 -12.75043482 30.22456487 -13.625 33.125 C-14.285 33.125 -14.945 33.125 -15.625 33.125 C-15.955 36.095 -16.285 39.065 -16.625 42.125 C-17.285 42.125 -17.945 42.125 -18.625 42.125 C-19.285 41.135 -19.945 40.145 -20.625 39.125 C-21.615 39.125 -22.605 39.125 -23.625 39.125 C-23.12047791 30.37995043 -19.57899954 22.84909212 -15.625 15.125 C-14.635 15.125 -13.645 15.125 -12.625 15.125 C-12.25375 13.454375 -12.25375 13.454375 -11.875 11.75 C-10.625 8.125 -10.625 8.125 -8.625 6.9375 C-7.965 6.669375 -7.305 6.40125 -6.625 6.125 C-5.4749169 4.15827085 -5.4749169 4.15827085 -4.625 2.125 C-2.625 0.125 -2.625 0.125 0 0 Z " fill="#4D4D4D" transform="translate(86.625,73.875)"/>
<path d="M0 0 C1.67642578 0.01353516 1.67642578 0.01353516 3.38671875 0.02734375 C6.13303462 0.05081654 8.87890472 0.08365272 11.625 0.125 C11.625 0.785 11.625 1.445 11.625 2.125 C10.4184375 2.558125 10.4184375 2.558125 9.1875 3 C6.4923532 3.85762568 6.4923532 3.85762568 5.625 6.125 C3.02180887 7.86046076 1.10232763 8.77675233 -1.8125 9.75 C-2.57433594 10.01039062 -3.33617188 10.27078125 -4.12109375 10.5390625 C-6.375 11.125 -6.375 11.125 -10.375 11.125 C-10.375 11.785 -10.375 12.445 -10.375 13.125 C-12.685 13.455 -14.995 13.785 -17.375 14.125 C-17.375 14.785 -17.375 15.445 -17.375 16.125 C-18.035 16.125 -18.695 16.125 -19.375 16.125 C-19.705 17.115 -20.035 18.105 -20.375 19.125 C-26.81038595 19.48926713 -26.81038595 19.48926713 -29.3125 17.875 C-30.375 16.125 -30.375 16.125 -30.375 12.125 C-31.035 12.125 -31.695 12.125 -32.375 12.125 C-32.375 11.135 -32.375 10.145 -32.375 9.125 C-30.1691576 7.99488348 -27.96054973 6.87084212 -25.75 5.75 C-25.13253906 5.43289062 -24.51507813 5.11578125 -23.87890625 4.7890625 C-15.69320262 0.65312803 -9.15484736 -0.14018023 0 0 Z " fill="#4E4E4E" transform="translate(124.375,57.875)"/>
<path d="M0 0 C0.66 0.33 1.32 0.66 2 1 C1.34 1.66 0.68 2.32 0 3 C-0.21772552 5.82976367 -0.31143142 8.56454103 -0.31884766 11.39697266 C-0.32889328 12.26533249 -0.3389389 13.13369232 -0.34928894 14.02836609 C-0.38025142 16.90692464 -0.39719222 19.78538965 -0.4140625 22.6640625 C-0.43276365 24.6566143 -0.45233626 26.6491581 -0.4727478 28.64169312 C-0.52418628 33.89253022 -0.56374917 39.14339304 -0.60089111 44.39434814 C-0.64085749 49.74994324 -0.69198334 55.10543032 -0.7421875 60.4609375 C-0.83908543 70.97388258 -0.92344567 81.48688849 -1 92 C1.31309705 91.88658363 3.62550185 91.75896193 5.9375 91.625 C7.22527344 91.55539062 8.51304687 91.48578125 9.83984375 91.4140625 C11.40412109 91.20910156 11.40412109 91.20910156 13 91 C13.33 90.34 13.66 89.68 14 89 C15.32 89 16.64 89 18 89 C18.66 87.68 19.32 86.36 20 85 C20.99 85 21.98 85 23 85 C23 85.66 23 86.32 23 87 C24.98 86.505 24.98 86.505 27 86 C22.47638779 91.15721262 14.67234625 93.41979598 8 94 C0.65550661 94.43700441 0.65550661 94.43700441 -3 92 C-3.31592868 89.10219978 -3.43736501 86.41361229 -3.43237305 83.51123047 C-3.4425647 82.63311707 -3.45275635 81.75500366 -3.46325684 80.85028076 C-3.49352288 77.93918592 -3.50267345 75.02841937 -3.51171875 72.1171875 C-3.52855536 70.10221247 -3.5467042 68.08724801 -3.56611633 66.07229614 C-3.61373303 60.76226097 -3.6434668 55.45226862 -3.66955566 50.14208984 C-3.69930245 44.72615089 -3.74585286 39.31035971 -3.79101562 33.89453125 C-3.87718144 23.26309795 -3.94446752 12.63163433 -4 2 C-2.125 0.9375 -2.125 0.9375 0 0 Z " fill="#75BAB3" transform="translate(203,229)"/>
<path d="M0 0 C4.19469571 0.59924224 8.00999834 1.57499941 12 3 C11.5317879 7.77576339 10.75668002 11.04476345 8 15 C7.01 14.67 6.02 14.34 5 14 C5 13.01 5 12.02 5 11 C-5.18840733 15.86390513 -12.1611436 21.16087605 -16 32 C-16.66 32 -17.32 32 -18 32 C-17.43135099 23.09116557 -13.1301934 16.47274152 -6.70703125 10.44140625 C-1.44715447 6 -1.44715447 6 2 6 C1.34 5.01 0.68 4.02 0 3 C0 2.01 0 1.02 0 0 Z " fill="#359D97" transform="translate(123,93)"/>
<path d="M0 0 C0.99 0 1.98 0 3 0 C2.93888696 11.83053972 2.86185221 23.66085704 2.76428509 35.49115562 C2.71948911 40.98399779 2.68025355 46.4767642 2.65356445 51.96972656 C2.62762328 57.26720168 2.58728674 62.56438667 2.53681374 67.86168289 C2.52008262 69.88632229 2.5086074 71.91101194 2.50238609 73.93571091 C2.49281261 76.76393054 2.46483552 79.59139736 2.43237305 82.41943359 C2.43380814 83.26316025 2.43524323 84.1068869 2.4367218 84.97618103 C2.39872742 87.30477905 2.39872742 87.30477905 2 91 C-1.78112824 93.52075216 -3.52837216 93.10400387 -8 92.75 C-9.2375 92.66234375 -10.475 92.5746875 -11.75 92.484375 C-15 92 -15 92 -18 90 C-12.06 90.33 -6.12 90.66 0 91 C0 60.97 0 30.94 0 0 Z " fill="#969595" transform="translate(60,230)"/>
<path d="M0 0 C7.27652915 0.56465014 7.27652915 0.56465014 10.48046875 3.08203125 C11.16109375 4.04109375 11.16109375 4.04109375 11.85546875 5.01953125 C10.86546875 5.01953125 9.87546875 5.01953125 8.85546875 5.01953125 C8.85546875 5.67953125 8.85546875 6.33953125 8.85546875 7.01953125 C8.19546875 7.01953125 7.53546875 7.01953125 6.85546875 7.01953125 C6.85546875 7.67953125 6.85546875 8.33953125 6.85546875 9.01953125 C7.51546875 9.01953125 8.17546875 9.01953125 8.85546875 9.01953125 C8.52546875 10.33953125 8.19546875 11.65953125 7.85546875 13.01953125 C6.59734375 13.06078125 5.33921875 13.10203125 4.04296875 13.14453125 C3.33527344 13.16773437 2.62757813 13.1909375 1.8984375 13.21484375 C-0.14453125 13.01953125 -0.14453125 13.01953125 -3.14453125 11.01953125 C-3.14453125 10.35953125 -3.14453125 9.69953125 -3.14453125 9.01953125 C-3.80453125 9.01953125 -4.46453125 9.01953125 -5.14453125 9.01953125 C-5.14453125 10.00953125 -5.14453125 10.99953125 -5.14453125 12.01953125 C-6.13453125 11.68953125 -7.12453125 11.35953125 -8.14453125 11.01953125 C-7.48453125 11.01953125 -6.82453125 11.01953125 -6.14453125 11.01953125 C-6.14453125 10.35953125 -6.14453125 9.69953125 -6.14453125 9.01953125 C-7.46453125 8.35953125 -8.78453125 7.69953125 -10.14453125 7.01953125 C-10.14453125 5.69953125 -10.14453125 4.37953125 -10.14453125 3.01953125 C-9.01015625 2.71015625 -7.87578125 2.40078125 -6.70703125 2.08203125 C-3.89215188 1.24250582 -2.67638234 0.02437507 0 0 Z M4.85546875 7.01953125 C5.85546875 9.01953125 5.85546875 9.01953125 5.85546875 9.01953125 Z M3.85546875 10.01953125 C3.85546875 10.67953125 3.85546875 11.33953125 3.85546875 12.01953125 C5.17546875 11.68953125 6.49546875 11.35953125 7.85546875 11.01953125 C6.53546875 10.68953125 5.21546875 10.35953125 3.85546875 10.01953125 Z " fill="#717171" transform="translate(165.14453125,68.98046875)"/>
<path d="M0 0 C4.32419041 0.25436414 6.45461656 0.51659195 9.75 3.4375 C10.4925 4.283125 11.235 5.12875 12 6 C12.99 6.66 13.98 7.32 15 8 C11.375 11 11.375 11 8 11 C8.33 12.98 8.66 14.96 9 17 C6.03 17 3.06 17 0 17 C0 19.31 0 21.62 0 24 C-1.125 22.3125 -1.125 22.3125 -2 20 C-1.125 17.25 -1.125 17.25 0 15 C2.64 15.33 5.28 15.66 8 16 C7.67 15.34 7.34 14.68 7 14 C6.01 13.67 5.02 13.34 4 13 C4 12.01 4 11.02 4 10 C1.69 9.67 -0.62 9.34 -3 9 C-3 7.35 -3 5.7 -3 4 C-2.34 3.67 -1.68 3.34 -1 3 C-0.67 2.01 -0.34 1.02 0 0 Z " fill="#AFAFAF" transform="translate(142,74)"/>
<path d="M0 0 C0.66 0.33 1.32 0.66 2 1 C2.4140625 3.50390625 2.4140625 3.50390625 2.625 6.5625 C2.69976562 7.57441406 2.77453125 8.58632812 2.8515625 9.62890625 C2.90054688 10.41136719 2.94953125 11.19382813 3 12 C4.09828125 11.50306641 4.09828125 11.50306641 5.21875 10.99609375 C9.33604532 9.52150062 12.82097847 9.79509963 17 11 C19.75 13.4375 19.75 13.4375 22 16 C24.66533035 17.319018 24.66533035 17.319018 27 18 C25 19 25 19 22.5625 18.25 C20 17 20 17 18.6640625 15.49609375 C16.47343517 13.52658608 14.69431974 13.299041 11.8125 12.8125 C10.91144531 12.65394531 10.01039062 12.49539062 9.08203125 12.33203125 C8.05142578 12.16767578 8.05142578 12.16767578 7 12 C5.19849152 21.73667927 5.19849152 21.73667927 7.07421875 31.078125 C8 33 8 33 7 36 C4.30545912 31.19668799 2.29676135 26.60058189 3.390625 21 C3.86624073 19.31496142 4.42611078 17.65415129 5 16 C4.360625 15.7525 3.72125 15.505 3.0625 15.25 C1 14 1 14 0.25 11.875 C0.12625 10.946875 0.12625 10.946875 0 10 C-0.66 10 -1.32 10 -2 10 C-4.1519437 6.77208445 -4.20086443 5.71599191 -4 2 C-2.125 0.9375 -2.125 0.9375 0 0 Z " fill="#BCBCBC" transform="translate(65,118)"/>
<path d="M0 0 C1.9375 1.625 1.9375 1.625 3 4 C2.93375803 7.77579201 2.78061285 10.07482922 0.3125 13 C-2.84588584 14.36578847 -4.72299839 13.9064047 -8 13 C-11 11 -11 11 -11.8125 8.125 C-12.00842685 4.85955246 -11.940023 3.58669734 -10 1 C-6.62069707 -1.5344772 -3.94734591 -1.17580516 0 0 Z M-6 3 C-6.66 3.66 -7.32 4.32 -8 5 C-7.67958603 7.60280568 -7.67958603 7.60280568 -7 10 C-5.33388095 10.042721 -3.66617115 10.04063832 -2 10 C-0.70366379 8.93354885 -0.70366379 8.93354885 -0.9375 6.4375 C-0.958125 5.633125 -0.97875 4.82875 -1 4 C-3.39719432 3.32041397 -3.39719432 3.32041397 -6 3 Z " fill="#A0CCC7" transform="translate(156,290)"/>
<path d="M0 0 C2.625 0.5625 2.625 0.5625 5 2 C5.9375 4.4375 5.9375 4.4375 6 7 C5.01 8.485 5.01 8.485 4 10 C0.92078868 10.25660094 -1.21136993 10.39431504 -4 9 C-4.99 9.495 -4.99 9.495 -6 10 C-7.99960012 10.039992 -10.00047242 10.04346799 -12 10 C-12 7.03 -12 4.06 -12 1 C-8.65747276 0.92572162 -6.1964086 0.93453047 -3 2 C-2.01 1.34 -1.02 0.68 0 0 Z M-9 3 C-9 4.65 -9 6.3 -9 8 C-8.01 7.67 -7.02 7.34 -6 7 C-6 6.01 -6 5.02 -6 4 C-6.99 3.67 -7.98 3.34 -9 3 Z M0 3 C-0.33 4.32 -0.66 5.64 -1 7 C0.32 7 1.64 7 3 7 C2.67 5.68 2.34 4.36 2 3 C1.34 3 0.68 3 0 3 Z " fill="#BABABA" transform="translate(135,275)"/>
<path d="M0 0 C3.125 0.1875 3.125 0.1875 6.125 2.1875 C6.5234375 4.5 6.5234375 4.5 6.5 7.1875 C6.50773438 8.074375 6.51546875 8.96125 6.5234375 9.875 C6.39195312 10.638125 6.26046875 11.40125 6.125 12.1875 C2.68392734 14.48154844 1.15660191 14.45043056 -2.875 14.1875 C-3.875 13.1875 -3.875 13.1875 -4.0078125 10.5 C-4.00523437 9.406875 -4.00265625 8.31375 -4 7.1875 C-4.00257813 6.094375 -4.00515625 5.00125 -4.0078125 3.875 C-3.82384294 0.15232188 -3.74167995 0.24402261 0 0 Z M0.125 3.1875 C0.125 3.8475 0.125 4.5075 0.125 5.1875 C0.785 5.1875 1.445 5.1875 2.125 5.1875 C2.125 4.5275 2.125 3.8675 2.125 3.1875 C1.465 3.1875 0.805 3.1875 0.125 3.1875 Z M0.125 8.1875 C0.125 9.1775 0.125 10.1675 0.125 11.1875 C1.115 10.8575 2.105 10.5275 3.125 10.1875 C2.795 9.5275 2.465 8.8675 2.125 8.1875 C1.465 8.1875 0.805 8.1875 0.125 8.1875 Z " fill="#B0B0B0" transform="translate(141.875,259.8125)"/>
<path d="M0 0 C3.3 0 6.6 0 10 0 C10 0.99 10 1.98 10 3 C8.02 3 6.04 3 4 3 C5.98 3.66 7.96 4.32 10 5 C10 5.99 10 6.98 10 8 C8.02 8 6.04 8 4 8 C4 8.66 4 9.32 4 10 C5.98 10 7.96 10 10 10 C10.33 10.99 10.66 11.98 11 13 C9.10114904 14.89885096 6.42752097 14.12367506 3.91015625 14.1328125 C2 14 2 14 0 13 C0 8.71 0 4.42 0 0 Z " fill="#D0E6E3" transform="translate(187,290)"/>
<path d="M0 0 C7.75 -0.125 7.75 -0.125 10 1 C10 2.98 10 4.96 10 7 C9.34 7 8.68 7 8 7 C8.99 8.485 8.99 8.485 10 10 C10 11.32 10 12.64 10 14 C6.125 12.125 6.125 12.125 5 11 C4.01 12.485 4.01 12.485 3 14 C2.01 13.67 1.02 13.34 0 13 C0 8.71 0 4.42 0 0 Z M4 3 C4 3.66 4 4.32 4 5 C4.66 5 5.32 5 6 5 C6 4.34 6 3.68 6 3 C5.34 3 4.68 3 4 3 Z " fill="#8CC3BE" transform="translate(162,290)"/>
<path d="M0 0 C1.32 0 2.64 0 4 0 C4.86604534 1.76505435 5.71748642 3.53728074 6.5625 5.3125 C7.27599609 6.79169922 7.27599609 6.79169922 8.00390625 8.30078125 C9 11 9 11 8 14 C5.03 13.01 2.06 12.02 -1 11 C-1 11.66 -1 12.32 -1 13 C-1.99 13.33 -2.98 13.66 -4 14 C-5.305239 10.08428299 -4.32239848 8.96107003 -2.5625 5.3125 C-2.08941406 4.31863281 -1.61632812 3.32476562 -1.12890625 2.30078125 C-0.75636719 1.54152344 -0.38382812 0.78226562 0 0 Z " fill="#92C6C2" transform="translate(81,290)"/>
<path d="M0 0 C1.828125 0.12109375 1.828125 0.12109375 4 1 C5.484375 3.72265625 5.484375 3.72265625 6.75 7.0625 C7.17796875 8.16722656 7.6059375 9.27195312 8.046875 10.41015625 C8.36140625 11.26480469 8.6759375 12.11945313 9 13 C5.09567131 13 2.61973402 12.31626692 -1 11 C-1.33 11.99 -1.66 12.98 -2 14 C-2.99 13.67 -3.98 13.34 -5 13 C-4.54554036 11.58208592 -4.08625056 10.16571954 -3.625 8.75 C-3.24214844 7.56664062 -3.24214844 7.56664062 -2.8515625 6.359375 C-2.04826333 4.13372042 -1.10288338 2.09068328 0 0 Z " fill="#9ECDC8" transform="translate(121,290)"/>
<path d="M0 0 C2.05078125 0.03255208 4.1015625 0.06510417 6.15234375 0.09765625 C6.15234375 1.08765625 6.15234375 2.07765625 6.15234375 3.09765625 C4.50234375 3.09765625 2.85234375 3.09765625 1.15234375 3.09765625 C1.15234375 3.75765625 1.15234375 4.41765625 1.15234375 5.09765625 C2.80234375 5.09765625 4.45234375 5.09765625 6.15234375 5.09765625 C6.15234375 6.41765625 6.15234375 7.73765625 6.15234375 9.09765625 C4.50234375 8.76765625 2.85234375 8.43765625 1.15234375 8.09765625 C1.15234375 9.08765625 1.15234375 10.07765625 1.15234375 11.09765625 C3.13234375 11.09765625 5.11234375 11.09765625 7.15234375 11.09765625 C7.15234375 12.08765625 7.15234375 13.07765625 7.15234375 14.09765625 C5.67327483 14.12454841 4.19406892 14.14400246 2.71484375 14.16015625 C1.47927734 14.17755859 1.47927734 14.17755859 0.21875 14.1953125 C-1.84765625 14.09765625 -1.84765625 14.09765625 -2.84765625 13.09765625 C-2.94639441 11.09966053 -2.97737424 9.09808467 -2.97265625 7.09765625 C-2.97523438 6.00453125 -2.9778125 4.91140625 -2.98046875 3.78515625 C-2.80072704 0.14802997 -2.80072704 0.14802997 0 0 Z " fill="#B7B7B7" transform="translate(151.84765625,259.90234375)"/>
<path d="M0 0 C1.11375 0.3403125 1.11375 0.3403125 2.25 0.6875 C2.25 1.6775 2.25 2.6675 2.25 3.6875 C0.93 4.0175 -0.39 4.3475 -1.75 4.6875 C-0.1 5.6775 1.55 6.6675 3.25 7.6875 C2.92 9.6675 2.59 11.6475 2.25 13.6875 C-4.5 14.8125 -4.5 14.8125 -6.75 13.6875 C-6.75 12.6975 -6.75 11.7075 -6.75 10.6875 C-5.1 10.3575 -3.45 10.0275 -1.75 9.6875 C-2.389375 9.460625 -3.02875 9.23375 -3.6875 9 C-5.75 7.6875 -5.75 7.6875 -6.5 5.0625 C-6.5825 4.27875 -6.665 3.495 -6.75 2.6875 C-4.29511132 0.41445492 -3.41240272 -0.38777304 0 0 Z " fill="#C0DFDC" transform="translate(110.75,289.3125)"/>
<path d="M0 0 C0.928125 0.20625 1.85625 0.4125 2.8125 0.625 C2.8125 1.615 2.8125 2.605 2.8125 3.625 C1.4925 3.955 0.1725 4.285 -1.1875 4.625 C0.1325 5.285 1.4525 5.945 2.8125 6.625 C3 9.5 3 9.5 2.8125 12.625 C-0.1875 14.625 -0.1875 14.625 -3.375 14.25 C-4.7671875 13.940625 -4.7671875 13.940625 -6.1875 13.625 C-6.1875 12.635 -6.1875 11.645 -6.1875 10.625 C-4.8675 10.295 -3.5475 9.965 -2.1875 9.625 C-3.1775 9.0371875 -3.1775 9.0371875 -4.1875 8.4375 C-6.1875 6.625 -6.1875 6.625 -6.625 4.0625 C-6.480625 3.258125 -6.33625 2.45375 -6.1875 1.625 C-3.1875 -0.375 -3.1875 -0.375 0 0 Z " fill="#A1CEC7" transform="translate(98.1875,289.375)"/>
<path d="M0 0 C7.50769231 -0.36923077 7.50769231 -0.36923077 10 1.5 C10.495 2.2425 10.495 2.2425 11 3 C10.25 5.4375 10.25 5.4375 9 8 C7.66666667 8.33333333 6.33333333 8.66666667 5 9 C3.70339566 11.49034386 3.70339566 11.49034386 3 14 C2.01 13.67 1.02 13.34 0 13 C0 8.71 0 4.42 0 0 Z M4 3 C4 3.66 4 4.32 4 5 C4.66 5 5.32 5 6 5 C6 4.34 6 3.68 6 3 C5.34 3 4.68 3 4 3 Z " fill="#93C6C1" transform="translate(132,290)"/>
<path d="M0 0 C2 3 2 3 1.6875 5.125 C1 7 1 7 0 8 C-1.66617115 8.04063832 -3.33388095 8.042721 -5 8 C-5 9.65 -5 11.3 -5 13 C-6.32 13 -7.64 13 -9 13 C-9 8.71 -9 4.42 -9 0 C-5.85135005 -1.57432497 -3.35512575 -0.71895552 0 0 Z M-5 3 C-5 3.66 -5 4.32 -5 5 C-4.01 5 -3.02 5 -2 5 C-2 4.34 -2 3.68 -2 3 C-2.99 3 -3.98 3 -5 3 Z " fill="#93C6C1" transform="translate(74,290)"/>
<path d="M0 0 C0.99 0 1.98 0 3 0 C3.33 3.3 3.66 6.6 4 10 C4.99 10.33 5.98 10.66 7 11 C7.33 7.37 7.66 3.74 8 0 C8.99 0.33 9.98 0.66 11 1 C11.46174617 9.00360036 11.46174617 9.00360036 9.8125 12.5625 C8 14 8 14 5.5 14.4375 C2.51787165 13.91562754 1.78559766 13.40824122 0 11 C-0.29296875 8.30078125 -0.29296875 8.30078125 -0.1875 5.3125 C-0.16042969 4.31863281 -0.13335937 3.32476562 -0.10546875 2.30078125 C-0.07066406 1.54152344 -0.03585938 0.78226562 0 0 Z " fill="#B4B4B4" transform="translate(126,260)"/>
<path d="M0 0 C0.33 1.32 0.66 2.64 1 4 C-0.98 4 -2.96 4 -5 4 C-5.33 5.65 -5.66 7.3 -6 9 C-3.10765685 9.82638376 -1.11257569 10 2 10 C1.67 10.99 1.34 11.98 1 13 C-2.25 13.75 -2.25 13.75 -6 14 C-8.4375 12.4375 -8.4375 12.4375 -10 10 C-10.61195145 6.3282913 -10.48706506 4.71186432 -8.375 1.625 C-5.3962104 -0.4131192 -3.53677664 -0.32152515 0 0 Z " fill="#AAAAAA" transform="translate(114,260)"/>
<path d="M0 0 C0.66 0.33 1.32 0.66 2 1 C0.68 2.32 -0.64 3.64 -2 5 C-0.68 5.33 0.64 5.66 2 6 C1.45730469 6.44730469 0.91460937 6.89460938 0.35546875 7.35546875 C-5.2299998 12.07544127 -8.43702815 16.09969118 -11 23 C-11.66 23 -12.32 23 -13 23 C-12.37226785 13.16552966 -7.16030435 6.41744857 0 0 Z " fill="#9CC9C7" transform="translate(118,102)"/>
<path d="M0 0 C0.33 1.32 0.66 2.64 1 4 C-0.32 4 -1.64 4 -3 4 C-3 7.3 -3 10.6 -3 14 C-3.99 14 -4.98 14 -6 14 C-7 13 -7 13 -7.09765625 11.15234375 C-7.06510417 9.1015625 -7.03255208 7.05078125 -7 5 C-7.99 4.67 -8.98 4.34 -10 4 C-10 3.01 -10 2.02 -10 1 C-6.52674819 -0.1577506 -3.63932552 -0.06866652 0 0 Z " fill="#98C9C4" transform="translate(184,289)"/>
<path d="M0 0 C2.94897721 2.74559948 5.26205705 5.34117274 7 9 C6.6875 11.3125 6.6875 11.3125 6 13 C1.428721 12.45144652 -2.67435795 11.58255197 -7 10 C-7 8.68 -7 7.36 -7 6 C-4.36 6.33 -1.72 6.66 1 7 C0.67 4.69 0.34 2.38 0 0 Z M-6 7 C-5.67 7.99 -5.34 8.98 -5 10 C-3.68 9.67 -2.36 9.34 -1 9 C-3.475 8.01 -3.475 8.01 -6 7 Z " fill="#767676" transform="translate(189,87)"/>
<path d="M0 0 C2.9719385 1.12451727 5.33440687 2.22293791 8 4 C4.375 7 4.375 7 1 7 C1.33 8.98 1.66 10.96 2 13 C-0.97 13 -3.94 13 -7 13 C-7 15.31 -7 17.62 -7 20 C-8.125 18.3125 -8.125 18.3125 -9 16 C-8.125 13.25 -8.125 13.25 -7 11 C-4.36 11.33 -1.72 11.66 1 12 C0.67 11.34 0.34 10.68 0 10 C-0.99 9.67 -1.98 9.34 -3 9 C-3 8.01 -3 7.02 -3 6 C-4.32 5.34 -5.64 4.68 -7 4 C-6.34 3.67 -5.68 3.34 -5 3 C-5 2.34 -5 1.68 -5 1 C-4.01 1 -3.02 1 -2 1 C-2.33 2.32 -2.66 3.64 -3 5 C-0.69 5 1.62 5 4 5 C4 4.34 4 3.68 4 3 C2.68 2.34 1.36 1.68 0 1 C0 0.67 0 0.34 0 0 Z " fill="#C1C7C7" transform="translate(149,78)"/>
<path d="M0 0 C2.97 0.495 2.97 0.495 6 1 C5.5317879 5.77576339 4.75668002 9.04476345 2 13 C1.01 12.67 0.02 12.34 -1 12 C-1 11.01 -1 10.02 -1 9 C-1.94875 9.515625 -2.8975 10.03125 -3.875 10.5625 C-4.90625 11.036875 -5.9375 11.51125 -7 12 C-7.66 11.67 -8.32 11.34 -9 11 C-8.195625 10.7525 -7.39125 10.505 -6.5625 10.25 C-3.828919 9.27761141 -3.828919 9.27761141 -3.1875 6.875 C-3.125625 6.25625 -3.06375 5.6375 -3 5 C-0.69 5.33 1.62 5.66 4 6 C4 5.01 4 4.02 4 3 C2.35 3.33 0.7 3.66 -1 4 C-0.67 2.68 -0.34 1.36 0 0 Z " fill="#6EB6B0" transform="translate(129,95)"/>
<path d="M0 0 C3.82783815 1.55948962 6.11094313 4.11094313 9 7 C9.66 7 10.32 7 11 7 C11.99 7.33 12.98 7.66 14 8 C14 8.99 14 9.98 14 11 C12.68 11.33 11.36 11.66 10 12 C9.34 11.01 8.68 10.02 8 9 C6.68 9.33 5.36 9.66 4 10 C4 9.01 4 8.02 4 7 C3.21625 6.731875 2.4325 6.46375 1.625 6.1875 C-1 5 -1 5 -3 2 C-2.01 2 -1.02 2 0 2 C0 1.34 0 0.68 0 0 Z " fill="#B0B0B0" transform="translate(166,90)"/>
<path d="M0 0 C0.99 0 1.98 0 3 0 C3 0.66 3 1.32 3 2 C4.32 1.67 5.64 1.34 7 1 C2.47638779 6.15721262 -5.32765375 8.41979598 -12 9 C-14.72018291 9.15910504 -17.26292668 9.13685367 -20 9 C-20.66 8.34 -21.32 7.68 -22 7 C-20.92878906 6.95101563 -19.85757813 6.90203125 -18.75390625 6.8515625 C-17.35674361 6.77654706 -15.9596095 6.7009987 -14.5625 6.625 C-13.85544922 6.5940625 -13.14839844 6.563125 -12.41992188 6.53125 C-10.60760812 6.42719371 -8.80182012 6.22080108 -7 6 C-6.67 5.34 -6.34 4.68 -6 4 C-4.68 4 -3.36 4 -2 4 C-1.34 2.68 -0.68 1.36 0 0 Z " fill="#8CC6C1" transform="translate(223,314)"/>
<path d="M0 0 C3.9368866 5.9053299 5.14068845 12.98415277 4 20 C2.48046875 21.796875 2.48046875 21.796875 1 23 C1.33 23.33 1.66 23.66 2 24 C2.30867281 27.47256915 2.38701339 29.3872288 0.5 32.375 C0.005 32.91125 -0.49 33.4475 -1 34 C-0.34 31.03 0.32 28.06 1 25 C-0.32 25 -1.64 25 -3 25 C-2 22 -2 22 0 20.8125 C3.12329153 17.98201705 2.72988777 15.11921158 3 11 C2.01 11 1.02 11 0 11 C-1.125 6.25 -1.125 6.25 0 4 C0 2.68 0 1.36 0 0 Z " fill="#D2D2D2" transform="translate(200,107)"/>
<path d="M0 0 C0 0.66 0 1.32 0 2 C-1.2065625 2.433125 -1.2065625 2.433125 -2.4375 2.875 C-5.1326468 3.73262568 -5.1326468 3.73262568 -6 6 C-7.32 5.67 -8.64 5.34 -10 5 C-9.34 5 -8.68 5 -8 5 C-7.67 4.01 -7.34 3.02 -7 2 C-19.36634982 1.37345002 -19.36634982 1.37345002 -30.984375 5.22265625 C-33.41207078 6.15891877 -34.59017932 5.86297633 -37 5 C-25.15713375 -1.47656748 -13.11137906 -0.52099257 0 0 Z " fill="#C1C1C1" transform="translate(136,58)"/>
<path d="M0 0 C0.99 0.33 1.98 0.66 3 1 C3 4.3 3 7.6 3 11 C4.65 11 6.3 11 8 11 C8 11.99 8 12.98 8 14 C5.36 14 2.72 14 0 14 C0 9.38 0 4.76 0 0 Z " fill="#B0B0B0" transform="translate(117,260)"/>
<path d="M0 0 C2.64 0 5.28 0 8 0 C8 0.33 8 0.66 8 1 C5.69 1 3.38 1 1 1 C1 4.63 1 8.26 1 12 C1.66 12 2.32 12 3 12 C3 10.68 3 9.36 3 8 C4.65 7.67 6.3 7.34 8 7 C10 10 10 10 10 14 C6.125 12.125 6.125 12.125 5 11 C4.01 12.485 4.01 12.485 3 14 C2.01 13.67 1.02 13.34 0 13 C0 8.71 0 4.42 0 0 Z " fill="#D1E5E4" transform="translate(162,290)"/>
<path d="M0 0 C0.78375 0.04125 1.5675 0.0825 2.375 0.125 C2.045 1.115 1.715 2.105 1.375 3.125 C0.715 3.125 0.055 3.125 -0.625 3.125 C-0.295 4.775 0.035 6.425 0.375 8.125 C-1.61067708 8.05989583 -3.59635417 7.99479167 -5.58203125 7.9296875 C-7.93859719 7.99245538 -7.93859719 7.99245538 -10.625 10.125 C-9.965 8.805 -9.305 7.485 -8.625 6.125 C-7.965 6.125 -7.305 6.125 -6.625 6.125 C-6.33625 5.50625 -6.0475 4.8875 -5.75 4.25 C-4.16515329 1.25640067 -3.47581022 0.16551477 0 0 Z " fill="#BDBDBD" transform="translate(86.625,73.875)"/>
<path d="M0 0 C2.64 0 5.28 0 8 0 C8 0.33 8 0.66 8 1 C6.02 1 4.04 1 2 1 C2 2.32 2 3.64 2 5 C3.65 5 5.3 5 7 5 C7 5.33 7 5.66 7 6 C5.35 6 3.7 6 2 6 C2 7.32 2 8.64 2 10 C3.98 10 5.96 10 8 10 C8 10.66 8 11.32 8 12 C5.36 12 2.72 12 0 12 C0 8.04 0 4.08 0 0 Z " fill="#51A59C" transform="translate(188,291)"/>
<path d="M0 0 C1.11375 0.3403125 1.11375 0.3403125 2.25 0.6875 C2.25 1.6775 2.25 2.6675 2.25 3.6875 C0.93 4.0175 -0.39 4.3475 -1.75 4.6875 C-1.42 5.6775 -1.09 6.6675 -0.75 7.6875 C-2.4 7.6875 -4.05 7.6875 -5.75 7.6875 C-6.08 6.0375 -6.41 4.3875 -6.75 2.6875 C-4.29511132 0.41445492 -3.41240272 -0.38777304 0 0 Z " fill="#94C6C1" transform="translate(110.75,289.3125)"/>
<path d="M0 0 C1.32 0 2.64 0 4 0 C4.99 2.97 5.98 5.94 7 9 C0.25 8.125 0.25 8.125 -2 7 C-1.125 2.25 -1.125 2.25 0 0 Z " fill="#9DCBC7" transform="translate(81,290)"/>
<path d="M0 0 C1.65 0 3.3 0 5 0 C5.1875 2.875 5.1875 2.875 5 6 C2 8 2 8 -1.1875 7.625 C-2.115625 7.41875 -3.04375 7.2125 -4 7 C-4 6.01 -4 5.02 -4 4 C-2.02 4 -0.04 4 2 4 C2 3.01 2 2.02 2 1 C1.34 0.67 0.68 0.34 0 0 Z " fill="#77B7B1" transform="translate(96,296)"/>
<path d="M0 0 C0.98120464 3.05263664 0.98120464 4.94736336 0 8 C1.32 8 2.64 8 4 8 C4.33 7.01 4.66 6.02 5 5 C6.53445094 8.06890187 5.54984289 10.70094266 5 14 C4.34 14 3.68 14 3 14 C2.34 13.01 1.68 12.02 1 11 C0.01 11 -0.98 11 -2 11 C-1.125 3.375 -1.125 3.375 0 0 Z " fill="#B8B8B8" transform="translate(65,102)"/>
<path d="M0 0 C-0.33 0.99 -0.66 1.98 -1 3 C-5.71599818 3.92470553 -8.67265609 4.22923777 -13 2 C-13 1.34 -13 0.68 -13 0 C-4.57142857 -1.28571429 -4.57142857 -1.28571429 0 0 Z " fill="#AAAAAA" transform="translate(136,68)"/>
<path d="M0 0 C0.33 1.32 0.66 2.64 1 4 C0.071875 3.979375 -0.85625 3.95875 -1.8125 3.9375 C-5.02286011 3.84230396 -5.02286011 3.84230396 -8 5 C-8.73323796 7.01508358 -8.73323796 7.01508358 -9 9 C-9.1875 5.625 -9.1875 5.625 -9 2 C-5.5647952 -0.29013653 -4.014669 -0.17842973 0 0 Z " fill="#A3A3A3" transform="translate(114,260)"/>
<path d="M0 0 C0.66 0.33 1.32 0.66 2 1 C1.67 1.66 1.34 2.32 1 3 C2.32 3 3.64 3 5 3 C5.33 2.34 5.66 1.68 6 1 C6 1.99 6 2.98 6 4 C4.02 4 2.04 4 0 4 C-0.33 4.99 -0.66 5.98 -1 7 C-1.99 7.33 -2.98 7.66 -4 8 C-4.33 6.02 -4.66 4.04 -5 2 C-2.625 0.9375 -2.625 0.9375 0 0 Z " fill="#C3C3C3" transform="translate(87,86)"/>
<path d="M0 0 C1.65 0 3.3 0 5 0 C4.67 1.65 4.34 3.3 4 5 C4.66 5 5.32 5 6 5 C6 6.65 6 8.3 6 10 C5.67 9.34 5.34 8.68 5 8 C4.01 8 3.02 8 2 8 C-0.1519437 4.77208445 -0.20086443 3.71599191 0 0 Z " fill="#4B4B4B" transform="translate(61,120)"/>
<path d="M0 0 C1.32 0.33 2.64 0.66 4 1 C3.835 1.804375 3.67 2.60875 3.5 3.4375 C2.31899898 10.93905516 2.31899898 10.93905516 4.07421875 18.0859375 C5 20 5 20 4 23 C1.30545912 18.19668799 -0.70323865 13.60058189 0.390625 8 C0.86624073 6.31496142 1.42611078 4.65415129 2 3 C1.34 3 0.68 3 0 3 C0 2.01 0 1.02 0 0 Z " fill="#BBBBBB" transform="translate(68,131)"/>
<path d="M0 0 C-0.33 1.32 -0.66 2.64 -1 4 C-0.34 4 0.32 4 1 4 C0.67 5.32 0.34 6.64 0 8 C-2.64 8 -5.28 8 -8 8 C-8.33 7.34 -8.66 6.68 -9 6 C-7.68 6 -6.36 6 -5 6 C-4.814375 4.7934375 -4.814375 4.7934375 -4.625 3.5625 C-4.41875 2.716875 -4.2125 1.87125 -4 1 C-2 0 -2 0 0 0 Z M-3 2 C-2 4 -2 4 -2 4 Z M-4 5 C-4 5.66 -4 6.32 -4 7 C-2.68 6.67 -1.36 6.34 0 6 C-1.32 5.67 -2.64 5.34 -4 5 Z " fill="#CECECE" transform="translate(173,74)"/>
<path d="M0 0 C0.66 0.33 1.32 0.66 2 1 C2.4140625 3.50390625 2.4140625 3.50390625 2.625 6.5625 C2.69976562 7.57441406 2.77453125 8.58632812 2.8515625 9.62890625 C2.92503906 10.80259766 2.92503906 10.80259766 3 12 C4.65 11.67 6.3 11.34 8 11 C7.67 11.66 7.34 12.32 7 13 C5.68 13 4.36 13 3 13 C2.67 13.66 2.34 14.32 2 15 C1.34 14.34 0.68 13.68 0 13 C0.66666667 11 1.33333333 9 2 7 C1.34 7 0.68 7 0 7 C-0.38133299 5.0085944 -0.71325582 3.00720923 -1 1 C-0.67 0.67 -0.34 0.34 0 0 Z " fill="#CDCDCD" transform="translate(65,118)"/>
<path d="M0 0 C3 2 3 2 3.6875 4.125 C3.8421875 5.053125 3.8421875 5.053125 4 6 C4.66 6 5.32 6 6 6 C6.33 5.34 6.66 4.68 7 4 C7.33 5.32 7.66 6.64 8 8 C5.29120665 9.35439668 2.99066732 9.06501451 0 9 C0 6.03 0 3.06 0 0 Z " fill="#CFCFCF" transform="translate(123,276)"/>
<path d="M0 0 C0.99 0.33 1.98 0.66 3 1 C3 3.97 3 6.94 3 10 C2.01 10.33 1.02 10.66 0 11 C0 7.37 0 3.74 0 0 Z " fill="#A8A8A8" transform="translate(134,260)"/>
<path d="M0 0 C0.99 0.33 1.98 0.66 3 1 C2.57742724 2.4835001 2.13643678 3.96176424 1.6875 5.4375 C1.44386719 6.26121094 1.20023437 7.08492188 0.94921875 7.93359375 C0.63597656 8.61550781 0.32273437 9.29742187 0 10 C-0.99 10.33 -1.98 10.66 -3 11 C-2.53199289 6.94393835 -2.12046792 3.53411321 0 0 Z " fill="#D4E5E4" transform="translate(108,114)"/>
<path d="M0 0 C6.48979592 0.48979592 6.48979592 0.48979592 8.9375 2.9375 C10 5 10 5 10 7 C5.545 6.01 5.545 6.01 1 5 C0.67 3.35 0.34 1.7 0 0 Z M1 1 C1.33 1.99 1.66 2.98 2 4 C3.32 3.67 4.64 3.34 6 3 C3.525 2.01 3.525 2.01 1 1 Z " fill="#C6C6C6" transform="translate(182,93)"/>
<path d="M0 0 C0.93423645 3.01031744 1.04449911 3.86650268 0 7 C-0.99 7 -1.98 7 -3 7 C-3 8.98 -3 10.96 -3 13 C-4.32 13 -5.64 13 -7 13 C-5.125 7.25 -5.125 7.25 -4 5 C-3.01 5 -2.02 5 -1 5 C-0.67 3.35 -0.34 1.7 0 0 Z " fill="#AEAEAE" transform="translate(75,84)"/>
<path d="M0 0 C3 1 3 1 5 4 C6.32 3.67 7.64 3.34 9 3 C9.33 4.32 9.66 5.64 10 7 C7.75 7.75 7.75 7.75 5 8 C2.48113531 6.11085148 1.24840861 4.74522583 0.25 1.75 C0.1675 1.1725 0.085 0.595 0 0 Z " fill="#C9C9C9" transform="translate(171,94)"/>
<path d="M0 0 C0.33 0.99 0.66 1.98 1 3 C3.86724686 2.42655063 4.8614515 2.1385485 7 0 C6.67 1.32 6.34 2.64 6 4 C4.35 4.33 2.7 4.66 1 5 C1 6.32 1 7.64 1 9 C0.34 9 -0.32 9 -1 9 C-1.125 2.25 -1.125 2.25 0 0 Z " fill="#44A298" transform="translate(164,293)"/>
<path d="M0 0 C3.3 0 6.6 0 10 0 C10 0.66 10 1.32 10 2 C8.7934375 2.433125 8.7934375 2.433125 7.5625 2.875 C4.8673532 3.73262568 4.8673532 3.73262568 4 6 C2.68 5.67 1.36 5.34 0 5 C0.66 5 1.32 5 2 5 C2.33 4.01 2.66 3.02 3 2 C2.01 1.34 1.02 0.68 0 0 Z " fill="#D5D5D5" transform="translate(126,58)"/>
<path d="M0 0 C0.33 0 0.66 0 1 0 C1.66 1.98 2.32 3.96 3 6 C5.97 6.495 5.97 6.495 9 7 C8.67 7.99 8.34 8.98 8 10 C5.125 9.6875 5.125 9.6875 2 9 C-0.29013653 5.5647952 -0.17842973 4.014669 0 0 Z " fill="#63AEA5" transform="translate(146,294)"/>
<path d="M0 0 C0.33 1.32 0.66 2.64 1 4 C3.31 4 5.62 4 8 4 C7.67 4.66 7.34 5.32 7 6 C5.35 5.67 3.7 5.34 2 5 C1.67 5.99 1.34 6.98 1 8 C0.01 7.67 -0.98 7.34 -2 7 C-1.34 4.69 -0.68 2.38 0 0 Z " fill="#BDDDD9" transform="translate(118,296)"/>
<path d="M0 0 C0.66 0.33 1.32 0.66 2 1 C2 2.65 2 4.3 2 6 C-0.31 6.33 -2.62 6.66 -5 7 C-5 6.01 -5 5.02 -5 4 C-3.35 4 -1.7 4 0 4 C0 2.68 0 1.36 0 0 Z " fill="#7EBAB7" transform="translate(111,297)"/>
<path d="M0 0 C2.49361571 1.20381448 4.68143083 2.45428722 7 4 C7 4.66 7 5.32 7 6 C4.69 6 2.38 6 0 6 C0 4.02 0 2.04 0 0 Z " fill="#4B4B4B" transform="translate(146,77)"/>
<path d="M0 0 C0.66 0 1.32 0 2 0 C2.66 2.64 3.32 5.28 4 8 C2.02 8.99 2.02 8.99 0 10 C0 9.67 0 9.34 0 9 C-1.65 8.67 -3.3 8.34 -5 8 C-5 7.67 -5 7.34 -5 7 C-3.35 6.67 -1.7 6.34 0 6 C0 4.02 0 2.04 0 0 Z " fill="#A6D1CD" transform="translate(154,293)"/>
<path d="M0 0 C2.97 0.495 2.97 0.495 6 1 C5.74438677 3.3431213 5.40729228 5.67843403 5 8 C4.01 8.495 4.01 8.495 3 9 C3.33 7.02 3.66 5.04 4 3 C2.35 3.33 0.7 3.66 -1 4 C-0.67 2.68 -0.34 1.36 0 0 Z " fill="#80BFBB" transform="translate(129,95)"/>
<path d="M0 0 C0.33 0.99 0.66 1.98 1 3 C2.65 2.67 4.3 2.34 6 2 C6.66 3.65 7.32 5.3 8 7 C7.34 7 6.68 7 6 7 C6 6.34 6 5.68 6 5 C3.69 5 1.38 5 -1 5 C-0.67 3.35 -0.34 1.7 0 0 Z " fill="#46A296" transform="translate(120,295)"/>
<path d="M0 0 C0.66 0 1.32 0 2 0 C4 3 4 3 4 7 C2.0625 6.25 2.0625 6.25 0 5 C-0.8125 2.9375 -0.8125 2.9375 -1 1 C-0.67 0.67 -0.34 0.34 0 0 Z " fill="#9DCAC6" transform="translate(168,297)"/>
<path d="M0 0 C0.33 0.66 0.66 1.32 1 2 C-0.25 3.5 -0.25 3.5 -2 5 C-3.32 5 -4.64 5 -6 5 C-6 6.32 -6 7.64 -6 9 C-7.32 8.34 -8.64 7.68 -10 7 C-9.01 6.67 -8.02 6.34 -7 6 C-7 5.34 -7 4.68 -7 4 C-5.68 4 -4.36 4 -3 4 C-3 3.01 -3 2.02 -3 1 C-2.01 0.67 -1.02 0.34 0 0 Z " fill="#D6D6D6" transform="translate(95,177)"/>
<path d="M0 0 C1.32 0.33 2.64 0.66 4 1 C4.33 2.98 4.66 4.96 5 7 C3.68 7 2.36 7 1 7 C0.67 4.69 0.34 2.38 0 0 Z " fill="#7B7B7B" transform="translate(87,82)"/>
<path d="M0 0 C1.98 0 3.96 0 6 0 C6 1.32 6 2.64 6 4 C3.03 3.505 3.03 3.505 0 3 C0 2.01 0 1.02 0 0 Z " fill="#A4CFC9" transform="translate(92,300)"/>
<path d="M0 0 C2.79872437 2.52788007 4.45773019 4.20411134 5 8 C3.68 8 2.36 8 1 8 C0.67 5.36 0.34 2.72 0 0 Z " fill="#85C0BB" transform="translate(85,295)"/>
<path d="M0 0 C0.66 0 1.32 0 2 0 C4.17364926 2.81769349 5.08677021 4.2190681 4.6875 7.8125 C4.460625 8.534375 4.23375 9.25625 4 10 C2.26337666 6.77484237 1.1094072 3.48670834 0 0 Z " fill="#C7C7C7" transform="translate(189,113)"/>
<path d="M0 0 C0.66 0.33 1.32 0.66 2 1 C1.01 1.33 0.02 1.66 -1 2 C-1.33 4.64 -1.66 7.28 -2 10 C-2.33 8.68 -2.66 7.36 -3 6 C-3.66 6 -4.32 6 -5 6 C-5 5.01 -5 4.02 -5 3 C-2.625 1.25 -2.625 1.25 0 0 Z " fill="#BDBDBD" transform="translate(97,64)"/>
<path d="M0 0 C1.5 1.1875 1.5 1.1875 3 3 C3.1875 5.6875 3.1875 5.6875 3 8 C2.01 7.67 1.02 7.34 0 7 C0 4.69 0 2.38 0 0 Z " fill="#88C2BD" transform="translate(156,291)"/>
<path d="M0 0 C0.66 0.99 1.32 1.98 2 3 C4.05925139 3.72382467 4.05925139 3.72382467 6 4 C6 4.66 6 5.32 6 6 C4.02 6 2.04 6 0 6 C-1 3 -1 3 0 0 Z " fill="#BEBEBE" transform="translate(133,279)"/>
<path d="M0 0 C-0.33 0.99 -0.66 1.98 -1 3 C-3.31 3.33 -5.62 3.66 -8 4 C-7.67 3.01 -7.34 2.02 -7 1 C-4 0 -4 0 0 0 Z " fill="#C6C6C6" transform="translate(116,270)"/>
<path d="M0 0 C2.4294516 3.6441774 2.16179575 5.71241272 2 10 C1.01 10.495 1.01 10.495 0 11 C-1.125 6.25 -1.125 6.25 0 4 C0 2.68 0 1.36 0 0 Z " fill="#BABABA" transform="translate(200,107)"/>
<path d="M0 0 C2.97 0.495 2.97 0.495 6 1 C4.68 2.65 3.36 4.3 2 6 C0 3 0 3 0 0 Z " fill="#AFD5D1" transform="translate(123,93)"/>
<path d="M0 0 C0.99 0 1.98 0 3 0 C3.33 2.64 3.66 5.28 4 8 C3.34 8 2.68 8 2 8 C-0.1519437 4.77208445 -0.20086443 3.71599191 0 0 Z " fill="#CECECE" transform="translate(61,120)"/>
<path d="" fill="#FFFFFF" transform="translate(0,0)"/>
<path d="" fill="#FFFFFF" transform="translate(0,0)"/>
<path d="" fill="#FFFFFF" transform="translate(0,0)"/>
<path d="" fill="#FFFFFF" transform="translate(0,0)"/>
<path d="" fill="#FFFFFF" transform="translate(0,0)"/>
<path d="" fill="#FFFFFF" transform="translate(0,0)"/>
</svg>
