<?xml version="1.0" encoding="UTF-8"?>
<svg version="1.1" xmlns="http://www.w3.org/2000/svg" width="579" height="340">
<path d="M0 0 C2.56040194 0.01849823 5.12044574 0.0205075 7.6809082 0.02026367 C9.31046864 0.02517141 10.94002663 0.03099646 12.56958008 0.0378418 C13.33407974 0.03895462 14.09857941 0.04006744 14.88624573 0.04121399 C20.23960507 0.08965117 20.23960507 0.08965117 22.47192383 1.20581055 C23.39686332 15.83355734 21.41902741 32.20225769 14.47192383 45.20581055 C14.02977539 46.08366211 13.58762695 46.96151367 13.13208008 47.8659668 C8.52286877 56.33108341 1.20942498 63.88431321 -8.07885742 67.0847168 C-13.24366371 68.36313419 -18.28971734 69.33765578 -23.57788086 69.87060547 C-34.41411325 70.96825207 -42.86717355 74.21691822 -50.52807617 82.20581055 C-52.01303826 85.17573472 -51.68100623 88.20559543 -51.68579102 91.46264648 C-51.69087173 92.21098251 -51.69595245 92.95931854 -51.70118713 93.73033142 C-51.71190437 95.36015393 -51.72051922 96.98999128 -51.72730637 98.6198349 C-51.73911074 101.21149798 -51.75857442 103.80299555 -51.78042603 106.39459229 C-51.84194099 113.76536409 -51.89579197 121.13612442 -51.92944336 128.50708008 C-51.95058083 133.01588342 -51.98604789 137.52439362 -52.03020096 142.03302765 C-52.04422816 143.74073036 -52.05305287 145.44848505 -52.05625534 147.15624237 C-52.10027147 168.40851555 -56.32887533 186.19259297 -71.74291992 201.61987305 C-87.03081691 215.81424585 -106.00285379 222.31708181 -126.65307617 221.58862305 C-145.15778764 220.43750837 -160.76137329 211.66245735 -173.27807617 198.33081055 C-186.03572164 183.57416781 -191.65899498 165.67917539 -190.32714844 146.2487793 C-188.38681295 126.40890892 -177.52937211 110.62859604 -162.77807617 97.89331055 C-148.71447505 87.26255694 -131.85588189 82.89098714 -114.37182617 84.5534668 C-107.88202969 85.65488551 -101.68779765 87.56371621 -95.43554688 89.58935547 C-82.49580714 93.77121171 -71.5337923 92.59007407 -58.8996582 87.84228516 C-56.44826364 86.40320925 -55.66789802 85.70242482 -54.88856506 82.93441772 C-54.65084457 79.92843746 -54.63801952 76.99028611 -54.69604492 73.9753418 C-54.68849686 72.87034836 -54.68094879 71.76535492 -54.673172 70.62687683 C-54.65463663 67.08986437 -54.68311008 63.55519089 -54.71557617 60.01831055 C-54.72160215 56.49986487 -54.71772326 52.98172744 -54.704422 49.46330261 C-54.69897116 47.27507353 -54.70602963 45.08676557 -54.72758484 42.89863586 C-54.76150286 30.35479693 -51.93497861 20.92643086 -43.40307617 11.45581055 C-31.16656275 0.05482998 -15.68994979 -0.1176708 0 0 Z " fill="#52C4D2" transform="translate(556.528076171875,-0.205810546875)"/>
<path d="M0 0 C0.00238835 0.54353024 0.00477671 1.08706049 0.00723743 1.64706135 C0.06635103 14.86704021 0.14206708 28.08683397 0.23571491 41.30661488 C0.28049849 47.69959574 0.31973698 54.0925117 0.34643555 60.4855957 C0.37238881 66.65188972 0.41273449 72.81793499 0.46318626 78.98407555 C0.47990906 81.34003297 0.49138949 83.69603346 0.49761391 86.05204201 C0.50719612 89.3446135 0.53518511 92.63654079 0.56762695 95.92895508 C0.56619186 96.90934753 0.56475677 97.88973999 0.5632782 98.89984131 C0.57581635 99.79586563 0.58835449 100.69188995 0.60127258 101.61506653 C0.60588155 102.3939816 0.61049051 103.17289667 0.61523914 103.97541523 C1.10461858 106.55049566 1.94828221 107.40998965 4 109 C5.485 109.495 5.485 109.495 7 110 C7 114.95 7 119.9 7 125 C2.6454613 127.17726935 -3.48713412 126.58236125 -8.140625 125.50390625 C-12.2924046 123.90637367 -14.50982715 121.59691634 -17 118 C-17.99 117.01 -17.99 117.01 -19 116 C-19.70962891 116.70576172 -19.70962891 116.70576172 -20.43359375 117.42578125 C-28.19570198 124.73396503 -35.09744821 126.64130542 -45.72265625 126.34375 C-53.52574343 125.52530939 -60.43680494 122.76558129 -66.1484375 117.3125 C-76.09714433 104.88711088 -78.14877724 90.44221712 -77 75 C-75.50419381 64.78644836 -71.79455411 54.67866532 -64.09375 47.53515625 C-55.81162909 41.46263103 -46.15145133 38.9389726 -36 40 C-30.344018 41.51125445 -25.63362663 43.42036114 -21 47 C-20.98541748 46.00145996 -20.97083496 45.00291992 -20.95581055 43.97412109 C-20.89759932 40.25013394 -20.82036923 36.52673708 -20.73754883 32.80322266 C-20.70440637 31.1952476 -20.67634146 29.58715919 -20.65356445 27.97900391 C-20.61982033 25.65999295 -20.56749806 23.34201069 -20.51171875 21.0234375 C-20.50532883 20.31069672 -20.4989389 19.59795593 -20.49235535 18.86361694 C-20.33222673 13.36058588 -19.03194386 9.24881026 -15.31640625 5.13671875 C-14.73761719 4.65847656 -14.15882812 4.18023437 -13.5625 3.6875 C-12.98628906 3.19636719 -12.41007812 2.70523438 -11.81640625 2.19921875 C-8.02698908 -0.30261151 -4.43552039 -0.03212228 0 0 Z M-51.6875 63.625 C-57.60715494 71.45422105 -57.79588179 80.51394952 -57 90 C-55.70636198 97.06813817 -53.51097569 102.10860825 -47.875 106.75 C-42.28258201 109.18148608 -37.0309535 109.59929775 -31.1875 107.875 C-25.40633035 104.47431197 -21.81786101 100.50218372 -20 94 C-19.55098401 89.97187107 -19.5353866 85.98725672 -19.5625 81.9375 C-19.54251953 80.87466797 -19.52253906 79.81183594 -19.50195312 78.71679688 C-19.50659868 71.27925916 -20.38879626 67.71715592 -25.59765625 62.35546875 C-33.94478192 55.70002722 -44.00277951 56.11899394 -51.6875 63.625 Z " fill="#5CC7D5" transform="translate(77,214)"/>
<path d="M0 0 C2.56040194 0.01849823 5.12044574 0.0205075 7.6809082 0.02026367 C9.31046864 0.02517141 10.94002663 0.03099646 12.56958008 0.0378418 C13.33407974 0.03895462 14.09857941 0.04006744 14.88624573 0.04121399 C20.23960507 0.08965117 20.23960507 0.08965117 22.47192383 1.20581055 C23.39686332 15.83355734 21.41902741 32.20225769 14.47192383 45.20581055 C14.02977539 46.08366211 13.58762695 46.96151367 13.13208008 47.8659668 C8.52286877 56.33108341 1.20942498 63.88431321 -8.07885742 67.0847168 C-13.24366371 68.36313419 -18.28971734 69.33765578 -23.57788086 69.87060547 C-34.41411325 70.96825207 -42.86717355 74.21691822 -50.52807617 82.20581055 C-51.02307617 83.19581055 -51.02307617 83.19581055 -51.52807617 84.20581055 C-52.18807617 84.20581055 -52.84807617 84.20581055 -53.52807617 84.20581055 C-53.55357957 77.41057137 -53.57100711 70.61534469 -53.58300781 63.82006836 C-53.58801456 61.51179544 -53.59482192 59.20352565 -53.60351562 56.89526367 C-53.61574222 53.56387555 -53.62134122 50.23252963 -53.62573242 46.90112305 C-53.63089371 45.88092072 -53.63605499 44.86071838 -53.64137268 43.80960083 C-53.64239353 30.56069575 -52.51998864 21.62295558 -43.40307617 11.45581055 C-31.16656275 0.05482998 -15.68994979 -0.1176708 0 0 Z " fill="#BAD43B" transform="translate(556.528076171875,-0.205810546875)"/>
<path d="M0 0 C1.9375 1.75 1.9375 1.75 3 3 C3.0825 2.401875 3.165 1.80375 3.25 1.1875 C4.24526926 -1.71536869 5.376444 -2.44004778 8 -4 C12.13011624 -5.70591758 15.53616837 -6.31143011 20 -6 C21.82649688 -4.17350312 21.17270726 -1.28332493 21.20532227 1.17211914 C21.21522186 1.81600082 21.22512146 2.45988251 21.23532104 3.12327576 C21.26701528 5.26053131 21.29172449 7.39780913 21.31640625 9.53515625 C21.33696896 11.01346936 21.35796524 12.49177649 21.37937927 13.97007751 C21.43467059 17.86792171 21.48404857 21.76581958 21.53222656 25.66375732 C21.58239019 29.63851723 21.63810301 33.61319884 21.69335938 37.58789062 C21.80102724 45.39186085 21.90245287 53.19589602 22 61 C23.98 61.99 25.96 62.98 28 64 C28 68.62 28 73.24 28 78 C20.37042813 79.52591437 13.91328885 79.87818643 7 76 C4.38559859 73.31856265 3.18103469 71.54310408 2 68 C1.46375 68.7425 0.9275 69.485 0.375 70.25 C-4.14226428 75.48051653 -9.17730614 78.09993778 -16 79 C-26.78608995 79.77823687 -34.70371749 79.03132135 -43.1875 72.0625 C-51.81692021 63.80885547 -55.82964599 52.95582034 -56.30078125 41.16796875 C-56.32021049 39.5079216 -56.3237627 37.84762264 -56.3125 36.1875 C-56.30686035 35.3123877 -56.3012207 34.43727539 -56.29541016 33.53564453 C-56.05371984 20.59205123 -52.82339845 9.45149403 -43.4375 0.125 C-30.41730498 -10.42584768 -13.27186367 -8.66733954 0 0 Z M-32.3125 17.8125 C-37.0801868 26.81813062 -37.35993597 37.45530815 -35.3125 47.30859375 C-33.3854335 53.2262938 -31.27146752 56.66498993 -26 60 C-20.53167207 62.60267018 -15.82682846 62.40445794 -10 61 C-3.87824191 57.85487658 -1.04296623 52.34654685 1 46 C1.52762543 42.45713161 1.5621538 39.0139333 1.5 35.4375 C1.51546875 34.54353516 1.5309375 33.64957031 1.546875 32.72851562 C1.50434216 25.46071739 -0.38183218 20.3163459 -4.875 14.625 C-13.63558985 7.92572541 -25.48762916 9.51198141 -32.3125 17.8125 Z " fill="#5DC8D5" transform="translate(142,261)"/>
<path d="M0 0 C1.36125 1.11375 1.36125 1.11375 2.75 2.25 C3.245 1.486875 3.74 0.72375 4.25 -0.0625 C7.36142367 -3.40728045 10.3169465 -4.77977655 14.75 -5.75 C16.74990838 -5.76914309 18.75011002 -5.77097787 20.75 -5.75 C20.7654612 -4.55729744 20.7654612 -4.55729744 20.78123474 -3.34049988 C20.87917088 4.14915744 20.98167981 11.63873153 21.08933926 19.12825489 C21.14452767 22.97878482 21.19794113 26.82932241 21.24731445 30.67993164 C21.29501824 34.39526156 21.34736321 38.11049964 21.40294075 41.82571983 C21.42333705 43.24388024 21.44205463 44.66206581 21.45907402 46.08027077 C21.48317806 48.06504721 21.5137786 50.04974155 21.54467773 52.03442383 C21.56799416 53.72986076 21.56799416 53.72986076 21.59178162 55.45954895 C21.63252967 58.33428342 21.63252967 58.33428342 22.75 61.25 C24.4 61.91 26.05 62.57 27.75 63.25 C27.75 68.2 27.75 73.15 27.75 78.25 C20.48578601 80.0660535 14.41699931 80.04103882 7.75 76.25 C3.75 72.1474359 3.75 72.1474359 3.75 68.25 C3.13253906 68.79269531 2.51507813 69.33539063 1.87890625 69.89453125 C-6.84873401 77.2671954 -13.48624982 79.90618137 -24.96875 79.59765625 C-34.36831945 78.60174949 -41.692839 74.82837354 -47.64453125 67.54296875 C-55.82483166 55.80386696 -57.38392976 40.34942987 -55.5625 26.5 C-53.44047024 15.24221873 -50.10499844 6.90502201 -41.25 -0.75 C-28.30088903 -9.1073639 -12.74816686 -9.03960923 0 0 Z M-31.5 17.75 C-37.49344691 26.40195748 -36.89100667 37.24709903 -35.25 47.25 C-33.48566471 53.28134183 -29.79314306 58.19389451 -24.25 61.25 C-19.28673822 62.67035466 -15.37935126 62.58325119 -10.4375 61.125 C-4.65633035 57.72431197 -1.06786101 53.75218372 0.75 47.25 C1.19901599 43.22187107 1.2146134 39.23725672 1.1875 35.1875 C1.20748047 34.12466797 1.22746094 33.06183594 1.24804688 31.96679688 C1.24340132 24.52925916 0.36120374 20.96715592 -4.84765625 15.60546875 C-13.40372104 8.78343309 -24.26510619 9.26291303 -31.5 17.75 Z " fill="#5BC7D5" transform="translate(482.25,260.75)"/>
<path d="M0 0 C5.82926846 4.71271704 9.70763321 11.49621933 11.0625 18.8125 C11.65330784 25.1932247 10.63844279 31.42928169 6.69140625 36.61328125 C-0.84424351 43.89593558 -10.58883122 44.0641099 -20.5 44.125 C-21.81121826 44.13345947 -21.81121826 44.13345947 -23.14892578 44.14208984 C-29.27098947 44.07438567 -34.98109599 43.2079456 -40.9375 41.8125 C-37.78751067 53.25096613 -37.78751067 53.25096613 -28.9375 60.8125 C-22.5769501 62.9326833 -14.56350875 63.02987604 -8.4375 60.125 C-5.84992425 58.61376879 -4.34319391 57.20468695 -2.1875 55 C-1.445 54.278125 -0.7025 53.55625 0.0625 52.8125 C3.91034894 53.03695785 5.75071542 55.18512619 8.3125 57.875 C9.37210938 58.97521484 9.37210938 58.97521484 10.453125 60.09765625 C10.98421875 60.66355469 11.5153125 61.22945313 12.0625 61.8125 C9.7167866 68.71932278 4.39081677 72.77324329 -1.9375 76.125 C-12.74682886 80.96841081 -26.4354275 81.9027412 -37.69921875 77.8515625 C-48.33147782 72.9158192 -54.22294042 66.11454386 -58.95703125 55.55859375 C-63.16261373 43.77961174 -62.6518448 26.30476402 -57.9375 14.8125 C-52.83656791 4.34798619 -46.51349845 -0.80291093 -35.625 -4.5625 C-23.49371421 -7.91586355 -10.84456279 -6.87937023 0 0 Z M-37.1875 16 C-39.41663493 19.58253827 -40.09825777 22.6862257 -40.9375 26.8125 C-34.82613461 29.47083845 -29.88444687 30.28175418 -23.25 30.1875 C-22.42177734 30.19910156 -21.59355469 30.21070313 -20.74023438 30.22265625 C-15.53692129 30.19766035 -11.79570169 29.67070169 -7.9375 25.8125 C-7.50083855 22.0572115 -7.82285559 20.04637461 -9.5 16.625 C-13.01157575 12.57318183 -16.21183764 11.1235106 -21.40234375 10.53125 C-27.95434156 10.29478692 -32.35967724 11.30628343 -37.1875 16 Z " fill="#5DC8D5" transform="translate(296.9375,260.1875)"/>
<path d="M0 0 C0 8.25 0 16.5 0 25 C9.9 25 19.8 25 30 25 C30 30.61 30 36.22 30 42 C20.1 42 10.2 42 0 42 C0.07427837 47.2660804 0.15735532 52.53054817 0.26245117 57.79589844 C0.29555035 59.58422271 0.32362826 61.37264768 0.34643555 63.16113281 C0.38025956 65.74327199 0.43258623 68.32450076 0.48828125 70.90625 C0.49467117 71.69616333 0.5010611 72.48607666 0.50764465 73.29992676 C0.66072239 79.17879733 1.45510345 85.08938414 5.47749329 89.68981934 C8.41665915 92.21909441 12.26362205 92.0062273 16 92 C20.64647518 91.07070496 24.00715651 89.47176026 28 87 C29.0384211 88.71866217 30.05514635 90.45044598 31.0625 92.1875 C31.63097656 93.15042969 32.19945312 94.11335938 32.78515625 95.10546875 C34.1623778 98.3868873 34.29827408 99.71252485 33 103 C25.95367166 109.65104651 16.73673908 110.41842397 7.50390625 110.2421875 C-0.56126442 109.68472866 -6.43469891 107.60186214 -12.3125 101.94921875 C-19.32925445 93.84421766 -20.32057105 83.47114306 -20.1953125 73.15234375 C-20.1924826 72.25504044 -20.18965271 71.35773712 -20.18673706 70.4332428 C-20.17564979 67.60118586 -20.15056747 64.76945939 -20.125 61.9375 C-20.11495537 60.00325981 -20.10583213 58.06901461 -20.09765625 56.13476562 C-20.07574814 51.4230521 -20.04129901 46.71158184 -20 42 C-21.28197266 42.01740234 -21.28197266 42.01740234 -22.58984375 42.03515625 C-23.69457031 42.04417969 -24.79929688 42.05320312 -25.9375 42.0625 C-27.03964844 42.07410156 -28.14179688 42.08570313 -29.27734375 42.09765625 C-32 42 -32 42 -33 41 C-33.09975032 38.48863896 -33.13882183 36.01096585 -33.125 33.5 C-33.12886719 32.79746094 -33.13273438 32.09492188 -33.13671875 31.37109375 C-33.12661378 26.12661378 -33.12661378 26.12661378 -32 25 C-29.98035801 24.92755947 -27.95832876 24.91622812 -25.9375 24.9375 C-24.28041016 24.95103516 -24.28041016 24.95103516 -22.58984375 24.96484375 C-21.73519531 24.97644531 -20.88054687 24.98804688 -20 25 C-20.04640625 24.29875 -20.0928125 23.5975 -20.140625 22.875 C-20.39181573 16.27227223 -19.91969339 11.44115333 -16 6 C-12.5903506 2.39551349 -4.98561166 -2.49280583 0 0 Z " fill="#59C6D4" transform="translate(202,230)"/>
<path d="M0 0 C2.17966468 2.24377246 3.66807364 4.42700795 5.125 7.1875 C5.54910156 6.71699219 5.97320312 6.24648438 6.41015625 5.76171875 C12.78859546 -1.0092398 19.03793314 -3.69095582 28.375 -4.0625 C33.33440167 -4.02915948 37.5509016 -2.62916319 42.125 -0.8125 C40.36169612 5.01996669 38.56137562 9.97134352 33.1953125 13.35546875 C30.37775801 14.48780669 27.63207073 14.79363538 24.625 15.1875 C19.27010932 15.89497986 16.06557216 16.45432638 12.125 20.1875 C9.08996131 25.21101231 8.02018336 29.52263186 7.91967773 35.32324219 C7.89973251 36.34399841 7.87978729 37.36475464 7.85923767 38.41644287 C7.83416893 40.05881927 7.83416893 40.05881927 7.80859375 41.734375 C7.78781265 42.8607135 7.76703156 43.987052 7.74562073 45.14752197 C7.68025667 48.74411949 7.62130115 52.34078977 7.5625 55.9375 C7.5193023 58.3763096 7.4756876 60.81511184 7.43164062 63.25390625 C7.32458866 69.23169634 7.22328396 75.20955958 7.125 81.1875 C0.525 81.1875 -6.075 81.1875 -12.875 81.1875 C-13.205 59.0775 -13.535 36.9675 -13.875 14.1875 C-15.855 13.5275 -17.835 12.8675 -19.875 12.1875 C-19.90185412 9.87506208 -19.92132841 7.5625373 -19.9375 5.25 C-19.94910156 3.96222656 -19.96070313 2.67445313 -19.97265625 1.34765625 C-19.875 -1.8125 -19.875 -1.8125 -18.875 -2.8125 C-12.08107941 -4.36944014 -5.97208156 -3.76500794 0 0 Z " fill="#5DC8D5" transform="translate(328.875,257.8125)"/>
<path d="M0 0 C2.17975183 2.31185801 3.13967738 4.16735325 4.0625 7.1875 C4.475 6.80078125 4.8875 6.4140625 5.3125 6.015625 C12.99781521 -0.91488247 20.32506257 -4.11652643 30.703125 -4.046875 C34.49506744 -3.67019198 37.58204689 -2.33124317 41.0625 -0.8125 C40.8145517 4.2704402 39.15289751 7.02921599 35.79296875 10.64453125 C31.83207151 14.17625678 27.64035815 15.21963619 22.5 15.625 C18.08950767 16.00819439 15.48086402 17.25747369 12.0625 20.1875 C8.7081385 24.81420551 7.95271036 28.79226153 7.85717773 34.41503906 C7.83723251 35.45581604 7.81728729 36.49659302 7.79673767 37.56890869 C7.77166893 39.24409576 7.77166893 39.24409576 7.74609375 40.953125 C7.72531265 42.10165955 7.70453156 43.25019409 7.68312073 44.43353271 C7.61775007 48.10146111 7.55879806 51.76946093 7.5 55.4375 C7.45680293 57.92448654 7.41318825 60.41146587 7.36914062 62.8984375 C7.26208138 68.99471852 7.16077853 75.09107136 7.0625 81.1875 C0.4625 81.1875 -6.1375 81.1875 -12.9375 81.1875 C-12.95731934 79.26446045 -12.97713867 77.3414209 -12.99755859 75.36010742 C-13.06530197 69.00970643 -13.1420751 62.65946498 -13.22502708 56.30924511 C-13.27499454 52.45872292 -13.3213244 48.60822822 -13.359375 44.75756836 C-13.39622236 41.04216361 -13.44258052 37.32698863 -13.49556351 33.61178017 C-13.51411044 32.19363748 -13.52921733 30.77544554 -13.54084396 29.35722923 C-13.5577005 27.37241367 -13.58787075 25.38772462 -13.61865234 23.40307617 C-13.63197601 22.27278488 -13.64529968 21.14249359 -13.6590271 19.97795105 C-13.73791418 16.978433 -13.73791418 16.978433 -15.9375 14.1875 C-17.2575 13.8575 -18.5775 13.5275 -19.9375 13.1875 C-19.9375 7.9075 -19.9375 2.6275 -19.9375 -2.8125 C-12.63533018 -4.14016724 -6.45643085 -3.9837552 0 0 Z " fill="#5DC8D5" transform="translate(392.9375,257.8125)"/>
<path d="M0 0 C1.125 3.75 1.125 3.75 0 6 C-0.22858114 8.0374763 -0.41024278 10.08040303 -0.5625 12.125 C-0.706875 14.06375 -0.85125 16.0025 -1 18 C-4.96 18 -8.92 18 -13 18 C-13 22.29 -13 26.58 -13 31 C-9.04 31 -5.08 31 -1 31 C-0.98018066 32.23041016 -0.96036133 33.46082031 -0.93994141 34.72851562 C-0.86350865 39.32083595 -0.77485087 43.91285491 -0.68261719 48.50488281 C-0.64448243 50.48724388 -0.60960331 52.4696705 -0.578125 54.45214844 C-0.53213605 57.31208624 -0.47419928 60.17157882 -0.4140625 63.03125 C-0.40251129 63.90865845 -0.39096008 64.78606689 -0.37905884 65.69006348 C-0.25099582 71.10570769 0.56183978 75.77942835 2 81 C2.125 84 2.125 84 2 86 C-2.34429138 79.48356293 -2.2877266 71.765417 -2.1953125 64.15234375 C-2.1924826 63.25504044 -2.18965271 62.35773712 -2.18673706 61.4332428 C-2.17564979 58.60118586 -2.15056747 55.76945939 -2.125 52.9375 C-2.11495537 51.00325981 -2.10583213 49.06901461 -2.09765625 47.13476562 C-2.07574814 42.4230521 -2.04129901 37.71158184 -2 33 C-3.28197266 33.01740234 -3.28197266 33.01740234 -4.58984375 33.03515625 C-5.69457031 33.04417969 -6.79929688 33.05320312 -7.9375 33.0625 C-9.03964844 33.07410156 -10.14179688 33.08570313 -11.27734375 33.09765625 C-14 33 -14 33 -15 32 C-15.09975032 29.48863896 -15.13882183 27.01096585 -15.125 24.5 C-15.12886719 23.79746094 -15.13273438 23.09492188 -15.13671875 22.37109375 C-15.12661378 17.12661378 -15.12661378 17.12661378 -14 16 C-11.98035801 15.92755947 -9.95832876 15.91622812 -7.9375 15.9375 C-6.28041016 15.95103516 -6.28041016 15.95103516 -4.58984375 15.96484375 C-3.73519531 15.97644531 -2.88054687 15.98804688 -2 16 C-2.02320313 15.26394531 -2.04640625 14.52789062 -2.0703125 13.76953125 C-2.08835938 12.79371094 -2.10640625 11.81789062 -2.125 10.8125 C-2.14820313 9.84957031 -2.17140625 8.88664063 -2.1953125 7.89453125 C-1.9913544 4.87187222 -1.26874632 2.73230015 0 0 Z " fill="#BBE8ED" transform="translate(184,239)"/>
<path d="M0 0 C-1.3786853 3.09862934 -2.97023198 5.24123432 -5.375 7.625 C-6.25285156 8.51058594 -6.25285156 8.51058594 -7.1484375 9.4140625 C-9.0104347 11.00893774 -10.76818495 12.00698978 -13 13 C-11.46781315 9.36938333 -9.2816856 7.0136227 -6.5 4.25 C-5.7059375 3.45078125 -4.911875 2.6515625 -4.09375 1.828125 C-2 0 -2 0 0 0 Z " fill="#8AD7E1" transform="translate(394,99)"/>
<path d="M0 0 C0.66 0.33 1.32 0.66 2 1 C0.90344712 2.31886772 -0.20253423 3.62990057 -1.3125 4.9375 C-1.92738281 5.66839844 -2.54226563 6.39929688 -3.17578125 7.15234375 C-5 9 -5 9 -8 10 C-6.34908222 5.70761377 -3.26245434 3.1206085 0 0 Z " fill="#97DBE4" transform="translate(442,259)"/>
<path d="M0 0 C0.66 0.33 1.32 0.66 2 1 C1.07038578 2.15224028 0.1309875 3.29659176 -0.8125 4.4375 C-1.59560547 5.39462891 -1.59560547 5.39462891 -2.39453125 6.37109375 C-4 8 -4 8 -7 9 C-5.44499019 5.18315774 -2.96404505 2.80804268 0 0 Z " fill="#95DBE4" transform="translate(341,258)"/>
<path d="M0 0 C0 0.66 0 1.32 0 2 C-5.47619048 7 -5.47619048 7 -8 7 C-6.47663111 3.31852519 -4.31953005 0 0 0 Z " fill="#95DBE4" transform="translate(193,232)"/>
<path d="M0 0 C0.66 0.33 1.32 0.66 2 1 C-0.38957269 4.24299151 -2.2047869 6.50902342 -6 8 C-4.55746343 4.63408134 -2.66735273 2.48952921 0 0 Z " fill="#A9E1E9" transform="translate(100,260)"/>
</svg>
