<?xml version="1.0" encoding="UTF-8"?>
<svg version="1.1" xmlns="http://www.w3.org/2000/svg" width="133" height="133">
<path d="M0 0 C13.90584724 11.768217 22.58026569 29.16708032 24.1015625 47.31640625 C25.01908324 65.36445618 18.45244243 83.15011607 6.375 96.5625 C-5.71532719 109.37204665 -22.83703241 117.9276276 -40.59204102 118.66259766 C-58.89061383 118.87375892 -75.84132144 112.03775889 -89.5546875 99.98828125 C-102.59892033 86.74080966 -109.52271743 69.70324462 -109.6875 51.1875 C-109.47006754 33.05363245 -103.12737843 16.6162531 -90.15625 3.8046875 C-64.12508388 -20.15256703 -28.07655306 -21.18581366 0 0 Z " fill="#633C18" transform="translate(109.3125,14.8125)"/>
<path d="M0 0 C2.75329021 1.79562405 4.52627461 3.05254922 6 6 C6.55881444 10.09797257 6.1370529 11.76872323 4 15.375 C0.47775176 18.45696721 0.47775176 18.45696721 -3 18.6875 C-6.18845573 18.41575661 -7.2010566 17.86596227 -10 16 C-12.21963243 12.67055136 -12.75539772 10.86081066 -12.48046875 6.9375 C-10.87278432 0.45447986 -5.98096831 -0.96122705 0 0 Z " fill="#EA5F78" transform="translate(47,41)"/>
<path d="M0 0 C3.81583348 0.0546681 5.05772207 0.25194213 8.375 2.375 C10.7946082 6.24637312 11.16341093 8.9333155 10.25 13.375 C8.9375 16.375 8.9375 16.375 6.25 18.375 C2.54202484 18.8398482 -1.03894952 18.80437774 -4.75 18.375 C-6.57116003 16.55383997 -5.8823508 14.06828236 -5.88671875 11.6484375 C-5.88285156 10.89820313 -5.87898437 10.14796875 -5.875 9.375 C-5.87886719 8.62476563 -5.88273438 7.87453125 -5.88671875 7.1015625 C-5.87430787 0.22593492 -5.87430787 0.22593492 0 0 Z " fill="#EC5F79" transform="translate(21.75,40.625)"/>
<path d="M0 0 C1.31291016 -0.02513672 1.31291016 -0.02513672 2.65234375 -0.05078125 C5.0625 0.3125 5.0625 0.3125 6.859375 1.64453125 C8.70595253 4.20455918 8.3817455 6.24774321 8.0625 9.3125 C7.0725 10.7975 7.0725 10.7975 6.0625 12.3125 C7.0525 12.6425 8.0425 12.9725 9.0625 13.3125 C8.7325 14.9625 8.4025 16.6125 8.0625 18.3125 C6.0825 18.3125 4.1025 18.3125 2.0625 18.3125 C1.7325 17.6525 1.4025 16.9925 1.0625 16.3125 C0.4025 16.9725 -0.2575 17.6325 -0.9375 18.3125 C-3.5 18.5 -3.5 18.5 -5.9375 18.3125 C-7.91869355 16.33130645 -7.12250411 12.57804936 -7.125 9.875 C-7.13724609 9.18083984 -7.14949219 8.48667969 -7.16210938 7.77148438 C-7.16739842 5.95029099 -7.05919207 4.1296308 -6.9375 2.3125 C-4.42737037 -0.19762963 -3.46944763 0.01528391 0 0 Z " fill="#ED607A" transform="translate(62.9375,40.6875)"/>
<path d="M0 0 C2 2 2 2 2.1875 4.5625 C2 7 2 7 1 8 C-1.67058851 8.14115161 -4.32432238 8.04247107 -7 8 C-6.67 8.66 -6.34 9.32 -6 10 C-4.2984375 9.9690625 -4.2984375 9.9690625 -2.5625 9.9375 C1 10 1 10 2 11 C2.04080783 12.99958364 2.04254356 15.00045254 2 17 C-1.71145147 18.85572573 -5.94868977 18.43780288 -10 18 C-12.625 16.625 -12.625 16.625 -14 14 C-14.71310035 9.43312326 -14.79453746 5.51684424 -12.625 1.375 C-8.60131057 -0.73264684 -4.45488978 -0.66745735 0 0 Z " fill="#EB5F78" transform="translate(95,62)"/>
<path d="M0 0 C0.9796875 0.00515625 1.959375 0.0103125 2.96875 0.015625 C3.9484375 0.01046875 4.928125 0.0053125 5.9375 0 C8.46875 0.265625 8.46875 0.265625 10.46875 2.265625 C10.11519564 4.52837288 9.49330574 6.21651352 8.46875 8.265625 C9.12875 8.265625 9.78875 8.265625 10.46875 8.265625 C8.59375 12.140625 8.59375 12.140625 7.46875 13.265625 C8.45875 13.595625 9.44875 13.925625 10.46875 14.265625 C9.80875 15.585625 9.14875 16.905625 8.46875 18.265625 C6.67741022 18.31954493 4.88561101 18.35838071 3.09375 18.390625 C2.09601563 18.41382812 1.09828125 18.43703125 0.0703125 18.4609375 C-2.53125 18.265625 -2.53125 18.265625 -4.53125 16.265625 C-4.796875 13.078125 -4.796875 13.078125 -4.78125 9.265625 C-4.78640625 8.0075 -4.7915625 6.749375 -4.796875 5.453125 C-4.47263191 1.56220796 -3.97130987 0.41674239 0 0 Z " fill="#EA5F78" transform="translate(104.53125,61.734375)"/>
<path d="M0 0 C2.203125 0.38671875 2.203125 0.38671875 3.203125 1.38671875 C3.30293714 4.06403255 3.34192375 6.7097605 3.328125 9.38671875 C3.33392578 10.51207031 3.33392578 10.51207031 3.33984375 11.66015625 C3.32973553 17.26010822 3.32973553 17.26010822 2.203125 18.38671875 C0.53695385 18.42735707 -1.13075595 18.42943975 -2.796875 18.38671875 C-2.796875 16.73671875 -2.796875 15.08671875 -2.796875 13.38671875 C-3.51875 14.21171875 -4.240625 15.03671875 -4.984375 15.88671875 C-7.796875 18.38671875 -7.796875 18.38671875 -10.484375 18.82421875 C-12.796875 18.38671875 -12.796875 18.38671875 -14.796875 16.38671875 C-14.69530625 11.48602644 -11.865851 8.81953602 -8.546875 5.57421875 C-8.06863281 5.07212891 -7.59039062 4.57003906 -7.09765625 4.05273438 C-4.76543572 1.72999441 -3.30584753 0.45709344 0 0 Z " fill="#EC5F7A" transform="translate(89.796875,40.61328125)"/>
<path d="M0 0 C2.5 0.125 2.5 0.125 3.5 1.125 C3.57205511 2.81108966 3.58386068 4.50000659 3.5625 6.1875 C3.55347656 7.10660156 3.54445313 8.02570313 3.53515625 8.97265625 C3.52355469 9.68292969 3.51195312 10.39320312 3.5 11.125 C4.82 11.455 6.14 11.785 7.5 12.125 C7.88218767 13.78114657 8.21395102 15.44957024 8.5 17.125 C7.5 18.125 7.5 18.125 5.25 18.2578125 C4.3425 18.25523438 3.435 18.25265625 2.5 18.25 C1.13875 18.25386719 1.13875 18.25386719 -0.25 18.2578125 C-2.5 18.125 -2.5 18.125 -3.5 17.125 C-3.59981214 14.4476862 -3.63879875 11.80195825 -3.625 9.125 C-3.62886719 8.37476562 -3.63273437 7.62453125 -3.63671875 6.8515625 C-3.62467845 0.18123392 -3.62467845 0.18123392 0 0 Z " fill="#EC5F7A" transform="translate(59.5,61.875)"/>
<path d="M0 0 C0 3 0 3 -1 5 C-1.2322646 7.71262116 -1.41936235 10.40773126 -1.5625 13.125 C-1.60568359 13.87910156 -1.64886719 14.63320312 -1.69335938 15.41015625 C-1.7994832 17.27321888 -1.90025001 19.13658524 -2 21 C-2.598125 20.360625 -3.19625 19.72125 -3.8125 19.0625 C-5.90810337 16.79689611 -5.90810337 16.79689611 -9 16 C-9.02578125 15.30132812 -9.0515625 14.60265625 -9.078125 13.8828125 C-9.13484375 12.97273438 -9.1915625 12.06265625 -9.25 11.125 C-9.29640625 10.22007813 -9.3428125 9.31515625 -9.390625 8.3828125 C-9.75611148 5.82889456 -9.75611148 5.82889456 -12.046875 4.6796875 C-12.69140625 4.45539062 -13.3359375 4.23109375 -14 4 C-10.90477312 2.5491124 -8.12124318 1.81342999 -4.75 1.4375 C-1.21082486 1.41762589 -1.21082486 1.41762589 0 0 Z " fill="#5E3711" transform="translate(72,57)"/>
<path d="M0 0 C2.5 0.125 2.5 0.125 3.5 1.125 C3.59981214 3.8023138 3.63879875 6.44804175 3.625 9.125 C3.62886719 9.87523438 3.63273437 10.62546875 3.63671875 11.3984375 C3.62661053 16.99838947 3.62661053 16.99838947 2.5 18.125 C0 18.25 0 18.25 -2.5 18.125 C-4.32116003 16.30383997 -3.6323508 13.81828236 -3.63671875 11.3984375 C-3.63285156 10.64820312 -3.62898438 9.89796875 -3.625 9.125 C-3.62886719 8.37476562 -3.63273437 7.62453125 -3.63671875 6.8515625 C-3.62467845 0.18123392 -3.62467845 0.18123392 0 0 Z " fill="#ED607B" transform="translate(74.5,61.875)"/>
<path d="M0 0 C1.89488952 1.89488952 1.18019112 4.57139146 1.23046875 7.08984375 C1 9 1 9 -1 11 C-4.5 11.3125 -4.5 11.3125 -8 11 C-10.31282587 7.53076119 -10.42478586 6.07794425 -10 2 C-7.64880534 -2.28747261 -4.22461819 -0.93880404 0 0 Z " fill="#EC627F" transform="translate(79,89)"/>
<path d="M0 0 C6.625 -0.25 6.625 -0.25 10 2 C10.36328125 3.875 10.36328125 3.875 10.3125 6 C10.30863281 6.70125 10.30476563 7.4025 10.30078125 8.125 C10 10 10 10 8 12 C5.31160615 12.26991906 2.70858064 12.08737357 0 12 C0 8.04 0 4.08 0 0 Z " fill="#EF6382" transform="translate(56,88)"/>
<path d="M0 0 C1.09658936 3.28976808 0.79953138 4.71303767 0 8 C-0.66 8 -1.32 8 -2 8 C-2.309375 8.639375 -2.61875 9.27875 -2.9375 9.9375 C-4 12 -4 12 -5 13 C-5.43117406 16.38163655 -5.46798845 19.62187646 -5 23 C-2.25279538 26.41319362 -0.47938052 26.90569564 3.8125 27.75 C5.3903125 27.87375 5.3903125 27.87375 7 28 C7 28.33 7 28.66 7 29 C1.57674056 29.47572451 -2.27591545 29.33952453 -6.6640625 25.89453125 C-9.029731 22.53970897 -8.80684318 18.83467219 -8.83203125 14.83984375 C-9.00085309 11.9855769 -9.53377585 10.41666195 -11 8 C-10.113125 7.608125 -9.22625 7.21625 -8.3125 6.8125 C-4.87870392 4.93363045 -2.63458231 2.86704545 0 0 Z " fill="#59360F" transform="translate(87,53)"/>
<path d="M0 0 C0.66 0 1.32 0 2 0 C2 3.96 2 7.92 2 12 C-0.97 11.01 -3.94 10.02 -7 9 C-7.625 6.625 -7.625 6.625 -8 4 C-6 2 -6 2 -2.875 1.875 C-1.92625 1.91625 -0.9775 1.9575 0 2 C0 1.34 0 0.68 0 0 Z " fill="#5A360F" transform="translate(93,88)"/>
<path d="M0 0 C0.66 0.33 1.32 0.66 2 1 C1.34 2.98 0.68 4.96 0 7 C2.475 7.99 2.475 7.99 5 9 C4.67 9.99 4.34 10.98 4 12 C3.01 12 2.02 12 1 12 C0.67 12.66 0.34 13.32 0 14 C1.65 14 3.3 14 5 14 C5 14.33 5 14.66 5 15 C-0.75 15.125 -0.75 15.125 -3 14 C-3 13.01 -3 12.02 -3 11 C-4.65 11 -6.3 11 -8 11 C-8 10.01 -8 9.02 -8 8 C-6.35 8 -4.7 8 -3 8 C-3 5.69 -3 3.38 -3 1 C-2.01 0.67 -1.02 0.34 0 0 Z " fill="#5C3710" transform="translate(106,87)"/>
<path d="M0 0 C0.9796875 0.00515625 1.959375 0.0103125 2.96875 0.015625 C3.9484375 0.01046875 4.928125 0.0053125 5.9375 0 C8.46875 0.265625 8.46875 0.265625 10.46875 2.265625 C10.09375 4.390625 10.09375 4.390625 9.46875 6.265625 C8.80875 4.945625 8.14875 3.625625 7.46875 2.265625 C4.49875 2.265625 1.52875 2.265625 -1.53125 2.265625 C-1.53125 6.885625 -1.53125 11.505625 -1.53125 16.265625 C4.78143603 16.64114665 4.78143603 16.64114665 10.46875 14.265625 C9.80875 15.585625 9.14875 16.905625 8.46875 18.265625 C6.67741022 18.31954493 4.88561101 18.35838071 3.09375 18.390625 C2.09601563 18.41382812 1.09828125 18.43703125 0.0703125 18.4609375 C-2.53125 18.265625 -2.53125 18.265625 -4.53125 16.265625 C-4.796875 13.078125 -4.796875 13.078125 -4.78125 9.265625 C-4.78640625 8.0075 -4.7915625 6.749375 -4.796875 5.453125 C-4.47263191 1.56220796 -3.97130987 0.41674239 0 0 Z " fill="#F0617D" transform="translate(104.53125,61.734375)"/>
<path d="M0 0 C1.32 0 2.64 0 4 0 C4.625 3.375 4.625 3.375 5 7 C4.34 7.66 3.68 8.32 3 9 C-0.53571429 8.46428571 -0.53571429 8.46428571 -2 7 C-2.1875 4.5625 -2.1875 4.5625 -2 2 C-1.34 1.34 -0.68 0.68 0 0 Z " fill="#683A1A" transform="translate(73,90)"/>
<path d="M0 0 C2.97 0.495 2.97 0.495 6 1 C6.125 3.875 6.125 3.875 6 7 C5.34 7.66 4.68 8.32 4 9 C2.68 9 1.36 9 0 9 C0 6.03 0 3.06 0 0 Z " fill="#683A1A" transform="translate(58,90)"/>
<path d="M0 0 C0 0.66 0 1.32 0 2 C-1.98 2.66 -3.96 3.32 -6 4 C-5.67 5.65 -5.34 7.3 -5 9 C-3.35 9.33 -1.7 9.66 0 10 C0 10.66 0 11.32 0 12 C-3.375 12.1875 -3.375 12.1875 -7 12 C-9.31282587 8.53076119 -9.42478586 7.07794425 -9 3 C-6.77089201 -0.71517998 -4.03410755 -0.2689405 0 0 Z " fill="#DC5D73" transform="translate(92,88)"/>
<path d="M0 0 C1.47193312 2.94386623 0.84936173 5.37390036 0.5625 8.625 C0.46066406 9.81351563 0.35882813 11.00203125 0.25390625 12.2265625 C0.17011719 13.14179687 0.08632812 14.05703125 0 15 C-0.28101562 14.35417969 -0.56203125 13.70835938 -0.8515625 13.04296875 C-1.82672889 10.74939365 -1.82672889 10.74939365 -4.375 10.3125 C-5.24125 10.209375 -6.1075 10.10625 -7 10 C-8.33542939 9.67516582 -9.66961551 9.3449145 -11 9 C-11 8.34 -11 7.68 -11 7 C-9.741875 6.95875 -8.48375 6.9175 -7.1875 6.875 C-4.99010474 6.69235511 -4.99010474 6.69235511 -3 6 C-0.91367303 3.08158143 -0.91367303 3.08158143 0 0 Z " fill="#52340A" transform="translate(99,63)"/>
<path d="M0 0 C1.2065625 0.0309375 1.2065625 0.0309375 2.4375 0.0625 C2.4375 0.7225 2.4375 1.3825 2.4375 2.0625 C1.1175 2.0625 -0.2025 2.0625 -1.5625 2.0625 C-0.716875 2.784375 0.12875 3.50625 1 4.25 C3.4375 7.0625 3.4375 7.0625 3.25 9.875 C2.8478125 10.9578125 2.8478125 10.9578125 2.4375 12.0625 C0.4575 12.0625 -1.5225 12.0625 -3.5625 12.0625 C-3.2325 11.4025 -2.9025 10.7425 -2.5625 10.0625 C-1.5725 10.0625 -0.5825 10.0625 0.4375 10.0625 C0.4375 9.4025 0.4375 8.7425 0.4375 8.0625 C-0.8825 7.4025 -2.2025 6.7425 -3.5625 6.0625 C-3.605221 4.39638095 -3.60313832 2.72867115 -3.5625 1.0625 C-2.5625 0.0625 -2.5625 0.0625 0 0 Z " fill="#E7607C" transform="translate(109.5625,87.9375)"/>
<path d="M0 0 C1.98 0 3.96 0 6 0 C6 0.66 6 1.32 6 2 C4.68 2 3.36 2 2 2 C2 2.99 2 3.98 2 5 C3.32 5 4.64 5 6 5 C6 5.66 6 6.32 6 7 C4.35 7 2.7 7 1 7 C1 8.32 1 9.64 1 11 C2.65 11 4.3 11 6 11 C6 11.33 6 11.66 6 12 C4.02 12 2.04 12 0 12 C0 8.04 0 4.08 0 0 Z " fill="#F06383" transform="translate(96,88)"/>
<path d="M0 0 C0.94875 0.04125 1.8975 0.0825 2.875 0.125 C2.875 0.785 2.875 1.445 2.875 2.125 C1.451875 2.49625 1.451875 2.49625 0 2.875 C-3.21193191 3.8107077 -3.21193191 3.8107077 -4.5 6.25 C-4.70625 6.86875 -4.9125 7.4875 -5.125 8.125 C-5.25 5.25 -5.25 5.25 -5.125 2.125 C-3.125 0.125 -3.125 0.125 0 0 Z " fill="#F06281" transform="translate(89.125,87.875)"/>
<path d="M0 0 C0.66 0 1.32 0 2 0 C1.34 1.32 0.68 2.64 0 4 C-3.63 4 -7.26 4 -11 4 C-11 3.01 -11 2.02 -11 1 C-10.67 1.33 -10.34 1.66 -10 2 C-5.98342857 2.22918242 -5.98342857 2.22918242 -2 2 C-1.34 1.34 -0.68 0.68 0 0 Z " fill="#FA6485" transform="translate(113,76)"/>
<path d="M0 0 C1.32 0.33 2.64 0.66 4 1 C3.67 2.65 3.34 4.3 3 6 C1.02 6 -0.96 6 -3 6 C-2.67 5.34 -2.34 4.68 -2 4 C-1.01 4 -0.02 4 1 4 C0.67 2.68 0.34 1.36 0 0 Z " fill="#F56588" transform="translate(109,94)"/>
<path d="M0 0 C0.99 0.33 1.98 0.66 3 1 C2.67 2.98 2.34 4.96 2 7 C1.01 7 0.02 7 -1 7 C-0.67 4.69 -0.34 2.38 0 0 Z " fill="#603813" transform="translate(74,90)"/>
<path d="M0 0 C2.475 0.99 2.475 0.99 5 2 C4.67 3.65 4.34 5.3 4 7 C3.67 5.68 3.34 4.36 3 3 C1.35 2.67 -0.3 2.34 -2 2 C-1.34 1.34 -0.68 0.68 0 0 Z " fill="#E25E76" transform="translate(61,88)"/>
</svg>
