<?xml version="1.0" encoding="utf-8"?>
<!-- Generator: Adobe Illustrator 26.3.1, SVG Export Plug-In . SVG Version: 6.00 Build 0)  -->
<svg version="1.1" id="Camada_1" xmlns="http://www.w3.org/2000/svg" xmlns:xlink="http://www.w3.org/1999/xlink" x="0px" y="0px"
	 viewBox="0 0 1091.9 600.87" style="enable-background:new 0 0 1091.9 600.87;" xml:space="preserve">
<style type="text/css">
	.st0{fill:#206694;}
	.st1{fill:#6AA5C2;}
	.st2{fill:#FFFFFF;}
</style>
<g>
	<rect x="167.62" class="st0" width="168.13" height="446.88"/>
	<rect x="366.79" y="164.95" class="st1" width="168.13" height="281.93"/>
	<rect x="565.95" y="82.78" class="st0" width="168.13" height="516.83"/>
	<polygon class="st2" points="378.09,237.56 415.19,237.56 449.84,332.27 450.4,332.27 484.67,237.56 521.96,237.56 521.96,370.87 
		498.42,370.87 498.42,263.74 498.04,263.74 457.56,370.87 440.98,370.87 401.07,263.74 400.69,263.74 400.69,370.87 378.09,370.87 
			"/>
	<g>
		<path class="st1" d="M762.65,230.28h45.71c8.05,0,15.3,0.73,21.77,2.18c6.46,1.45,12,3.83,16.62,7.12
			c4.61,3.3,8.17,7.52,10.68,12.66c2.5,5.15,3.76,11.34,3.76,18.6c0,7.79-1.45,14.32-4.35,19.59c-2.9,5.28-6.83,9.54-11.77,12.77
			c-4.95,3.24-10.73,5.58-17.31,7.02c-6.59,1.46-13.58,2.18-20.98,2.18h-19.19v57.98h-24.93V230.28z M805,291.42
			c4.09,0,7.98-0.3,11.67-0.89c3.69-0.6,6.99-1.65,9.89-3.16c2.91-1.52,5.21-3.6,6.93-6.24c1.71-2.63,2.58-6.07,2.58-10.29
			c0-4.09-0.87-7.42-2.58-9.99c-1.71-2.58-3.99-4.59-6.82-6.04c-2.85-1.45-6.07-2.4-9.7-2.87c-3.63-0.47-7.35-0.69-11.18-0.69
			h-18.21v40.17H805z"/>
		<rect x="870.68" y="220.78" class="st1" width="23.74" height="149.59"/>
		<path class="st1" d="M970.41,358.3h-0.59c-2.38,4.22-6.2,7.68-11.48,10.39c-5.28,2.7-11.28,4.05-18,4.05
			c-3.83,0-7.82-0.49-11.97-1.48c-4.16-0.99-7.99-2.64-11.48-4.95c-3.5-2.31-6.4-5.34-8.71-9.11c-2.3-3.76-3.46-8.41-3.46-13.95
			c0-7.12,2.01-12.79,6.04-17.02c4.02-4.22,9.2-7.45,15.53-9.69c6.33-2.25,13.36-3.72,21.07-4.45c7.71-0.72,15.27-1.09,22.66-1.09
			v-2.38c0-5.93-2.15-10.31-6.43-13.15c-4.3-2.84-9.41-4.25-15.34-4.25c-5.01,0-9.83,1.06-14.45,3.16
			c-4.61,2.11-8.44,4.69-11.46,7.71l-12.27-14.44c5.41-5.01,11.65-8.77,18.7-11.27c7.05-2.51,14.22-3.76,21.47-3.76
			c8.44,0,15.4,1.19,20.87,3.56c5.47,2.38,9.79,5.48,12.96,9.3c3.16,3.83,5.37,8.12,6.63,12.87c1.24,4.75,1.87,9.5,1.87,14.25v57.78
			h-22.15V358.3z M970.01,327.04h-5.35c-3.83,0-7.84,0.17-12.07,0.49c-4.22,0.33-8.11,1.06-11.67,2.18
			c-3.57,1.13-6.54,2.71-8.92,4.76c-2.37,2.04-3.55,4.85-3.55,8.41c0,2.25,0.5,4.12,1.49,5.64c0.99,1.52,2.28,2.74,3.85,3.66
			c1.59,0.93,3.38,1.58,5.35,1.99c1.97,0.39,3.95,0.58,5.93,0.58c8.17,0,14.37-2.18,18.6-6.53c4.22-4.35,6.33-10.29,6.33-17.8
			V327.04z"/>
		<path class="st1" d="M1004.43,275.4H1027v15.23h0.39c2.11-4.75,5.77-8.93,10.99-12.57c5.21-3.63,11.37-5.44,18.49-5.44
			c6.2,0,11.51,1.09,15.92,3.26c4.43,2.18,8.05,5.05,10.89,8.61c2.83,3.57,4.91,7.66,6.23,12.27c1.32,4.61,1.98,9.37,1.98,14.25
			v59.36h-23.75v-52.63c0-2.77-0.2-5.67-0.6-8.7c-0.39-3.04-1.25-5.77-2.57-8.21c-1.31-2.44-3.13-4.45-5.43-6.03
			c-2.31-1.59-5.39-2.38-9.21-2.38c-3.83,0-7.12,0.77-9.89,2.27c-2.77,1.52-5.05,3.46-6.83,5.84c-1.78,2.38-3.12,5.12-4.05,8.22
			c-0.92,3.09-1.38,6.23-1.38,9.4v52.24h-23.75V275.4z"/>
		<polygon class="st2" points="98.86,518.31 124.7,518.31 124.7,524.45 91.95,524.45 91.95,475.01 123.65,475.01 123.65,481.09 
			98.86,481.09 98.86,495.89 122.19,495.89 122.19,501.83 98.86,501.83 		"/>
		<polygon class="st2" points="168.76,514.54 168.9,514.54 168.9,475.01 175.81,475.01 175.81,524.45 167.09,524.45 140.97,484.09 
			140.83,484.09 140.83,524.45 133.92,524.45 133.92,475.01 142.93,475.01 		"/>
		<path class="st2" d="M225.12,485.21c-1.49-1.63-3.39-2.93-5.7-3.9c-2.3-0.98-4.87-1.47-7.71-1.47c-2.89,0-5.5,0.53-7.82,1.57
			c-2.33,1.04-4.31,2.48-5.94,4.29c-1.63,1.81-2.88,3.93-3.77,6.32c-0.88,2.4-1.33,4.95-1.33,7.65c0,2.75,0.44,5.32,1.33,7.75
			c0.89,2.42,2.14,4.52,3.77,6.32c1.63,1.79,3.64,3.2,6.01,4.22c2.37,1.02,5.03,1.54,7.96,1.54c2.33,0,4.47-0.21,6.43-0.63
			c1.95-0.41,3.65-1.02,5.09-1.81V503.3h-10.96v-5.87h17.81v23.95c-2.61,1.4-5.44,2.47-8.52,3.22c-3.07,0.74-6.43,1.12-10.06,1.12
			c-3.87,0-7.41-0.64-10.65-1.92c-3.24-1.27-6.02-3.07-8.35-5.37c-2.33-2.3-4.14-5.06-5.45-8.24c-1.3-3.19-1.96-6.69-1.96-10.5
			c0-3.87,0.66-7.39,1.99-10.59c1.33-3.19,3.17-5.91,5.52-8.17c2.35-2.26,5.13-4.02,8.35-5.28c3.21-1.25,6.7-1.89,10.48-1.89
			c3.96,0,7.48,0.58,10.58,1.75c3.09,1.16,5.66,2.72,7.71,4.68L225.12,485.21z"/>
		<polygon class="st2" points="249.07,518.31 274.91,518.31 274.91,524.45 242.16,524.45 242.16,475.01 273.86,475.01 
			273.86,481.09 249.07,481.09 249.07,495.89 272.39,495.89 272.39,501.83 249.07,501.83 		"/>
		<polygon class="st2" points="318.97,514.54 319.11,514.54 319.11,475.01 326.02,475.01 326.02,524.45 317.29,524.45 
			291.17,484.09 291.04,484.09 291.04,524.45 284.12,524.45 284.12,475.01 293.13,475.01 		"/>
		<polygon class="st2" points="338.03,475.01 344.95,475.01 344.95,495.69 369.95,495.69 369.95,475.01 376.93,475.01 
			376.93,524.45 369.95,524.45 369.95,501.83 344.95,501.83 344.95,524.45 338.03,524.45 		"/>
		<path class="st2" d="M390.97,524.45h-7.68l21.44-49.44H411l21.23,49.44h-7.82l-5.02-12.14h-23.47L390.97,524.45z M398.37,506.23
			h18.5l-9.21-23.18L398.37,506.23z"/>
		<path class="st2" d="M445.5,524.45h-6.91v-49.44h15.86c2.37,0,4.63,0.24,6.77,0.73c2.14,0.5,4.02,1.27,5.62,2.34
			c1.61,1.07,2.88,2.48,3.81,4.22c0.93,1.74,1.4,3.88,1.4,6.39c0,3.63-1.12,6.56-3.36,8.8c-2.23,2.24-5.12,3.65-8.66,4.25
			l13.83,22.7h-8.38l-12.57-21.99h-7.4V524.45z M445.5,496.66h7.96c1.63,0,3.14-0.14,4.54-0.42c1.4-0.28,2.62-0.74,3.67-1.37
			c1.05-0.62,1.87-1.44,2.48-2.44c0.61-1,0.91-2.24,0.91-3.74c0-1.49-0.31-2.73-0.91-3.73c-0.61-1-1.4-1.8-2.41-2.41
			c-1-0.6-2.18-1.03-3.53-1.29c-1.35-0.25-2.77-0.39-4.26-0.39h-8.45V496.66z"/>
		<rect x="481.46" y="475.01" class="st2" width="6.91" height="49.44"/>
		<path class="st2" d="M502.41,524.45h-7.68l21.44-49.44h6.28l21.23,49.44h-7.83l-5.02-12.14h-23.46L502.41,524.45z M509.82,506.23
			h18.5l-9.22-23.18L509.82,506.23z"/>
		<path class="st1" d="M35.05,587.95l11.31,11.66h-9.15l-6.14-6.5c-1.86,2.33-3.97,4.15-6.32,5.45c-2.35,1.3-5.25,1.96-8.7,1.96
			c-2.14,0-4.18-0.31-6.14-0.91c-1.96-0.61-3.67-1.5-5.13-2.7c-1.47-1.18-2.63-2.65-3.49-4.39C0.43,590.77,0,588.76,0,586.48
			c0-1.86,0.32-3.53,0.95-4.99c0.63-1.47,1.47-2.79,2.49-3.95c1.03-1.17,2.22-2.18,3.58-3.07c1.35-0.89,2.73-1.65,4.14-2.3
			c-1.6-1.63-2.95-3.36-4.06-5.2c-1.1-1.85-1.66-3.88-1.66-6.12c0-1.99,0.36-3.74,1.08-5.23c0.72-1.49,1.7-2.74,2.93-3.73
			c1.24-1.01,2.64-1.74,4.23-2.24c1.58-0.49,3.24-0.73,4.96-0.73c1.72,0,3.36,0.24,4.89,0.73c1.54,0.49,2.89,1.22,4.05,2.2
			c1.16,0.98,2.1,2.19,2.79,3.63c0.7,1.45,1.05,3.12,1.05,5.04c0,1.62-0.29,3.09-0.87,4.39c-0.58,1.3-1.36,2.5-2.34,3.56
			c-0.98,1.08-2.11,2.03-3.38,2.87c-1.28,0.84-2.62,1.58-4.02,2.23l9.84,10.12l6.22-10.47h7.68L35.05,587.95z M14.94,576.49
			c-2.42,1.03-4.35,2.31-5.8,3.84c-1.44,1.54-2.16,3.56-2.16,6.08c0,1.3,0.25,2.49,0.77,3.56c0.51,1.07,1.2,1.98,2.06,2.72
			c0.86,0.74,1.85,1.32,2.97,1.72c1.12,0.39,2.26,0.59,3.42,0.59c2.38,0,4.38-0.52,6.01-1.57c1.63-1.05,3.12-2.6,4.46-4.64
			L14.94,576.49z M25.07,560.72c0-1.78-0.59-3.26-1.77-4.48c-1.18-1.21-2.7-1.82-4.55-1.82c-1.89,0-3.47,0.62-4.72,1.82
			c-1.25,1.21-1.88,2.79-1.88,4.75c0,0.8,0.15,1.59,0.45,2.38c0.3,0.8,0.68,1.57,1.14,2.34c0.46,0.77,0.98,1.48,1.57,2.13
			c0.58,0.65,1.14,1.24,1.7,1.74c1.02-0.47,2.01-0.98,2.99-1.54c0.97-0.55,1.83-1.2,2.57-1.95c0.74-0.74,1.34-1.57,1.8-2.45
			C24.84,562.76,25.07,561.78,25.07,560.72"/>
		<path class="st2" d="M103.47,591.93c-1.96,2.66-4.49,4.8-7.61,6.46c-3.12,1.65-6.87,2.48-11.24,2.48c-3.77,0-7.25-0.64-10.44-1.92
			c-3.19-1.28-5.94-3.07-8.24-5.38c-2.3-2.3-4.11-5.05-5.41-8.23c-1.3-3.19-1.95-6.7-1.95-10.51c0-3.87,0.66-7.39,1.99-10.58
			c1.33-3.19,3.17-5.9,5.52-8.17c2.35-2.26,5.13-4.01,8.35-5.27c3.21-1.26,6.7-1.89,10.48-1.89c1.67,0,3.38,0.16,5.1,0.48
			c1.72,0.33,3.37,0.82,4.96,1.47c1.58,0.65,3.02,1.45,4.32,2.41c1.31,0.96,2.42,2.06,3.36,3.31l-5.45,4.2
			c-1.21-1.68-2.93-3.07-5.13-4.16c-2.22-1.09-4.6-1.65-7.16-1.65c-2.89,0-5.48,0.53-7.79,1.58c-2.31,1.05-4.28,2.48-5.9,4.28
			c-1.63,1.82-2.89,3.93-3.77,6.33c-0.88,2.4-1.32,4.95-1.32,7.64c0,2.79,0.43,5.4,1.29,7.82c0.86,2.42,2.09,4.54,3.7,6.33
			c1.61,1.79,3.56,3.2,5.87,4.22c2.3,1.02,4.87,1.54,7.72,1.54c2.79,0,5.32-0.56,7.61-1.67c2.28-1.12,4.16-2.75,5.66-4.88
			L103.47,591.93z"/>
		<path class="st2" d="M159.55,574.82c0,3.81-0.66,7.32-1.99,10.51c-1.33,3.19-3.15,5.93-5.48,8.23c-2.33,2.31-5.1,4.1-8.31,5.38
			c-3.21,1.28-6.7,1.92-10.48,1.92c-3.77,0-7.25-0.64-10.44-1.92c-3.19-1.28-5.95-3.07-8.27-5.38c-2.33-2.3-4.15-5.05-5.45-8.23
			c-1.3-3.19-1.95-6.7-1.95-10.51c0-3.87,0.65-7.39,1.95-10.58c1.31-3.19,3.12-5.9,5.45-8.17c2.33-2.26,5.08-4.01,8.27-5.27
			c3.19-1.26,6.67-1.89,10.44-1.89c3.77,0,7.26,0.63,10.48,1.89c3.21,1.25,5.98,3.01,8.31,5.27c2.33,2.26,4.16,4.98,5.48,8.17
			C158.88,567.43,159.55,570.95,159.55,574.82 M152.07,574.82c0-2.7-0.44-5.25-1.32-7.64c-0.89-2.4-2.14-4.51-3.77-6.33
			c-1.63-1.81-3.6-3.24-5.9-4.28c-2.3-1.05-4.9-1.58-7.78-1.58c-2.84,0-5.41,0.53-7.72,1.58c-2.31,1.05-4.26,2.48-5.87,4.28
			c-1.61,1.82-2.85,3.93-3.73,6.33c-0.89,2.4-1.33,4.95-1.33,7.64c0,2.75,0.44,5.33,1.33,7.75c0.88,2.42,2.14,4.53,3.77,6.33
			c1.63,1.79,3.59,3.19,5.87,4.22c2.28,1.02,4.84,1.54,7.68,1.54c2.84,0,5.42-0.52,7.75-1.54c2.33-1.03,4.31-2.43,5.94-4.22
			c1.63-1.79,2.89-3.9,3.77-6.33C151.63,580.15,152.07,577.57,152.07,574.82"/>
		<polygon class="st2" points="203.82,589.69 203.96,589.69 203.96,550.17 210.87,550.17 210.87,599.61 202.15,599.61 
			176.03,559.25 175.89,559.25 175.89,599.61 168.97,599.61 168.97,550.17 177.98,550.17 		"/>
		<path class="st2" d="M247.46,559.32c-0.98-1.35-2.3-2.45-3.98-3.32c-1.67-0.86-3.56-1.3-5.66-1.3c-1.12,0-2.25,0.16-3.38,0.46
			c-1.14,0.31-2.18,0.79-3.11,1.47c-0.93,0.68-1.69,1.51-2.27,2.51c-0.59,1-0.87,2.19-0.87,3.59c0,1.36,0.27,2.48,0.8,3.39
			c0.53,0.91,1.26,1.68,2.16,2.3c0.91,0.63,1.98,1.17,3.21,1.61c1.24,0.45,2.55,0.9,3.95,1.36c1.67,0.52,3.37,1.1,5.1,1.75
			c1.72,0.65,3.29,1.51,4.68,2.58c1.4,1.08,2.54,2.41,3.42,4.03c0.88,1.6,1.33,3.64,1.33,6.11c0,2.56-0.48,4.78-1.44,6.67
			c-0.95,1.89-2.22,3.44-3.8,4.67c-1.58,1.25-3.41,2.16-5.48,2.76c-2.07,0.6-4.2,0.91-6.39,0.91c-3.12,0-6.13-0.6-9.04-1.81
			c-2.91-1.21-5.32-3-7.23-5.38l5.38-4.55c1.16,1.74,2.72,3.12,4.68,4.2c1.96,1.07,4.08,1.61,6.36,1.61c1.16,0,2.33-0.17,3.49-0.49
			c1.16-0.32,2.22-0.84,3.18-1.54c0.95-0.7,1.73-1.57,2.34-2.62c0.6-1.05,0.91-2.31,0.91-3.8c0-1.49-0.31-2.73-0.94-3.74
			c-0.63-1-1.48-1.85-2.55-2.54c-1.07-0.7-2.32-1.3-3.74-1.78c-1.42-0.49-2.92-0.99-4.5-1.5c-1.58-0.46-3.14-1.03-4.68-1.71
			c-1.53-0.67-2.9-1.53-4.11-2.58c-1.22-1.05-2.19-2.34-2.94-3.88c-0.74-1.53-1.11-3.44-1.11-5.73c0-2.46,0.5-4.58,1.5-6.35
			c1-1.77,2.31-3.24,3.91-4.4c1.61-1.16,3.42-2.02,5.45-2.55c2.02-0.53,4.06-0.8,6.11-0.8c2.89,0,5.58,0.51,8.1,1.54
			c2.52,1.02,4.54,2.39,6.08,4.12L247.46,559.32z"/>
		<path class="st2" d="M281.47,600.87c-3.26,0-6.1-0.55-8.52-1.64c-2.42-1.09-4.42-2.55-6-4.36c-1.59-1.82-2.76-3.9-3.53-6.25
			c-0.77-2.35-1.15-4.79-1.15-7.3v-31.15h6.91v30.73c0,1.67,0.21,3.34,0.63,4.99c0.42,1.65,1.11,3.13,2.07,4.43
			c0.95,1.31,2.21,2.35,3.77,3.14c1.55,0.8,3.5,1.19,5.83,1.19c2.28,0,4.21-0.39,5.79-1.19c1.58-0.79,2.86-1.83,3.81-3.14
			c0.95-1.3,1.64-2.78,2.06-4.43c0.42-1.66,0.62-3.32,0.62-4.99v-30.73h6.92v31.15c0,2.51-0.39,4.95-1.15,7.3
			c-0.77,2.35-1.95,4.43-3.53,6.25c-1.58,1.81-3.59,3.27-6,4.36C287.57,600.32,284.73,600.87,281.47,600.87"/>
		<polygon class="st2" points="319.25,593.46 341.32,593.46 341.32,599.61 312.33,599.61 312.33,550.17 319.25,550.17 		"/>
		<polygon class="st2" points="358.98,599.61 352.07,599.61 352.07,556.24 336.22,556.24 336.22,550.17 374.84,550.17 
			374.84,556.24 358.98,556.24 		"/>
		<path class="st2" d="M429.16,574.82c0,3.81-0.66,7.32-1.99,10.51c-1.33,3.19-3.15,5.93-5.48,8.23c-2.33,2.31-5.1,4.1-8.31,5.38
			c-3.21,1.28-6.7,1.92-10.48,1.92c-3.77,0-7.25-0.64-10.44-1.92c-3.19-1.28-5.95-3.07-8.27-5.38c-2.33-2.3-4.14-5.05-5.45-8.23
			c-1.3-3.19-1.95-6.7-1.95-10.51c0-3.87,0.65-7.39,1.95-10.58c1.31-3.19,3.12-5.9,5.45-8.17c2.33-2.26,5.09-4.01,8.27-5.27
			c3.19-1.26,6.67-1.89,10.44-1.89c3.77,0,7.27,0.63,10.48,1.89c3.21,1.25,5.98,3.01,8.31,5.27c2.33,2.26,4.16,4.98,5.48,8.17
			C428.5,567.43,429.16,570.95,429.16,574.82 M421.69,574.82c0-2.7-0.44-5.25-1.32-7.64c-0.89-2.4-2.14-4.51-3.77-6.33
			c-1.63-1.81-3.59-3.24-5.9-4.28c-2.3-1.05-4.9-1.58-7.79-1.58c-2.84,0-5.41,0.53-7.72,1.58c-2.31,1.05-4.26,2.48-5.87,4.28
			c-1.61,1.82-2.85,3.93-3.73,6.33c-0.88,2.4-1.33,4.95-1.33,7.64c0,2.75,0.44,5.33,1.33,7.75c0.88,2.42,2.14,4.53,3.77,6.33
			c1.63,1.79,3.59,3.19,5.87,4.22c2.28,1.02,4.84,1.54,7.68,1.54c2.84,0,5.42-0.52,7.75-1.54c2.33-1.03,4.31-2.43,5.94-4.22
			c1.63-1.79,2.89-3.9,3.77-6.33C421.25,580.15,421.69,577.57,421.69,574.82"/>
		<path class="st2" d="M445.5,599.61h-6.91v-49.44h15.86c2.37,0,4.63,0.25,6.77,0.73c2.14,0.49,4.02,1.27,5.62,2.35
			c1.61,1.06,2.88,2.47,3.81,4.22c0.93,1.75,1.4,3.87,1.4,6.39c0,3.64-1.12,6.56-3.36,8.8c-2.23,2.24-5.12,3.66-8.66,4.26
			l13.83,22.7h-8.38l-12.57-22h-7.4V599.61z M445.5,571.82h7.96c1.63,0,3.14-0.14,4.54-0.42c1.4-0.28,2.62-0.73,3.67-1.36
			c1.05-0.63,1.87-1.44,2.48-2.44c0.61-1.01,0.91-2.25,0.91-3.74c0-1.49-0.31-2.74-0.91-3.73c-0.61-1.01-1.4-1.81-2.41-2.42
			c-1-0.6-2.18-1.04-3.53-1.29c-1.35-0.25-2.77-0.39-4.26-0.39h-8.45V571.82z"/>
		<rect x="481.46" y="550.17" class="st2" width="6.91" height="49.44"/>
		<path class="st2" d="M502.41,599.61h-7.68l21.44-49.44h6.28l21.23,49.44h-7.83l-5.02-12.15h-23.46L502.41,599.61z M509.82,581.39
			h18.5l-9.22-23.18L509.82,581.39z"/>
		<path class="st2" d="M281.03,327.76c0,4.89-0.53,10.04-1.6,15.44c-1.07,5.4-3.04,10.42-5.93,15.06
			c-2.89,4.65-6.97,8.47-12.24,11.49c-5.28,3.02-12.05,4.52-20.34,4.52c-10.8,0-19.42-2.7-25.89-8.1
			c-6.47-5.4-10.89-12.49-13.28-21.28l21.84-6.22c1.13,4.39,3.2,7.88,6.22,10.45c3.01,2.58,6.59,3.86,10.73,3.86
			c3.39,0,6.18-0.62,8.38-1.88c2.19-1.25,3.89-3.05,5.08-5.37c1.2-2.32,2.04-5.08,2.54-8.28c0.5-3.19,0.75-6.68,0.75-10.45v-89.44
			h23.72V327.76z"/>
		<path class="st2" d="M640.29,237.56h20.53l57.43,133.32h-27.12l-12.42-30.5H620.9l-12.05,30.5h-26.55L640.29,237.56z
			 M670.42,320.04l-20.52-54.23l-20.9,54.23H670.42z"/>
	</g>
</g>
</svg>
