<?xml version="1.0" encoding="UTF-8"?>
<svg version="1.1" xmlns="http://www.w3.org/2000/svg" width="750" height="333">
<path d="M0 0 C1.00023193 0.00523682 2.00046387 0.01047363 3.03100586 0.01586914 C4.1105957 0.0190918 5.19018555 0.02231445 6.30249023 0.02563477 C8.00695312 0.03820312 8.00695312 0.03820312 9.74584961 0.05102539 C11.45611328 0.05779297 11.45611328 0.05779297 13.20092773 0.06469727 C16.02845312 0.07652792 18.85587601 0.09301129 21.68334961 0.11352539 C20.11457434 9.45191544 17.20536415 18.27209586 14.24584961 27.23852539 C13.71057286 28.86872088 13.17533578 30.4989294 12.64013672 32.12915039 C11.54086689 35.47093067 10.43620681 38.81087113 9.32788086 42.1496582 C8.25206597 45.39119996 7.18418439 48.63514646 6.12475586 51.88208008 C4.91083063 55.60152449 3.68192361 59.31565958 2.44064331 63.02606201 C1.98119045 64.40645884 1.52661483 65.78848956 1.07717896 67.17218018 C0.45110178 69.09484867 -0.19601768 71.01062641 -0.84399414 72.92602539 C-1.38141235 74.54444336 -1.38141235 74.54444336 -1.9296875 76.19555664 C-4.12100733 80.80577572 -6.63414184 83.39248911 -11.34057617 85.40942383 C-16.76758567 86.65590044 -22.39933508 86.39845663 -27.93383789 86.37915039 C-29.14556671 86.38106384 -30.35729553 86.38297729 -31.60574341 86.38494873 C-34.16253874 86.38630646 -36.71934106 86.38263886 -39.27612305 86.37426758 C-43.17130178 86.36358122 -47.06601736 86.37416766 -50.96118164 86.38696289 C-53.45206807 86.38564086 -55.94295421 86.38307757 -58.43383789 86.37915039 C-60.16861893 86.38522308 -60.16861893 86.38522308 -61.93844604 86.39141846 C-77.94272802 86.29951829 -77.94272802 86.29951829 -83.81665039 81.67602539 C-87.65005127 77.74678948 -87.64118216 74.32084633 -87.58422852 69.09155273 C-87.0669921 63.334938 -85.27177309 57.92534844 -83.56665039 52.42602539 C-83.21860352 51.24202148 -82.87055664 50.05801758 -82.51196289 48.83813477 C-78.23207753 34.69073592 -78.23207753 34.69073592 -73.63305664 30.62524414 C-60.63011175 24.51472884 -45.48809051 25.86920657 -31.50415039 25.98852539 C-29.44360788 25.99857761 -27.3830606 26.00769948 -25.32250977 26.01586914 C-20.32043721 26.03769958 -15.31859752 26.07210536 -10.31665039 26.11352539 C-10.12474121 25.33066162 -9.93283203 24.54779785 -9.73510742 23.74121094 C-8.33915795 18.09364532 -6.91111479 12.48382175 -5.19165039 6.92602539 C-4.85907227 5.8393457 -4.52649414 4.75266602 -4.18383789 3.63305664 C-2.98371542 0.14621432 -2.98371542 0.14621432 0 0 Z M-53.18359375 45.36035156 C-53.55750244 46.26889893 -53.93141113 47.17744629 -54.31665039 48.11352539 C-54.64632812 48.86069824 -54.97600586 49.60787109 -55.31567383 50.37768555 C-56.24232551 52.82789565 -57.1615609 55.28025765 -58.06665039 57.73852539 C-58.39536133 58.59704102 -58.72407227 59.45555664 -59.06274414 60.34008789 C-59.36825195 61.16508789 -59.67375977 61.99008789 -59.98852539 62.84008789 C-60.40763184 63.96278076 -60.40763184 63.96278076 -60.83520508 65.1081543 C-61.54838208 67.29992268 -61.54838208 67.29992268 -60.31665039 70.11352539 C-56.13577887 70.18794529 -51.95526309 70.24225357 -47.77392578 70.27832031 C-46.35295898 70.29336299 -44.93203826 70.31380243 -43.51123047 70.33984375 C-41.46318154 70.37642886 -39.41574889 70.39329636 -37.36743164 70.40649414 C-36.13677979 70.42220459 -34.90612793 70.43791504 -33.63818359 70.45410156 C-29.94824858 70.075751 -28.16178131 69.47857205 -25.31665039 67.11352539 C-23.91796619 64.55829485 -23.91796619 64.55829485 -23.07836914 61.57055664 C-22.73354492 60.49741211 -22.3887207 59.42426758 -22.03344727 58.31860352 C-21.6937793 57.19905273 -21.35411133 56.07950195 -21.00415039 54.92602539 C-20.64514648 53.79487305 -20.28614258 52.6637207 -19.91625977 51.49829102 C-19.03327948 48.70807331 -18.16756754 45.9136549 -17.31665039 43.11352539 C-22.10374507 42.98994085 -26.8899122 42.89919768 -31.67822266 42.83886719 C-33.30696789 42.81371971 -34.93560024 42.77959661 -36.56396484 42.73632812 C-38.90498673 42.67567989 -41.2445177 42.64732063 -43.58618164 42.62524414 C-44.31440628 42.59943771 -45.04263092 42.57363129 -45.79292297 42.54704285 C-49.33293226 42.5450782 -50.86352966 42.56820434 -53.18359375 45.36035156 Z " fill="#3C496E" transform="translate(352.316650390625,147.886474609375)"/>
<path d="M0 0 C8.17182364 -0.06983066 16.34352044 -0.1229777 24.51556969 -0.15543652 C28.3111063 -0.17102331 32.1064372 -0.19213188 35.90185547 -0.22631836 C39.57178362 -0.25916373 43.24151522 -0.27690541 46.91157913 -0.28463173 C48.30447097 -0.29013047 49.69735333 -0.30086686 51.09016037 -0.31719017 C62.67009886 -0.44737792 71.90317073 0.4515672 81 8 C84.77403019 15.54806038 80.79397088 25.46864867 78.42944336 32.86987305 C77.80997425 34.82045307 77.22331012 36.77896989 76.63867188 38.74023438 C76.05375977 40.61098633 76.05375977 40.61098633 75.45703125 42.51953125 C75.10616455 43.64464111 74.75529785 44.76975098 74.39379883 45.92895508 C71.79849408 51.64735383 67.69199581 54.62833508 62 57 C58.40167429 57.87579742 55.04076326 58.13521822 51.34277344 58.16113281 C50.23101746 58.17074036 49.11926147 58.1803479 47.97381592 58.19024658 C46.78105042 58.19449646 45.58828491 58.19874634 44.359375 58.203125 C43.12262024 58.20882507 41.88586548 58.21452515 40.6116333 58.22039795 C37.99581759 58.22983716 35.37999005 58.23637764 32.76416016 58.24023438 C28.77880874 58.24678265 24.79382459 58.28096114 20.80859375 58.3125 C18.26302388 58.31903152 15.71745034 58.32428141 13.171875 58.328125 C11.98720642 58.3404718 10.80253784 58.3528186 9.58197021 58.36553955 C2.52326091 58.34669879 -4.82693972 58.22111222 -10.6519165 53.72491455 C-13.07179755 51.19467244 -13.97138246 49.31285934 -14.2890625 45.83984375 C-13.94824827 41.31254122 -12.83830283 37.5616184 -11.3125 33.3125 C-11.06822266 32.56677734 -10.82394531 31.82105469 -10.57226562 31.05273438 C-10.31767578 30.33021484 -10.06308594 29.60769531 -9.80078125 28.86328125 C-9.57559814 28.21657471 -9.35041504 27.56986816 -9.1184082 26.90356445 C-7.51455289 24.1737544 -5.60470174 22.78628492 -3 21 C-0.23478699 20.48101807 -0.23478699 20.48101807 2.80004883 20.45410156 C4.51125664 20.42452362 4.51125664 20.42452362 6.2570343 20.39434814 C7.47803329 20.39311951 8.69903229 20.39189087 9.95703125 20.390625 C11.21513107 20.37408875 12.4732309 20.35755249 13.76945496 20.34051514 C17.10196091 20.30021503 20.43370343 20.27686464 23.76635742 20.26177979 C27.17186968 20.24217401 30.57709957 20.20020814 33.98242188 20.16015625 C40.65487896 20.08620769 47.32722915 20.03460391 54 20 C54.66 18.68 55.32 17.36 56 16 C36.2 16 16.4 16 -4 16 C-3.18070152 9.44561216 -2.3760065 5.78505931 0 0 Z M14 37 C13.67 38.65 13.34 40.3 13 42 C17.64475959 42.04944066 22.28936596 42.08573863 26.93432617 42.10986328 C28.51443144 42.11992041 30.0945181 42.13356785 31.67456055 42.15087891 C33.9458475 42.17514022 36.21688836 42.18648582 38.48828125 42.1953125 C39.19463211 42.20563507 39.90098297 42.21595764 40.6287384 42.22659302 C44.32197792 42.22743775 45.83919216 42.10720523 49 40 C49 39.01 49 38.02 49 37 C37.45 37 25.9 37 14 37 Z " fill="#3C496E" transform="translate(369,176)"/>
<path d="M0 0 C1.14849426 -0.0127597 2.29698853 -0.02551941 3.48028564 -0.03866577 C4.70850037 -0.04089142 5.93671509 -0.04311707 7.20214844 -0.04541016 C8.47950867 -0.05206696 9.7568689 -0.05872375 11.07293701 -0.06558228 C13.77278013 -0.07752339 16.47249564 -0.08126655 19.17236328 -0.08007812 C22.60630137 -0.07987547 26.03940693 -0.10713511 29.47314835 -0.14162254 C32.7786583 -0.16941928 36.08402348 -0.16804562 39.38964844 -0.17041016 C40.60976624 -0.18478119 41.82988403 -0.19915222 43.0869751 -0.21395874 C51.57947276 -0.16895279 59.06360334 0.86373869 65.68652344 6.54052734 C68.75446475 12.67640997 66.85641233 19.14978253 64.83105469 25.33349609 C64.59875656 26.06498367 64.36645844 26.79647125 64.12712097 27.55012512 C63.63610788 29.08389201 63.13914086 30.61576458 62.63647461 32.14575195 C61.8745293 34.47647995 61.14195629 36.81511493 60.41113281 39.15576172 C59.92785299 40.65307126 59.44288369 42.14983676 58.95605469 43.64599609 C58.74124954 44.33880173 58.5264444 45.03160736 58.30513 45.7454071 C56.74839225 50.37989394 54.88540718 53.24285561 51.06152344 56.29052734 C46.9326163 57.94332744 43.44752402 58.54527123 39.01538086 58.56518555 C37.2577668 58.57948357 37.2577668 58.57948357 35.46464539 58.59407043 C34.21141983 58.59315903 32.95819427 58.59224762 31.66699219 58.59130859 C30.36506424 58.59559372 29.06313629 58.59987885 27.72175598 58.60429382 C24.97063109 58.61173452 22.21963455 58.61148117 19.46850586 58.60620117 C15.96510391 58.60041948 12.46223288 58.61731584 8.95891857 58.64054585 C5.59075562 58.65893723 2.2227049 58.65509544 -1.14550781 58.65380859 C-2.39266068 58.66301834 -3.63981354 58.67222809 -4.92475891 58.68171692 C-12.75546634 58.64042343 -20.18469392 58.38739802 -26.43847656 53.22802734 C-29.31256934 49.51565751 -29.19692653 46.96750587 -28.93847656 42.29052734 C-28.3094927 39.41876876 -27.42021575 36.65931632 -26.48925781 33.87255859 C-26.10751656 32.70305916 -26.10751656 32.70305916 -25.71806335 31.50993347 C-25.17946426 29.87195574 -24.63540809 28.23576332 -24.08618164 26.60131836 C-23.25197754 24.10602149 -22.44707419 21.60248925 -21.64355469 19.09716797 C-21.11470967 17.5008827 -20.58416775 15.90515839 -20.05175781 14.31005859 C-19.81507889 13.56520706 -19.57839996 12.82035553 -19.33454895 12.05293274 C-17.7556802 7.45957376 -16.24268942 4.89798883 -11.93847656 2.29052734 C-7.83442991 0.70059921 -4.39152884 0.03332452 0 0 Z M5.06152344 18.29052734 C4.00764728 20.43863766 4.00764728 20.43863766 3.23730469 22.97412109 C2.93115234 23.90160156 2.625 24.82908203 2.30957031 25.78466797 C2.00083984 26.75597656 1.69210937 27.72728516 1.37402344 28.72802734 C1.05369141 29.69546875 0.73335937 30.66291016 0.40332031 31.65966797 C-1.3636878 36.8703208 -1.3636878 36.8703208 -1.93847656 42.29052734 C2.56386717 42.33997439 7.06605274 42.37626896 11.56860352 42.40039062 C13.10020705 42.41044669 14.63179139 42.42409335 16.16333008 42.44140625 C18.36511979 42.46567233 20.56665563 42.47701422 22.76855469 42.48583984 C23.79527031 42.5013237 23.79527031 42.5013237 24.84272766 42.51712036 C28.49214005 42.51798116 29.93300845 42.376204 33.06152344 40.29052734 C34.21459535 37.7993617 34.21459535 37.7993617 35.10449219 34.84521484 C35.45576172 33.76884766 35.80703125 32.69248047 36.16894531 31.58349609 C36.52537109 30.45556641 36.88179687 29.32763672 37.24902344 28.16552734 C37.80106445 26.46203125 37.80106445 26.46203125 38.36425781 24.72412109 C39.27282451 21.91582402 40.17144613 19.10472839 41.06152344 16.29052734 C36.41676385 16.24108669 31.77215747 16.20478871 27.12719727 16.18066406 C25.547092 16.17060693 23.96700534 16.1569595 22.38696289 16.13964844 C20.11567594 16.11538713 17.84463508 16.10404152 15.57324219 16.09521484 C14.86689133 16.08489227 14.16054047 16.0745697 13.43278503 16.06393433 C9.73954552 16.0630896 8.22233128 16.18332212 5.06152344 18.29052734 Z " fill="#3B486D" transform="translate(568.9384765625,175.70947265625)"/>
<path d="M0 0 C8.52845253 -0.04660414 17.05685071 -0.08201047 25.58539963 -0.10362434 C29.54672536 -0.11400461 33.50796314 -0.12805683 37.46923828 -0.15087891 C41.30126036 -0.17281492 45.13319854 -0.18461176 48.96527863 -0.18975449 C50.41790332 -0.19341338 51.8705241 -0.2005567 53.32311249 -0.21146011 C76.22428853 -0.37632291 76.22428853 -0.37632291 81.28192139 3.95358276 C84.38401718 7.64851398 84.23399263 11.30844782 84 16 C82.03193586 28.24860971 77.86806219 39.97749301 73.80615234 51.66088867 C72.85052951 54.4336998 71.92745332 57.21764005 71 60 C61.76 60 52.52 60 43 60 C47.39063497 45.54118483 51.83676981 31.19888303 57 17 C45.12 17 33.24 17 21 17 C20.01 20.63 19.02 24.26 18 28 C17.12696761 30.70654247 16.23968933 33.39177125 15.30078125 36.07421875 C14.94091377 37.11628227 14.94091377 37.11628227 14.57377625 38.17939758 C13.82335684 40.34993918 13.06804244 42.5187371 12.3125 44.6875 C11.79589521 46.17892263 11.27961686 47.67045837 10.76367188 49.16210938 C9.51346334 52.77627562 8.25661522 56.38803129 7 60 C-1.91 60 -10.82 60 -20 60 C-18.01174679 52.70973824 -15.94873441 45.60183456 -13.49609375 38.4765625 C-13.17214127 37.52735931 -12.84818878 36.57815613 -12.51441956 35.60018921 C-11.83615271 33.61491475 -11.15628161 31.6301877 -10.47485352 29.64599609 C-9.43334367 26.61289587 -8.39692957 23.57809078 -7.36132812 20.54296875 C-6.69821094 18.604066 -6.03480957 16.66526041 -5.37109375 14.7265625 C-5.06272079 13.82443024 -4.75434784 12.92229797 -4.43663025 11.99282837 C-4.00091454 10.72528214 -4.00091454 10.72528214 -3.55639648 9.43212891 C-3.17692116 8.32606796 -3.17692116 8.32606796 -2.78977966 7.19766235 C-1.91848818 4.77318298 -0.96925062 2.38681303 0 0 Z " fill="#3D4A6F" transform="translate(185,174)"/>
<path d="M0 0 C1.12591553 0.00523682 2.25183105 0.01047363 3.41186523 0.01586914 C4.62680664 0.0190918 5.84174805 0.02231445 7.09350586 0.02563477 C8.37290039 0.03401367 9.65229492 0.04239258 10.97045898 0.05102539 C12.2537207 0.05553711 13.53698242 0.06004883 14.85913086 0.06469727 C18.04211921 0.07652994 21.22501661 0.09301471 24.40795898 0.11352539 C23.74507122 7.03367185 21.61561022 13.44189517 19.53295898 20.05102539 C19.14237305 21.30052979 18.75178711 22.55003418 18.34936523 23.83740234 C15.19084095 33.87787056 11.83341836 43.84885313 8.40795898 53.80102539 C8.16499084 54.5070993 7.92202271 55.21317322 7.67169189 55.94064331 C3.6203139 67.68881557 3.6203139 67.68881557 2.40795898 70.11352539 C28.47795898 70.11352539 54.54795898 70.11352539 81.40795898 70.11352539 C80.60776014 74.91471847 79.85912456 77.75466443 77.84545898 81.98852539 C77.39041992 82.95532227 76.93538086 83.92211914 76.46655273 84.91821289 C75.94254883 86.00489258 75.94254883 86.00489258 75.40795898 87.11352539 C65.72334549 87.18340482 56.03882039 87.23652762 46.35400867 87.26896191 C41.85570608 87.28453813 37.35757749 87.30562712 32.859375 87.33984375 C28.50863145 87.37272707 24.15805401 87.39043869 19.80719566 87.39815712 C18.15721718 87.40364914 16.50724654 87.41437175 14.85733986 87.43071556 C-11.01898151 87.67656963 -11.01898151 87.67656963 -20.05688477 79.82836914 C-22.80975413 76.75328097 -24.12424941 74.23068092 -24.59204102 70.11352539 C-23.14114067 61.41673322 -20.05886175 52.8948091 -17.39672852 44.50805664 C-16.80736008 42.63932137 -16.80736008 42.63932137 -16.20608521 40.73283386 C-15.3830957 38.12454158 -14.55761441 35.51705592 -13.73022461 32.91015625 C-12.66863698 29.5647462 -11.61317381 26.21743987 -10.55946159 22.86954212 C-9.54996681 19.6647365 -8.53567359 16.46145711 -7.52172852 13.25805664 C-7.14257294 12.05405716 -6.76341736 10.85005768 -6.37277222 9.60957336 C-6.02215729 8.50719833 -5.67154236 7.4048233 -5.31030273 6.26904297 C-5.00180389 5.29485916 -4.69330505 4.32067535 -4.37545776 3.31697083 C-3.24669349 0.14219765 -3.24669349 0.14219765 0 0 Z " fill="#3F4C70" transform="translate(56.592041015625,147.886474609375)"/>
<path d="M0 0 C1.02255299 3.22229572 0.95109145 5.5738705 0.3984375 8.89453125 C0.24084961 9.84255615 0.08326172 10.79058105 -0.07910156 11.76733398 C-0.25924805 12.77223877 -0.43939453 13.77714355 -0.625 14.8125 C-0.81030273 15.84769775 -0.99560547 16.88289551 -1.18652344 17.94946289 C-4.5305876 35.82017518 -10.98320015 53.1201304 -23 67 C-23.639375 67.86625 -24.27875 68.7325 -24.9375 69.625 C-33.45490261 79.43291816 -45.81038316 87.58574537 -58 92 C-59.1446875 92.42732422 -59.1446875 92.42732422 -60.3125 92.86328125 C-67.11508746 95.16351515 -73.85630407 95.67528655 -81 96 C-80 93 -80 93 -77.296875 91.52734375 C-76.12640625 91.00269531 -74.9559375 90.47804688 -73.75 89.9375 C-54.49161381 80.80899033 -39.33553962 65.32890788 -31.6875 45.375 C-29.7768635 39.67705738 -28.34837598 33.85317754 -27 28 C-43.41808193 27.34152343 -43.41808193 27.34152343 -59 32 C-59.89460937 32.40089844 -60.78921875 32.80179688 -61.7109375 33.21484375 C-69.81705002 37.22144664 -76.35270267 42.97269316 -83 49 C-83.73089844 49.64710937 -84.46179688 50.29421875 -85.21484375 50.9609375 C-91.79821325 57.12695638 -96.80834644 64.67060674 -102 72 C-102.66 71.67 -103.32 71.34 -104 71 C-101.46126509 52.3972011 -91.7233894 34.46707084 -77.09765625 22.65625 C-54.91551222 6.64342909 -27.43194875 -1.53346297 0 0 Z " fill="#F9EA2E" transform="translate(665,70)"/>
<path d="M0 0 C0.75190109 -0.00029205 1.50380219 -0.00058411 2.27848816 -0.00088501 C4.74583774 0.00050027 7.21287943 0.0160233 9.68017578 0.03173828 C11.39795771 0.03547127 13.11574178 0.03831689 14.83352661 0.04031372 C19.34132834 0.04792767 23.84899995 0.06755683 28.35675049 0.08972168 C32.96193685 0.11022843 37.56714436 0.11932575 42.17236328 0.12939453 C51.19846193 0.15080493 60.22446426 0.18491373 69.25048828 0.22705078 C68.61406762 6.10930777 67.50040002 10.74900481 65.25048828 16.22705078 C64.51799362 16.23291702 63.78549896 16.23878326 63.0308075 16.24482727 C56.1296684 16.30271718 49.22880716 16.37477244 42.32799053 16.46276569 C38.78012549 16.5075046 35.2323762 16.54675249 31.68432617 16.57348633 C27.60582287 16.60445704 23.52794283 16.65924683 19.44970703 16.71533203 C17.53710335 16.72491692 17.53710335 16.72491692 15.58586121 16.73469543 C13.81436455 16.76438667 13.81436455 16.76438667 12.00708008 16.79467773 C10.44487984 16.81133232 10.44487984 16.81133232 8.85112 16.82832336 C5.86161746 17.02414307 5.86161746 17.02414307 3.25048828 20.22705078 C0.61048828 27.48705078 -2.02951172 34.74705078 -4.74951172 42.22705078 C15.71048828 42.22705078 36.17048828 42.22705078 57.25048828 42.22705078 C56.03939659 47.6769634 54.83545398 52.9060945 53.25048828 58.22705078 C44.14871319 58.29678508 35.0470311 58.34998039 25.94504642 58.3824873 C21.71790646 58.39809472 17.49095025 58.41924214 13.26391602 58.45336914 C9.1790278 58.48613941 5.09431555 58.50394076 1.00930595 58.51168251 C-0.54350107 58.51719449 -2.09629926 58.52795755 -3.64903069 58.54424095 C-22.8490685 58.73744968 -22.8490685 58.73744968 -29.24951172 52.97705078 C-31.73054008 48.42849878 -32.20196124 44.18585392 -30.85668945 39.20703125 C-30.39864794 37.74749039 -29.92324319 36.29331611 -29.43310547 34.84423828 C-29.17956802 34.06694366 -28.92603058 33.28964905 -28.66481018 32.48880005 C-28.12659554 30.85429372 -27.58070923 29.22229567 -27.02758789 27.59277344 C-26.18971763 25.11006871 -25.38938493 22.61732182 -24.59130859 20.12158203 C-24.06163689 18.52839122 -23.52980663 16.93591608 -22.99560547 15.34423828 C-22.76095078 14.60454803 -22.52629608 13.86485779 -22.28453064 13.10275269 C-20.45668631 7.85459778 -18.39667076 5.32944881 -13.74951172 2.22705078 C-9.12415042 0.32134752 -4.94067961 -0.05086544 0 0 Z " fill="#3D4A6F" transform="translate(478.74951171875,175.77294921875)"/>
<path d="M0 0 C25.2447958 -1.26929141 50.81545991 5.46612637 70.1237793 22.28198242 C83.52057541 34.42373677 93.03144132 49.99074401 96 68 C96 69.32 96 70.64 96 72 C92.04774066 70.68258022 91.75425799 69.18311763 89.8125 65.5625 C79.37087532 47.08717247 64.1438274 33.31251266 43.55859375 27.28515625 C38.42579207 26.06221046 33.24700297 25.49971457 28 25 C27.43141557 42.05753288 32.64493539 56.72994439 43.82421875 69.7109375 C50.68937657 76.93352723 58.13116969 83.04898054 66.31689453 88.68945312 C69.10940385 90.61422458 71.72334933 92.47129158 74 95 C66.08446648 97.63851117 54.80469355 91.75479053 47.625 88.1875 C41.55161926 85.06274235 36.08190643 81.60035481 31 77 C30.34 76.43152344 29.68 75.86304688 29 75.27734375 C9.01661041 56.89418653 2.71617853 27.89671581 0 2 C0 1.34 0 0.68 0 0 Z " fill="#E3383A" transform="translate(415,64)"/>
<path d="M0 0 C19.25817396 15.72095833 31.93216324 39.40395221 35 64 C36.10434431 82.68890375 32.00672177 100.60350063 21 116 C20.01 116.495 20.01 116.495 19 117 C19.48686491 110.83731522 20.16679736 104.74245849 21.0625 98.625 C23.82340335 77.9182249 20.42035954 59.19811502 7.96484375 42.1796875 C6.05125977 40.05686472 4.6301972 39.04270624 2 38 C-8.97634095 46.36143519 -13.38549424 58.7532852 -15.6875 71.9375 C-16.91369112 84.60814153 -15.77068978 97.86058443 -12.875 110.25 C-12.1493384 113.35997829 -11.795988 115.83781406 -12 119 C-25.0342898 106.69109676 -30.69989971 89.4447345 -31.3125 71.8125 C-30.98479058 58.41496766 -27.70071879 46.05616758 -22 34 C-21.68289063 33.32469238 -21.36578125 32.64938477 -21.0390625 31.95361328 C-15.62363119 20.63735589 -8.94192072 8.94192072 0 0 Z " fill="#316991" transform="translate(535,16)"/>
<path d="M0 0 C1.83121902 0.00022659 1.83121902 0.00022659 3.69943237 0.00045776 C5.65443161 0.01594162 5.65443161 0.01594162 7.64892578 0.03173828 C9.00798331 0.03547277 10.36704354 0.03831768 11.72610474 0.04031372 C15.28698278 0.04791595 18.84769525 0.06753468 22.4085083 0.08972168 C26.04852052 0.11025399 29.68855973 0.11933117 33.32861328 0.12939453 C40.45888896 0.15078416 47.58905276 0.18487844 54.71923828 0.22705078 C54.21152356 6.19269874 52.333317 10.86514978 49.71923828 16.22705078 C47.78890747 16.23321411 47.78890747 16.23321411 45.81958008 16.23950195 C41.05012828 16.26125502 36.28150598 16.31550481 31.51245117 16.37963867 C29.44742781 16.40285213 27.38228549 16.41722221 25.31713867 16.42260742 C22.35015443 16.43187257 19.38504984 16.47280898 16.41845703 16.52001953 C15.49336838 16.51608688 14.56827972 16.51215424 13.61515808 16.50810242 C11.21964805 16.56277548 9.05104496 16.67733199 6.71923828 17.22705078 C4.59165104 19.20677059 4.59165104 19.20677059 3.71923828 22.22705078 C3.49179428 22.81971237 3.26435028 23.41237396 3.03001404 24.022995 C2.2476613 26.11271888 1.5376772 28.21816288 0.83642578 30.33642578 C0.44682175 31.48754852 0.44682175 31.48754852 0.04934692 32.66192627 C-0.77455216 35.09847885 -1.59066585 37.53754058 -2.40576172 39.97705078 C-3.22901174 42.43047986 -4.0539373 44.88331212 -4.8822937 47.33502197 C-5.39635237 48.85749987 -5.90728477 50.38103753 -6.41482544 51.90570068 C-8.16901341 57.11530247 -8.16901341 57.11530247 -9.28076172 58.22705078 C-11.20743679 58.31453285 -13.13728033 58.33402412 -15.06591797 58.32470703 C-16.8206543 58.31987305 -16.8206543 58.31987305 -18.61083984 58.31494141 C-20.45838867 58.30237305 -20.45838867 58.30237305 -22.34326172 58.28955078 C-24.19661133 58.2827832 -24.19661133 58.2827832 -26.08740234 58.27587891 C-29.15190289 58.26404686 -32.21630893 58.24756251 -35.28076172 58.22705078 C-32.88221081 48.50076525 -29.6612377 39.04604595 -26.40258789 29.58203125 C-25.77696981 27.75405597 -25.15951551 25.92326732 -24.55004883 24.08984375 C-23.65967951 21.41277615 -22.74460435 18.74531874 -21.82373047 16.07861328 C-21.55787643 15.26397614 -21.2920224 14.44933899 -21.01811218 13.61001587 C-19.09430982 8.16272667 -17.14280349 5.42123569 -12.28076172 2.22705078 C-8.05005494 0.54461062 -4.53932779 -0.01883539 0 0 Z " fill="#3E4B70" transform="translate(662.28076171875,175.77294921875)"/>
<path d="M0 0 C0.97582031 0.00902344 1.95164062 0.01804687 2.95703125 0.02734375 C4.06111328 0.04474609 4.06111328 0.04474609 5.1875 0.0625 C6.86854911 5.08563484 5.3466683 8.89234873 3.6875 13.6875 C3.27745728 14.88802002 3.27745728 14.88802002 2.85913086 16.11279297 C-1.39309983 28.02866205 -8.6457084 38.4374063 -18.8125 46.0625 C-19.20308594 46.53945312 -19.59367188 47.01640625 -19.99609375 47.5078125 C-22.68425142 49.80864423 -25.79404473 50.624299 -29.125 51.625 C-29.83124512 51.84115967 -30.53749023 52.05731934 -31.26513672 52.2800293 C-39.95966814 54.83512913 -48.72996414 56.21251185 -57.8125 56.0625 C-56.80862476 38.99662093 -46.99868882 23.48195405 -34.8125 12.0625 C-25.06973219 4.22316729 -12.52398051 -0.15089133 0 0 Z " fill="#F2D533" transform="translate(613.8125,110.9375)"/>
<path d="M0 0 C13.56099486 0.05746184 26.67008502 5.30798145 37 14 C37.70511719 14.57105469 38.41023438 15.14210938 39.13671875 15.73046875 C49.05011797 24.58643872 53.68412743 38.21235583 56 51 C56.05779528 53.33261745 56.07446184 55.66785509 56 58 C39.22409147 56.8816061 23.52770507 49.10345333 11.99609375 36.875 C3.02948557 26.02985835 -0.44770375 13.87881624 0 0 Z " fill="#F12122" transform="translate(457,105)"/>
<path d="M0 0 C1.6342168 2.1850764 3.01000599 4.27777142 4.375 6.625 C4.77203125 7.29781006 5.1690625 7.97062012 5.578125 8.66381836 C13.19121402 21.97583941 17.14544536 36.15216487 13.74609375 51.34375 C10.88162725 61.54185064 5.72143051 70.19779921 0 79 C-7.89177033 75.94345 -11.61857599 65.12226219 -14.95703125 57.8984375 C-19.27282623 45.90473011 -20.54945987 30.42781786 -15.33984375 18.5625 C-5.63414634 0 -5.63414634 0 0 0 Z " fill="#1D7EAB" transform="translate(539,75)"/>
<path d="M0 0 C8.25 0 16.5 0 25 0 C23.87484849 7.87606058 23.87484849 7.87606058 22.37353516 12.01391602 C22.04294098 12.93499649 21.7123468 13.85607697 21.37173462 14.80506897 C21.01445282 15.77818527 20.65717102 16.75130157 20.2890625 17.75390625 C19.9202597 18.77298569 19.55145691 19.79206512 19.17147827 20.84202576 C18.39293141 22.98887258 17.61109553 25.13452917 16.82617188 27.27905273 C15.62872117 30.55232805 14.44245791 33.82949329 13.2578125 37.10742188 C12.49805352 39.19815578 11.73765816 41.28865857 10.9765625 43.37890625 C10.62332916 44.35404678 10.27009583 45.32918732 9.90615845 46.33387756 C9.56925995 47.25180588 9.23236145 48.16973419 8.88525391 49.11547852 C8.59292877 49.91599136 8.30060364 50.71650421 7.99942017 51.54127502 C6.82498619 54.43056047 5.39479501 57.21040999 4 60 C-4.25 60 -12.5 60 -21 60 C-17.625 48.75 -17.625 48.75 -16.00708008 44.27490234 C-15.46685966 42.77447891 -15.46685966 42.77447891 -14.91572571 41.2437439 C-14.53748154 40.20166779 -14.15923737 39.15959167 -13.76953125 38.0859375 C-13.37424728 36.99028473 -12.97896332 35.89463196 -12.57170105 34.76577759 C-11.32114735 31.30127104 -10.06688698 27.83812024 -8.8125 24.375 C-7.95873807 22.01180772 -7.10522003 19.64852731 -6.25195312 17.28515625 C-4.17123905 11.52224554 -2.08550713 5.76118686 0 0 Z " fill="#3F4C70" transform="translate(157,174)"/>
<path d="M0 0 C1.28648437 -0.02578125 2.57296875 -0.0515625 3.8984375 -0.078125 C9.01911801 0.37275253 12.27060806 1.93221325 15.9375 5.5 C19.87251016 11.91260915 18.30591241 18.01051818 16.6875 24.875 C14.9153958 32.92813014 14.23110623 39.97823092 14.625 48.25 C10.005 48.25 5.385 48.25 0.625 48.25 C0.625 46.93 0.625 45.61 0.625 44.25 C-0.33599609 44.79140625 -0.33599609 44.79140625 -1.31640625 45.34375 C-6.47748844 48.11273597 -10.3735558 50.17329911 -16.375 49.25 C-21.01196928 47.52250164 -24.03607692 45.65797042 -26.375 41.25 C-27.16620435 34.84035577 -27.33173327 29.59020644 -23.375 24.25 C-15.32517287 18.83184713 -4.91076649 18.03120612 4.625 18.25 C4.625 15.94 4.625 13.63 4.625 11.25 C3.21006449 11.14115881 1.79267057 11.06402383 0.375 11 C-0.41390625 10.95359375 -1.2028125 10.9071875 -2.015625 10.859375 C-4.55918622 11.03237486 -4.55918622 11.03237486 -6.25 13.28125 C-8.375 15.25 -8.375 15.25 -11.609375 15.421875 C-12.76953125 15.28265625 -13.9296875 15.1434375 -15.125 15 C-16.29546875 14.87109375 -17.4659375 14.7421875 -18.671875 14.609375 C-20.00992188 14.43148438 -20.00992188 14.43148438 -21.375 14.25 C-20.63444672 9.82149139 -19.50227634 7.55101392 -16.375 4.25 C-10.95863854 0.45854698 -6.550274 0.0784464 0 0 Z M-13.375 31.25 C-13.41580783 33.24958364 -13.41754356 35.25045254 -13.375 37.25 C-9.72362953 38.90181045 -8.05755983 39.47751994 -4.1875 38.1875 C-0.05248378 35.33893327 1.71792217 32.1482203 2.625 27.25 C-2.7001431 26.91717856 -9.32862848 27.20362848 -13.375 31.25 Z " fill="#465275" transform="translate(635.375,267.75)"/>
<path d="M0 0 C3.22104405 1.65010007 5.35847774 3.71695548 7 7 C7.84471555 15.78483646 6.0066609 24.04289333 4.0625 32.5625 C3.78470703 33.83158203 3.50691406 35.10066406 3.22070312 36.40820312 C1.17141059 45.65717881 1.17141059 45.65717881 0 48 C-4.29 48 -8.58 48 -13 48 C-12.50376343 40.43239224 -11.07612703 33.23917596 -9.37207031 25.8659668 C-8.31128753 21.12699272 -7.70061982 16.86015053 -8 12 C-9.08635269 10.71277975 -9.08635269 10.71277975 -11.6875 10.625 C-15.95124258 11.10768784 -18.34409995 12.75074468 -21 16 C-23.73074776 22.28001422 -25.19197648 28.69640275 -26.625 35.375 C-27.05241983 37.34164005 -27.4819984 39.30781256 -27.9140625 41.2734375 C-28.0992041 42.13372559 -28.2843457 42.99401367 -28.47509766 43.88037109 C-29 46 -29 46 -30 48 C-34.29 48 -38.58 48 -43 48 C-42.39539872 41.82769272 -41.46344166 35.86696466 -40.15234375 29.80859375 C-39.88811363 28.56252098 -39.88811363 28.56252098 -39.61854553 27.29127502 C-39.06226143 24.67246469 -38.49999222 22.05498312 -37.9375 19.4375 C-37.55624186 17.64787136 -37.17537886 15.8581585 -36.79492188 14.06835938 C-35.86784137 9.7112536 -34.93539589 5.35532783 -34 1 C-29.71 1 -25.42 1 -21 1 C-20.67 1.99 -20.34 2.98 -20 4 C-18.39125 3.01 -18.39125 3.01 -16.75 2 C-11.32179632 -0.69478439 -5.94000211 -0.99138885 0 0 Z " fill="#455275" transform="translate(567,268)"/>
<path d="M0 0 C1.0533252 0.01135986 1.0533252 0.01135986 2.12792969 0.02294922 C7.53331512 0.19492734 11.90128229 0.85666265 16.0625 4.4375 C20.0625 9.3375 20.0625 9.3375 20.0625 13.4375 C16.07283065 14.37924013 12.15947451 15.18513067 8.0625 15.4375 C5.1875 13.625 5.1875 13.625 3.0625 11.4375 C-0.47198524 10.49977943 -3.5173771 9.91744538 -6.9375 11.4375 C-7.2675 12.4275 -7.5975 13.4175 -7.9375 14.4375 C-4.02001371 16.61388127 -0.15875354 18.03863792 4.125 19.375 C9.33709105 21.07361208 13.08751861 22.71014474 16.375 27.25 C17.86583838 31.99357667 17.45033735 35.50022641 15.5625 40.0625 C12.60322012 44.73837283 7.95871426 47.70062101 2.63671875 49.0546875 C-6.08618384 50.3518718 -14.44214978 49.93923633 -22.015625 45.11328125 C-26.61695428 41.55005675 -26.878309 40.792646 -27.9375 34.4375 C-23.6475 33.7775 -19.3575 33.1175 -14.9375 32.4375 C-14.2775 34.0875 -13.6175 35.7375 -12.9375 37.4375 C-9.43510966 39.18869517 -4.74443888 38.6187828 -0.9375 38.4375 C0.0525 37.7775 1.0425 37.1175 2.0625 36.4375 C2.0625 35.4475 2.0625 34.4575 2.0625 33.4375 C1.50788086 33.22134033 0.95326172 33.00518066 0.38183594 32.7824707 C-2.14752578 31.78675271 -4.66730547 30.76868531 -7.1875 29.75 C-8.06019531 29.41033203 -8.93289063 29.07066406 -9.83203125 28.72070312 C-14.69312083 26.73544898 -18.25193038 25.19961662 -20.9375 20.4375 C-21.97401131 16.25107119 -21.86280405 12.19328897 -19.83203125 8.33984375 C-14.63818396 1.78139315 -8.16155936 -0.12318597 0 0 Z " fill="#475376" transform="translate(684.9375,267.5625)"/>
<path d="M0 0 C1.35568336 0.00333092 1.35568336 0.00333092 2.73875427 0.00672913 C3.75973709 0.00680466 4.78071991 0.00688019 5.8326416 0.00695801 C6.94304306 0.01211929 8.05344452 0.01728058 9.19749451 0.02259827 C10.89336952 0.02472069 10.89336952 0.02472069 12.62350464 0.02688599 C16.25105891 0.03250433 19.8785525 0.04505994 23.50608826 0.05775452 C25.95856133 0.06276715 28.41103536 0.06733047 30.86351013 0.07142639 C36.89022371 0.08247971 42.91690165 0.09923568 48.94358826 0.12025452 C48.80251079 1.57905561 48.65556411 3.03729003 48.50608826 4.49525452 C48.42487732 5.30736389 48.34366638 6.11947327 48.25999451 6.95619202 C47.94358826 9.12025452 47.94358826 9.12025452 46.94358826 11.12025452 C40.67358826 11.12025452 34.40358826 11.12025452 27.94358826 11.12025452 C27.82048279 12.56134583 27.69737732 14.00243713 27.57054138 15.48719788 C27.03354035 20.83412842 26.05730894 26.00326392 24.91233826 31.24916077 C24.71636047 32.1648735 24.52038269 33.08058624 24.31846619 34.02404785 C23.90756356 35.93794975 23.49400212 37.85128263 23.0778656 39.76405334 C22.438781 42.70487566 21.8097525 45.64772557 21.18186951 48.59095764 C20.78011329 50.45631865 20.37779038 52.32155773 19.97483826 54.18666077 C19.78627258 55.06882767 19.59770691 55.95099457 19.40342712 56.8598938 C18.0590866 63.00475618 18.0590866 63.00475618 16.94358826 64.12025452 C14.59045271 64.19297193 12.23525157 64.2039632 9.88108826 64.18275452 C7.94556091 64.16921936 7.94556091 64.16921936 5.97093201 64.15541077 C4.97190857 64.1438092 3.97288513 64.13220764 2.94358826 64.12025452 C4.77807491 53.15080633 7.22243643 42.30101143 9.56858826 31.43275452 C9.99322688 29.45948153 10.4177074 27.48617452 10.84202576 25.51283264 C11.87405627 20.71491205 12.90822975 15.91745801 13.94358826 11.12025452 C8.00358826 11.12025452 2.06358826 11.12025452 -4.05641174 11.12025452 C-3.08706863 0.18052511 -3.08706863 0.18052511 0 0 Z " fill="#414E71" transform="translate(457.05641174316406,251.87974548339844)"/>
<path d="M0 0 C1.65322266 0.01740234 1.65322266 0.01740234 3.33984375 0.03515625 C4.44457031 0.04417969 5.54929687 0.05320312 6.6875 0.0625 C7.54214844 0.07410156 8.39679687 0.08570313 9.27734375 0.09765625 C8.94734375 2.40765625 8.61734375 4.71765625 8.27734375 7.09765625 C11.57734375 7.09765625 14.87734375 7.09765625 18.27734375 7.09765625 C17.61734375 10.39765625 16.95734375 13.69765625 16.27734375 17.09765625 C12.97734375 17.09765625 9.67734375 17.09765625 6.27734375 17.09765625 C6.17421875 18.10828125 6.07109375 19.11890625 5.96484375 20.16015625 C5.27873755 25.77008345 4.05704744 31.27773002 2.8984375 36.8046875 C2.18467168 40.03048812 2.18467168 40.03048812 2.27734375 43.09765625 C5.74234375 43.59265625 5.74234375 43.59265625 9.27734375 44.09765625 C9.16378085 45.74431828 9.03616994 47.39001707 8.90234375 49.03515625 C8.83273437 49.95167969 8.763125 50.86820312 8.69140625 51.8125 C8.55476562 52.56660156 8.418125 53.32070313 8.27734375 54.09765625 C4.12206453 56.17529586 -1.44010401 55.66309724 -5.8671875 54.56640625 C-8.46132684 53.56151859 -10.3843239 52.50953911 -12.16015625 50.34765625 C-13.95130635 43.18305584 -11.8329865 36.17162121 -10.22265625 29.16015625 C-9.98417969 28.09474609 -9.74570312 27.02933594 -9.5 25.93164062 C-8.91414966 23.31874812 -8.32154167 20.70758618 -7.72265625 18.09765625 C-10.36265625 17.76765625 -13.00265625 17.43765625 -15.72265625 17.09765625 C-15.58216107 15.61797301 -15.43510799 14.13891109 -15.28515625 12.66015625 C-15.20394531 11.83644531 -15.12273438 11.01273437 -15.0390625 10.1640625 C-14.72265625 8.09765625 -14.72265625 8.09765625 -13.72265625 7.09765625 C-12.20337587 7.02585661 -10.68098143 7.01373618 -9.16015625 7.03515625 C-8.33386719 7.04417969 -7.50757813 7.05320312 -6.65625 7.0625 C-6.01816406 7.07410156 -5.38007812 7.08570313 -4.72265625 7.09765625 C-4.57828125 6.12828125 -4.43390625 5.15890625 -4.28515625 4.16015625 C-3.54439641 0.12713043 -3.54439641 0.12713043 0 0 Z " fill="#455174" transform="translate(594.72265625,261.90234375)"/>
<path d="M0 0 C4.62 0 9.24 0 14 0 C12.60903143 8.8840254 10.85631347 17.63723279 8.91333008 26.41235352 C8.43144115 28.58987831 7.9546615 30.76847855 7.47851562 32.94726562 C5.14517774 43.56446677 5.14517774 43.56446677 4 47 C-0.29 47 -4.58 47 -9 47 C-8.3583818 37.08037899 -6.08676815 27.55269993 -3.9375 17.875 C-3.55612222 16.13813458 -3.17525845 14.40115622 -2.79492188 12.6640625 C-1.8692059 8.44138199 -0.93653477 4.22029363 0 0 Z " fill="#465275" transform="translate(508,269)"/>
<path d="M0 0 C1.5631897 0.00785522 1.5631897 0.00785522 3.15795898 0.01586914 C4.28266602 0.0190918 5.40737305 0.02231445 6.56616211 0.02563477 C7.75016602 0.03401367 8.93416992 0.04239258 10.15405273 0.05102539 C11.34192383 0.05553711 12.52979492 0.06004883 13.75366211 0.06469727 C16.69967499 0.07652864 19.64558954 0.09301252 22.59155273 0.11352539 C20.51554897 8.13695063 17.90284863 15.50649429 14.59155273 23.11352539 C6.34155273 23.11352539 -1.90844727 23.11352539 -10.40844727 23.11352539 C-9.28251023 16.3579032 -9.28251023 16.3579032 -8.03344727 13.06274414 C-7.77047852 12.3647168 -7.50750977 11.66668945 -7.23657227 10.94750977 C-6.96329102 10.23916992 -6.69000977 9.53083008 -6.40844727 8.80102539 C-6.13516602 8.07334961 -5.86188477 7.34567383 -5.58032227 6.59594727 C-3.12833388 0.14745821 -3.12833388 0.14745821 0 0 Z " fill="#455275" transform="translate(170.408447265625,145.886474609375)"/>
<path d="M0 0 C4.62 0 9.24 0 14 0 C13.01 3.96 12.02 7.92 11 12 C6.71 12 2.42 12 -2 12 C-1.125 2.25 -1.125 2.25 0 0 Z " fill="#4E5A7B" transform="translate(512,252)"/>
<path d="M0 0 C2.33094534 0.3496418 4.66404762 0.68554487 7 1 C3.46813168 3.15059309 0.33712007 3.3797728 -3.75 3.625 C-4.92046875 3.69976562 -6.0909375 3.77453125 -7.296875 3.8515625 C-8.18890625 3.90054688 -9.0809375 3.94953125 -10 4 C-9 1 -9 1 -6.6875 -0.25 C-3.73293018 -1.07453111 -2.84465342 -0.92032905 0 0 Z " fill="#F8ECA1" transform="translate(594,162)"/>
<path d="M0 0 C1.45606519 4.52092968 0.27032841 7.51648796 -1 12 C2.96 12 6.92 12 11 12 C11 12.33 11 12.66 11 13 C6.38 13.33 1.76 13.66 -3 14 C-2.48594831 9.03083364 -1.76615118 4.70973649 0 0 Z " fill="#F7EAB6" transform="translate(559,153)"/>
<path d="M0 0 C0.33 0 0.66 0 1 0 C3.29612756 9.41002278 3.29612756 9.41002278 3 14 C-1.875 9.375 -1.875 9.375 -3 6 C-2.34 6 -1.68 6 -1 6 C-0.67 4.02 -0.34 2.04 0 0 Z " fill="#94CDE1" transform="translate(520,121)"/>
<path d="M0 0 C0.66 0.33 1.32 0.66 2 1 C0.92492371 2.29854721 -0.16043736 3.58858361 -1.25 4.875 C-1.85328125 5.59429687 -2.4565625 6.31359375 -3.078125 7.0546875 C-4.97087634 8.97052118 -6.53657727 9.96449045 -9 11 C-7.59155282 7.78475695 -5.89655214 5.67816132 -3.375 3.25 C-2.74335937 2.63640625 -2.11171875 2.0228125 -1.4609375 1.390625 C-0.73777344 0.70226562 -0.73777344 0.70226562 0 0 Z " fill="#F5E286" transform="translate(580,122)"/>
<path d="M0 0 C0.33 1.32 0.66 2.64 1 4 C1.99 4.33 2.98 4.66 4 5 C2.69593116 7.01920337 1.36176581 9.01924973 0 11 C-0.33 11 -0.66 11 -1 11 C-0.67 7.37 -0.34 3.74 0 0 Z " fill="#9AC1D4" transform="translate(555,122)"/>
<path d="" fill="#FFFFFE" transform="translate(0,0)"/>
</svg>
