<?xml version="1.0" encoding="UTF-8"?>
<svg version="1.1" xmlns="http://www.w3.org/2000/svg" width="227" height="160">
<path d="M0 0 C74.91 0 149.82 0 227 0 C227 52.8 227 105.6 227 160 C152.09 160 77.18 160 0 160 C0 107.2 0 54.4 0 0 Z " fill="#FDFDFD" transform="translate(0,0)"/>
<path d="M0 0 C4.36350222 2.22291622 7.09544338 4.45022584 9 9 C9.1875 12.625 9.1875 12.625 9 16 C9 16.99 9 17.98 9 19 C9.35191406 18.43152344 9.70382813 17.86304687 10.06640625 17.27734375 C14.1908251 10.82688189 18.58553402 5.27631065 25 1 C32.11864407 0.3220339 32.11864407 0.3220339 35.4375 2.875 C38.09126222 6.48411663 38.02519991 8.20364528 37.5625 12.625 C37.46066406 13.62789062 37.35882813 14.63078125 37.25390625 15.6640625 C37.17011719 16.43492188 37.08632812 17.20578125 37 18 C37.556875 17.27554688 38.11375 16.55109375 38.6875 15.8046875 C49.22295648 2.45740311 49.22295648 2.45740311 57.6875 -0.125 C61.78455942 0.02960602 63.18136638 1.09846539 66 4 C67.78538661 7.57077322 67.43975106 11.33501152 66.43359375 15.14453125 C65.6636706 17.44623868 64.83493801 19.72115542 64 22 C63.51834922 23.52004844 63.039153 25.04087697 62.5625 26.5625 C61.58288859 29.52184966 60.4394675 32.23600346 59 35 C55.87146481 41.01733588 53.86364874 47.26353981 53 54 C54.98 54.33 56.96 54.66 59 55 C60.125 58.75 60.125 58.75 59 61 C50.03702815 61.62653784 50.03702815 61.62653784 46 59.1875 C43.42439918 56.3704366 42.07271328 54.71995123 41.68359375 50.8671875 C42.06566472 46.19743122 43.36156949 42.45899421 45.0625 38.125 C45.37324463 37.30797607 45.68398926 36.49095215 46.00415039 35.64916992 C49.17900634 27.36967487 52.55777141 19.1713694 56 11 C40.57743645 18.11308643 31.7986001 37.88222116 26 53 C22.52953157 60.73523422 22.52953157 60.73523422 20 62 C16.5 62.1875 16.5 62.1875 13 62 C12.34 61.34 11.68 60.68 11 60 C11.32459482 55.0917554 12.57198868 51.14315056 14.58203125 46.68359375 C15.10216797 45.50603516 15.62230469 44.32847656 16.15820312 43.11523438 C16.70857097 41.88884467 17.26000648 40.66293355 17.8125 39.4375 C22.03307314 30.06467111 25.44270732 20.93764124 28 11 C15.72532399 15.62301177 9.56752451 30.31346316 4.3125 41.5625 C2.03094874 46.742238 0.05371366 52.03200915 -1.88671875 57.34765625 C-3 60 -3 60 -5 62 C-11.07053942 62.55186722 -11.07053942 62.55186722 -14 60.8125 C-15.42663739 58.22671974 -14.71196318 56.83034544 -14 54 C-13.38241827 52.19170584 -12.7259521 50.39640145 -12.0390625 48.61328125 C-11.64976563 47.59169922 -11.26046875 46.57011719 -10.859375 45.51757812 C-10.45203125 44.45990234 -10.0446875 43.40222656 -9.625 42.3125 C-3.52358083 27.09764876 -3.52358083 27.09764876 -2 11 C-5.9200085 10.62307611 -8.17715224 10.4092375 -11.4375 12.75 C-14.02271036 18.12723754 -13.87303211 24.53716794 -12.41796875 30.30859375 C-12.28003906 30.86675781 -12.14210938 31.42492187 -12 32 C-13 33 -13 33 -15.8125 33.4375 C-19 33 -19 33 -21.375 30.625 C-24.0167007 24.73197537 -23.83184077 18.97849999 -22 12.8125 C-18.35301283 4.20979822 -9.21012625 -1.43741855 0 0 Z " fill="#A2873D" transform="translate(74,39)"/>
<path d="M0 0 C4.84837887 1.10501921 8.19367295 3.8011678 11.2578125 7.69921875 C13.106951 11.20045639 12.96681603 14.69046501 12.2109375 18.50390625 C9.28410823 23.96732088 9.28410823 23.96732088 6.2109375 25.50390625 C7.2879907 27.74086289 8.34952207 29.69046241 9.8359375 31.69140625 C12.09523091 36.31268823 12.0114503 40.7348368 10.58984375 45.65234375 C8.19502351 51.20832672 4.41051072 54.53272155 -0.7890625 57.50390625 C-7.99826415 60.28640513 -13.9632691 60.09933838 -21.08984375 57.453125 C-22.7890625 56.50390625 -22.7890625 56.50390625 -24.7890625 53.50390625 C-24.9140625 50.31640625 -24.9140625 50.31640625 -24.7890625 47.50390625 C-23.7990625 47.00890625 -23.7990625 47.00890625 -22.7890625 46.50390625 C-22.18835938 46.80683594 -21.58765625 47.10976562 -20.96875 47.421875 C-16.11330023 49.83219684 -10.34600524 49.01345115 -5.3515625 47.37890625 C-2.18345037 45.06077542 -1.1129031 43.18124124 0.2109375 39.50390625 C0.71335072 36.83350095 0.71335072 36.83350095 0.2109375 34.50390625 C-3.07369909 32.31414852 -5.99602525 31.50584062 -9.7890625 30.50390625 C-10.1190625 28.52390625 -10.4490625 26.54390625 -10.7890625 24.50390625 C-10.10199219 24.24996094 -9.41492188 23.99601562 -8.70703125 23.734375 C-7.80597656 23.39019531 -6.90492188 23.04601562 -5.9765625 22.69140625 C-5.08324219 22.35496094 -4.18992188 22.01851562 -3.26953125 21.671875 C-0.82737944 20.5219484 0.5714876 19.62931686 2.2109375 17.50390625 C2.71104274 14.46159802 2.71104274 14.46159802 2.2109375 11.50390625 C-0.68998752 9.56995624 -1.68580987 9.20258684 -4.9765625 8.87890625 C-6.2346875 8.75515625 -7.4928125 8.63140625 -8.7890625 8.50390625 C-9.4765625 5.69140625 -9.4765625 5.69140625 -9.7890625 2.50390625 C-7.00705818 -1.4305141 -4.35264999 -0.66909668 0 0 Z " fill="#A4893D" transform="translate(157.7890625,65.49609375)"/>
<path d="M0 0 C0 3 0 3 -1.96875 5.26171875 C-2.8040625 6.06222656 -3.639375 6.86273438 -4.5 7.6875 C-5.3353125 8.49574219 -6.170625 9.30398437 -7.03125 10.13671875 C-7.6809375 10.75160156 -8.330625 11.36648437 -9 12 C-9.66 11.67 -10.32 11.34 -11 11 C-9.54540569 9.35086118 -8.08620743 7.70578218 -6.625 6.0625 C-5.81289062 5.14597656 -5.00078125 4.22945312 -4.1640625 3.28515625 C-2 1 -2 1 0 0 Z " fill="#B5963C" transform="translate(125,42)"/>
</svg>
