<?xml version="1.0" encoding="UTF-8"?>
<svg version="1.1" xmlns="http://www.w3.org/2000/svg" width="225" height="225">
<path d="M0 0 C74.25 0 148.5 0 225 0 C225 74.25 225 148.5 225 225 C150.75 225 76.5 225 0 225 C0 150.75 0 76.5 0 0 Z " fill="#FDE2D9" transform="translate(0,0)"/>
<path d="M0 0 C1.08667969 0.02707031 2.17335938 0.05414063 3.29296875 0.08203125 C4.54013672 0.13423828 4.54013672 0.13423828 5.8125 0.1875 C5.8125 0.8475 5.8125 1.5075 5.8125 2.1875 C9.52849191 2.38836443 10.58458445 2.3394437 13.8125 0.1875 C18.56472506 -0.11909516 22.6389347 -0.36301213 26.8125 2.1875 C31.9128882 7.73792245 31.28424573 13.32164906 31.0625 20.5625 C31.04445312 21.68011719 31.02640625 22.79773438 31.0078125 23.94921875 C30.96086439 26.6956829 30.88912688 29.44170362 30.8125 32.1875 C26.8525 32.1875 22.8925 32.1875 18.8125 32.1875 C18.3175 22.7825 18.3175 22.7825 17.8125 13.1875 C16.8225 12.8575 15.8325 12.5275 14.8125 12.1875 C14.8125 18.7875 14.8125 25.3875 14.8125 32.1875 C11.1825 32.1875 7.5525 32.1875 3.8125 32.1875 C3.4825 25.2575 3.1525 18.3275 2.8125 11.1875 C1.8225 11.6825 1.8225 11.6825 0.8125 12.1875 C0.4825 18.7875 0.1525 25.3875 -0.1875 32.1875 C-4.1475 32.1875 -8.1075 32.1875 -12.1875 32.1875 C-12.26864826 28.47872416 -12.32807594 24.77173489 -12.375 21.0625 C-12.40013672 20.01578125 -12.42527344 18.9690625 -12.45117188 17.890625 C-12.51540252 11.12499746 -11.81670171 6.9536538 -7.88671875 1.32421875 C-5.29132243 -0.41201189 -3.07335774 -0.09914057 0 0 Z " fill="#E2BDB5" transform="translate(98.1875,97.8125)"/>
<path d="M0 0 C4 4.21621622 4 4.21621622 4 7 C4.66 7 5.32 7 6 7 C6.98043964 9.94131891 7.11621202 11.82501665 7.09765625 14.88671875 C7.09443359 15.82451172 7.09121094 16.76230469 7.08789062 17.72851562 C7.07532227 19.19321289 7.07532227 19.19321289 7.0625 20.6875 C7.05798828 21.67556641 7.05347656 22.66363281 7.04882812 23.68164062 C7.0370432 26.12111958 7.01910783 28.56056741 7 31 C3.04 31 -0.92 31 -5 31 C-5.06058594 29.71222656 -5.12117188 28.42445312 -5.18359375 27.09765625 C-5.26798247 25.41925841 -5.3526313 23.74087364 -5.4375 22.0625 C-5.47681641 21.21236328 -5.51613281 20.36222656 -5.55664062 19.48632812 C-5.59853516 18.67744141 -5.64042969 17.86855469 -5.68359375 17.03515625 C-5.72025146 16.2862915 -5.75690918 15.53742676 -5.79467773 14.76586914 C-5.81771063 12.97538674 -5.81771063 12.97538674 -7 12 C-8.66617115 11.95936168 -10.33388095 11.957279 -12 12 C-12.67958603 14.39719432 -12.67958603 14.39719432 -13 17 C-10.9714169 19.37158027 -10.9714169 19.37158027 -7 20 C-7 23.63 -7 27.26 -7 31 C-15.70535714 31.80357143 -15.70535714 31.80357143 -19.875 28.5625 C-24.32339101 24.1244782 -25.99047895 19.42757902 -26.0078125 13.1875 C-25.44879839 8.17000754 -24.43297857 4.68921381 -20.5625 1.3125 C-14.41095102 -2.59395811 -6.81151724 -1.8409506 0 0 Z " fill="#E2BDB6" transform="translate(72,99)"/>
<path d="M0 0 C4 4.45714286 4 4.45714286 4 7 C4.66 7 5.32 7 6 7 C6.98043964 9.94131891 7.11621202 11.82501665 7.09765625 14.88671875 C7.09443359 15.82451172 7.09121094 16.76230469 7.08789062 17.72851562 C7.07532227 19.19321289 7.07532227 19.19321289 7.0625 20.6875 C7.05798828 21.67556641 7.05347656 22.66363281 7.04882812 23.68164062 C7.0370432 26.12111958 7.01910783 28.56056741 7 31 C3.04 31 -0.92 31 -5 31 C-5.495 21.595 -5.495 21.595 -6 12 C-10.73647686 11.73647686 -10.73647686 11.73647686 -14 13 C-13.34 14.98 -12.68 16.96 -12 19 C-10.35 19 -8.7 19 -7 19 C-7 22.96 -7 26.92 -7 31 C-14.6503856 31.83676093 -14.6503856 31.83676093 -18.34375 29.546875 C-23.68686441 24.93940678 -23.68686441 24.93940678 -25 21 C-25.14554833 18.8783532 -25.22080412 16.75143294 -25.25 14.625 C-25.27578125 13.50351563 -25.3015625 12.38203125 -25.328125 11.2265625 C-24.84461606 6.47205796 -22.99285123 3.96672357 -19.625 0.6875 C-13.62205253 -2.10697555 -6.29151866 -2.09717289 0 0 Z " fill="#E2BDB5" transform="translate(160,99)"/>
<path d="M0 0 C3.15106522 1.53807938 5.71235638 3.33312135 8 6 C9.01904053 9.10176042 9.11655184 11.95308272 9.09765625 15.203125 C9.09443359 16.1828125 9.09121094 17.1625 9.08789062 18.171875 C9.07951172 19.18765625 9.07113281 20.2034375 9.0625 21.25 C9.05798828 22.28125 9.05347656 23.3125 9.04882812 24.375 C9.03706103 26.91669154 9.0191261 29.45835318 9 32 C5.04 32 1.08 32 -3 32 C-3 25.4 -3 18.8 -3 12 C-3.99 12.33 -4.98 12.66 -6 13 C-6.33 19.27 -6.66 25.54 -7 32 C-10.96 32 -14.92 32 -19 32 C-19.02686682 28.04162186 -19.04677414 24.08342438 -19.0625 20.125 C-19.07087891 18.99707031 -19.07925781 17.86914062 -19.08789062 16.70703125 C-19.09111328 15.63066406 -19.09433594 14.55429688 -19.09765625 13.4453125 C-19.10289307 12.45031738 -19.10812988 11.45532227 -19.11352539 10.43017578 C-19 8 -19 8 -18 6 C-17.34 6 -16.68 6 -16 6 C-15.731875 5.38125 -15.46375 4.7625 -15.1875 4.125 C-12.00243609 -1.57458804 -5.69268145 -0.8984368 0 0 Z " fill="#E2BEB6" transform="translate(32,98)"/>
<path d="M0 0 C1.423125 0.020625 2.84625 0.04125 4.3125 0.0625 C4.3125 4.0225 4.3125 7.9825 4.3125 12.0625 C2.6625 12.0625 1.0125 12.0625 -0.6875 12.0625 C-0.6875 18.6625 -0.6875 25.2625 -0.6875 32.0625 C-4.6475 32.0625 -8.6075 32.0625 -12.6875 32.0625 C-12.74150523 28.33313901 -12.78117794 24.60456222 -12.8125 20.875 C-12.82925781 19.81990234 -12.84601563 18.76480469 -12.86328125 17.67773438 C-12.86972656 16.65615234 -12.87617188 15.63457031 -12.8828125 14.58203125 C-12.89328613 13.64464111 -12.90375977 12.70725098 -12.91455078 11.74145508 C-12.66916713 8.84619188 -11.89271619 6.69187303 -10.6875 4.0625 C-10.0275 4.0625 -9.3675 4.0625 -8.6875 4.0625 C-8.3575 3.0725 -8.0275 2.0825 -7.6875 1.0625 C-4.80538698 0.10179566 -2.98899956 -0.04331883 0 0 Z " fill="#E1BFB6" transform="translate(186.6875,97.9375)"/>
<path d="M0 0 C3.63 0 7.26 0 11 0 C11 10.23 11 20.46 11 31 C7.37 31 3.74 31 0 31 C0 20.77 0 10.54 0 0 Z " fill="#E1BCB5" transform="translate(195,99)"/>
<path d="M0 0 C3.375 0.6875 3.375 0.6875 4.375 1.6875 C4.82732816 6.88927384 4.82732816 6.88927384 3.3125 9.5625 C0.34262823 11.28694167 -2.27158015 10.93590147 -5.625 10.6875 C-7.51628342 8.79621658 -6.8616852 6.11682274 -6.953125 3.59765625 C-6.79070312 2.65212891 -6.79070312 2.65212891 -6.625 1.6875 C-3.625 -0.3125 -3.625 -0.3125 0 0 Z " fill="#E4C0B7" transform="translate(201.625,84.3125)"/>
</svg>
