<?xml version="1.0" standalone="no"?>
<!DOCTYPE svg PUBLIC "-//W3C//DTD SVG 20010904//EN"
 "http://www.w3.org/TR/2001/REC-SVG-20010904/DTD/svg10.dtd">
<svg version="1.0" xmlns="http://www.w3.org/2000/svg"
 width="980.000000pt" height="145.000000pt" viewBox="0 0 980.000000 145.000000"
 preserveAspectRatio="xMidYMid meet">

<g transform="translate(0.000000,145.000000) scale(0.100000,-0.100000)"
fill="#000000" stroke="none">
<path d="M665 1389 c-11 -4 -48 -8 -82 -8 -34 -1 -65 -5 -68 -11 -3 -5 -17
-10 -30 -10 -13 0 -27 -4 -30 -10 -3 -5 -17 -10 -31 -10 -13 0 -24 -4 -24 -10
0 -5 -6 -10 -13 -10 -8 0 -27 -11 -43 -25 -16 -14 -34 -25 -39 -25 -6 0 -17
-9 -25 -20 -8 -11 -19 -20 -24 -20 -8 0 -17 -9 -71 -75 -14 -16 -36 -43 -50
-60 -14 -16 -25 -38 -25 -47 0 -10 -4 -18 -10 -18 -5 0 -10 -9 -10 -20 0 -11
-4 -20 -10 -20 -5 0 -10 -9 -10 -19 0 -11 -4 -23 -10 -26 -5 -3 -10 -21 -10
-40 0 -19 -4 -36 -9 -39 -14 -9 -21 -148 -10 -211 5 -33 13 -77 16 -98 3 -20
9 -37 14 -37 5 0 9 -9 9 -19 0 -20 40 -104 53 -109 4 -2 7 -10 7 -17 0 -18
168 -185 186 -185 8 0 14 -4 14 -9 0 -5 16 -15 35 -22 19 -7 35 -17 35 -21 0
-4 9 -8 19 -8 11 0 26 -7 35 -15 8 -8 26 -15 40 -15 14 0 28 -4 31 -10 3 -5
33 -10 65 -10 33 0 71 -5 85 -12 19 -9 28 -9 37 0 7 7 40 12 75 12 35 0 63 4
63 10 0 6 13 10 28 10 39 0 55 18 35 38 -12 12 -19 13 -34 4 -10 -7 -39 -12
-64 -12 -25 0 -45 -4 -45 -10 0 -13 -157 -13 -165 0 -3 6 -28 10 -55 10 -27 0
-52 5 -55 10 -3 6 -14 10 -24 10 -24 0 -82 29 -102 52 -9 10 -23 18 -32 18
-16 0 -107 85 -107 101 0 5 -6 9 -12 9 -13 0 -58 62 -58 80 0 5 -4 10 -10 10
-5 0 -10 9 -10 20 0 11 -4 20 -10 20 -5 0 -10 8 -10 18 0 9 -7 26 -15 36 -8
11 -15 32 -15 47 0 15 -5 31 -10 34 -6 4 -10 62 -10 140 0 78 4 136 10 140 5
3 10 22 10 41 0 22 6 37 15 40 8 4 15 15 15 25 0 10 5 19 10 19 6 0 10 11 10
25 0 14 5 25 10 25 6 0 10 6 10 14 0 14 132 156 145 156 6 0 19 10 50 38 7 6
21 12 29 12 9 0 16 5 16 10 0 6 11 10 25 10 14 0 25 5 25 10 0 6 9 10 19 10
11 0 23 5 26 10 3 6 25 10 49 10 24 0 58 7 75 16 37 18 142 15 149 -4 2 -7 26
-12 58 -12 30 0 54 -4 54 -10 0 -5 14 -10 30 -10 17 0 30 -4 30 -10 0 -5 8
-10 18 -10 10 0 28 -9 40 -20 12 -11 26 -20 32 -20 17 0 200 -187 200 -204 0
-8 3 -16 8 -18 11 -5 42 -68 42 -87 0 -9 4 -21 9 -26 15 -16 22 -141 27 -487
4 -280 7 -328 19 -328 22 0 22 765 0 794 -8 11 -15 32 -15 48 0 15 -4 28 -10
28 -5 0 -10 9 -10 20 0 11 -4 20 -10 20 -5 0 -10 7 -10 15 0 8 -8 29 -19 47
-21 38 -155 178 -170 178 -5 0 -11 3 -13 8 -6 14 -77 62 -92 62 -9 0 -16 5
-16 10 0 6 -9 10 -20 10 -11 0 -20 5 -20 10 0 6 -16 10 -35 10 -19 0 -35 5
-35 10 0 6 -26 10 -58 10 -31 0 -71 4 -87 9 -17 4 -39 5 -50 0z"/>
<path d="M4505 1390 c-11 -5 -42 -9 -69 -9 -47 -1 -101 -13 -138 -32 -10 -5
-27 -9 -38 -9 -11 0 -20 -4 -20 -10 0 -5 -5 -10 -11 -10 -6 0 -25 -11 -43 -25
-18 -14 -36 -25 -40 -25 -10 0 -146 -138 -146 -148 0 -4 -8 -17 -18 -28 -9
-10 -26 -38 -36 -61 -11 -24 -23 -43 -28 -43 -4 0 -8 -11 -8 -25 0 -14 -4 -25
-10 -25 -5 0 -10 -18 -10 -40 0 -22 -4 -40 -10 -40 -6 0 -10 -48 -10 -125 0
-77 4 -125 10 -125 6 0 10 -16 10 -35 0 -36 2 -42 39 -110 12 -22 25 -48 28
-57 3 -10 9 -18 14 -18 5 0 9 -7 9 -15 0 -8 5 -15 10 -15 6 0 10 -7 10 -16 0
-16 19 -36 82 -87 15 -12 28 -27 28 -33 0 -6 20 -21 45 -34 25 -13 45 -27 45
-32 0 -4 9 -8 20 -8 11 0 20 -4 20 -10 0 -5 8 -10 19 -10 10 0 24 -7 31 -15 7
-8 25 -15 41 -15 15 0 31 -4 34 -10 3 -5 33 -10 66 -10 33 0 70 -5 81 -11 14
-8 23 -8 31 0 6 6 42 11 79 11 39 0 68 4 68 10 0 6 11 10 24 10 24 0 66 21
207 102 27 15 74 67 74 82 0 22 -23 14 -63 -24 -23 -22 -47 -40 -52 -40 -6 0
-10 -4 -10 -9 0 -5 -8 -11 -17 -15 -10 -3 -31 -14 -48 -25 -16 -11 -42 -20
-57 -20 -16 -1 -28 -5 -28 -11 0 -5 -25 -10 -55 -10 -30 0 -55 -4 -55 -10 0
-6 -33 -10 -80 -10 -47 0 -80 4 -80 10 0 6 -25 10 -55 10 -30 0 -55 5 -55 10
0 6 -9 10 -19 10 -23 0 -121 50 -121 61 0 5 -7 9 -16 9 -16 0 -154 132 -154
147 0 5 -11 20 -25 35 -14 15 -25 34 -25 43 0 8 -4 15 -10 15 -5 0 -10 11 -10
25 0 14 -4 25 -10 25 -5 0 -10 18 -10 40 0 22 -4 40 -10 40 -6 0 -10 53 -10
140 0 87 4 140 10 140 6 0 10 16 10 35 0 19 5 35 10 35 6 0 10 9 10 20 0 23
44 97 72 121 10 9 18 21 18 27 0 13 78 92 91 92 5 0 25 16 45 35 19 19 42 35
50 35 8 0 14 5 14 10 0 6 9 10 20 10 11 0 20 5 20 10 0 6 16 10 35 10 19 0 35
5 35 10 0 6 19 10 43 10 23 0 51 7 61 15 25 19 103 19 140 0 15 -8 46 -15 67
-15 21 0 41 -4 44 -10 3 -5 17 -10 31 -10 13 0 24 -4 24 -10 0 -5 9 -10 20
-10 11 0 20 -4 20 -10 0 -5 7 -10 17 -10 28 0 183 -126 183 -148 0 -6 4 -12 8
-14 15 -6 62 -75 62 -91 0 -10 5 -17 10 -17 6 0 10 -9 10 -19 0 -11 5 -23 10
-26 6 -3 10 -17 10 -31 l0 -24 -440 0 -440 0 0 -25 0 -25 478 1 c262 0 471 3
465 6 -7 2 -13 20 -13 38 0 19 -4 37 -10 40 -5 3 -10 17 -10 31 0 13 -4 24
-10 24 -5 0 -10 9 -10 20 0 11 -4 20 -9 20 -5 0 -16 12 -23 28 -8 15 -21 38
-29 52 -21 36 -149 160 -165 160 -8 0 -14 4 -14 8 0 5 -16 17 -35 28 -19 10
-35 22 -35 26 0 5 -11 8 -24 8 -14 0 -27 4 -30 9 -7 10 -46 19 -136 30 -36 5
-74 11 -85 14 -11 3 -29 2 -40 -3z"/>
<path d="M9055 1390 c-11 -5 -42 -9 -69 -9 -47 -1 -101 -13 -138 -32 -10 -5
-27 -9 -38 -9 -11 0 -20 -4 -20 -10 0 -5 -6 -10 -13 -10 -7 0 -24 -11 -39 -25
-15 -14 -32 -25 -38 -25 -11 0 -150 -136 -150 -148 0 -4 -11 -20 -25 -36 -14
-16 -25 -35 -25 -43 0 -7 -4 -13 -10 -13 -5 0 -10 -9 -10 -20 0 -11 -4 -20
-10 -20 -5 0 -10 -11 -10 -25 0 -14 -4 -25 -10 -25 -5 0 -10 -18 -10 -40 0
-22 -4 -40 -10 -40 -6 0 -10 -48 -10 -124 0 -73 4 -127 10 -131 6 -3 10 -24
10 -46 0 -21 5 -39 10 -39 6 0 10 -9 10 -19 0 -11 5 -23 10 -26 6 -3 10 -15
10 -25 0 -10 3 -20 8 -22 8 -3 62 -84 62 -93 0 -12 143 -145 156 -145 8 0 14
-4 14 -10 0 -5 7 -10 15 -10 8 0 15 -4 15 -10 0 -5 9 -10 20 -10 11 0 20 -4
20 -10 0 -5 8 -10 19 -10 10 0 24 -7 31 -15 7 -8 25 -15 41 -15 15 0 31 -4 34
-10 3 -5 37 -10 74 -10 37 0 72 -5 78 -11 8 -8 17 -8 31 0 11 6 50 11 86 11
36 0 68 5 71 10 3 6 19 10 35 10 15 0 30 7 34 15 3 8 15 15 26 15 11 0 20 5
20 10 0 6 7 10 15 10 9 0 25 9 37 20 12 11 27 20 34 20 14 0 154 137 154 151
0 5 5 9 10 9 6 0 10 9 10 20 0 11 4 20 8 20 5 0 17 18 27 40 10 22 22 40 27
40 4 0 8 11 8 25 0 14 5 25 10 25 6 0 10 18 10 40 0 22 5 40 10 40 6 0 10 50
10 130 0 80 -4 130 -10 130 -5 0 -10 18 -10 40 0 22 -4 40 -10 40 -5 0 -10 11
-10 24 0 13 -4 26 -8 28 -4 2 -19 23 -33 48 -14 25 -32 56 -40 69 -22 37 -147
161 -162 161 -8 0 -24 11 -37 25 -13 14 -29 25 -37 25 -7 0 -13 5 -13 10 0 6
-11 10 -24 10 -14 0 -28 5 -31 10 -3 6 -16 10 -29 10 -12 0 -26 4 -31 9 -6 5
-41 11 -80 13 -38 3 -77 8 -85 11 -8 3 -24 2 -35 -3z m103 -48 c2 -7 25 -12
58 -12 30 0 54 -4 54 -10 0 -5 9 -10 20 -10 29 0 145 -64 183 -102 19 -18 43
-40 53 -49 11 -8 27 -26 37 -40 9 -13 28 -39 42 -58 14 -19 25 -41 25 -48 0
-7 5 -13 10 -13 6 0 10 -9 10 -20 0 -11 5 -20 10 -20 6 0 10 -16 10 -35 0 -19
5 -35 10 -35 6 0 10 -60 10 -160 0 -100 -4 -160 -10 -160 -5 0 -10 -13 -10
-29 0 -17 -4 -33 -10 -36 -5 -3 -10 -15 -10 -26 0 -10 -4 -19 -10 -19 -5 0
-10 -9 -10 -20 0 -11 -4 -20 -9 -20 -5 0 -13 -9 -16 -20 -9 -29 -159 -180
-179 -180 -9 0 -16 -4 -16 -8 0 -13 -95 -62 -119 -62 -11 0 -21 -4 -21 -10 0
-5 -25 -10 -55 -10 -30 0 -55 -4 -55 -10 0 -6 -33 -10 -80 -10 -47 0 -80 4
-80 10 0 6 -25 10 -55 10 -30 0 -55 5 -55 10 0 6 -9 10 -19 10 -23 0 -121 50
-121 61 0 5 -7 9 -16 9 -20 0 -170 151 -179 180 -4 11 -11 20 -16 20 -5 0 -9
9 -9 20 0 11 -4 20 -10 20 -5 0 -10 11 -10 25 0 14 -4 25 -10 25 -5 0 -10 15
-10 33 0 18 -6 39 -12 45 -9 9 -12 54 -12 144 0 95 3 133 12 136 7 2 12 21 12
42 0 21 5 42 10 45 6 3 10 15 10 26 0 10 5 19 10 19 6 0 10 9 10 19 0 10 11
29 25 42 13 13 25 27 25 31 0 13 83 108 94 108 4 0 18 10 31 23 42 39 54 47
69 47 8 0 18 5 21 10 3 6 15 10 26 10 10 0 19 5 19 10 0 6 11 10 25 10 14 0
25 5 25 10 0 6 20 10 44 10 24 0 57 7 72 16 34 18 145 15 152 -4z"/>
<path d="M1780 906 c0 -306 4 -477 10 -481 6 -3 10 -19 10 -34 0 -16 7 -34 15
-41 8 -7 15 -19 15 -27 0 -7 9 -23 20 -35 11 -12 20 -28 20 -35 0 -7 5 -13 10
-13 6 0 10 -5 10 -11 0 -14 25 -39 39 -39 6 0 11 -4 11 -10 0 -5 6 -10 13 -10
7 0 23 -9 35 -20 12 -11 26 -20 32 -20 6 0 13 -7 16 -15 4 -8 16 -15 28 -15
12 0 27 -5 33 -11 14 -14 256 -14 261 0 2 6 16 11 32 11 16 0 30 7 34 15 3 8
12 15 21 15 21 0 111 80 165 148 19 24 30 30 48 26 12 -4 22 -12 22 -19 0 -18
116 -135 135 -135 8 0 15 -4 15 -9 0 -5 11 -12 25 -15 14 -4 25 -11 25 -16 0
-6 9 -10 20 -10 11 0 20 -4 20 -10 0 -6 26 -10 58 -10 32 0 63 -5 69 -11 8 -8
17 -8 31 0 11 6 41 11 66 11 25 0 48 5 51 10 3 6 19 10 36 10 17 0 29 5 29 13
0 6 14 18 30 26 32 14 140 116 140 132 0 5 7 9 15 9 8 0 15 9 15 20 0 11 5 20
10 20 6 0 10 16 10 35 0 19 5 35 10 35 7 0 10 172 10 495 l0 495 -25 0 -25 0
0 -479 c0 -309 -4 -482 -10 -486 -5 -3 -10 -19 -10 -36 0 -16 -4 -29 -10 -29
-5 0 -10 -9 -10 -20 0 -11 -4 -20 -10 -20 -5 0 -10 -7 -10 -15 0 -19 -106
-125 -125 -125 -8 0 -15 -4 -15 -10 0 -5 -9 -10 -20 -10 -11 0 -20 -4 -20 -10
0 -5 -20 -10 -45 -10 -25 0 -45 -4 -45 -10 0 -6 -27 -10 -60 -10 -33 0 -60 4
-60 10 0 6 -20 10 -45 10 -25 0 -45 5 -45 10 0 6 -7 10 -15 10 -19 0 -63 27
-86 52 -9 10 -19 18 -23 18 -11 0 -56 48 -56 60 0 5 -4 10 -10 10 -5 0 -10 9
-10 20 0 11 -4 20 -10 20 -5 0 -10 8 -10 18 0 9 -7 26 -15 36 -13 17 -15 94
-15 508 0 481 0 488 -20 488 -20 0 -20 -7 -20 -497 0 -444 -2 -500 -17 -535
-9 -21 -20 -38 -25 -38 -4 0 -8 -4 -8 -10 0 -5 -8 -20 -17 -32 -17 -20 -26
-29 -91 -86 -15 -13 -39 -26 -54 -29 -16 -3 -31 -10 -34 -14 -3 -5 -20 -9 -39
-9 -19 0 -37 -4 -40 -10 -8 -13 -122 -13 -130 0 -3 6 -22 10 -40 10 -54 0
-205 95 -205 130 0 6 -9 21 -20 33 -30 31 -50 76 -50 108 0 15 -4 31 -10 34
-6 4 -10 173 -10 476 l0 469 -25 0 -25 0 0 -474z"/>
<path d="M6085 1370 c-3 -5 -21 -10 -40 -10 -19 0 -37 -4 -40 -10 -3 -5 -15
-10 -26 -10 -10 0 -19 -4 -19 -10 0 -5 -7 -10 -15 -10 -13 0 -77 -42 -139 -90
-43 -34 -136 -136 -136 -150 0 -6 -4 -10 -10 -10 -5 0 -10 -9 -10 -20 0 -11
-4 -20 -10 -20 -5 0 -10 -9 -10 -20 0 -11 -4 -20 -9 -20 -5 0 -12 -16 -15 -35
-4 -19 -11 -35 -16 -35 -6 0 -10 -20 -10 -45 0 -25 -4 -45 -10 -45 -6 0 -10
-132 -10 -375 l0 -375 25 0 25 0 0 385 c0 250 4 385 10 385 6 0 10 18 10 39 0
22 5 43 10 46 6 3 10 15 10 26 0 10 4 19 9 19 5 0 12 11 15 25 4 14 11 25 16
25 6 0 10 8 10 18 0 10 9 24 20 32 11 8 20 19 20 25 0 13 101 115 114 115 3 0
17 11 32 25 15 14 33 25 40 25 8 0 14 5 14 10 0 6 9 10 19 10 11 0 23 5 26 10
3 6 19 10 36 10 16 0 29 5 29 10 0 6 32 10 75 10 73 0 75 1 75 25 0 24 -3 25
-54 25 -30 0 -58 -4 -61 -10z"/>
<path d="M7450 1370 c0 -5 -16 -10 -35 -10 -19 0 -35 -4 -35 -10 0 -5 -7 -10
-15 -10 -18 0 -102 -46 -129 -71 -11 -11 -25 -19 -31 -19 -6 0 -17 -9 -25 -20
-8 -11 -20 -20 -27 -20 -7 0 -13 -5 -13 -11 0 -6 -13 -24 -30 -39 -16 -15 -30
-32 -30 -37 0 -4 -11 -20 -25 -35 -14 -15 -25 -34 -25 -43 0 -8 -4 -15 -10
-15 -5 0 -10 -9 -10 -20 0 -11 -4 -20 -10 -20 -5 0 -10 -11 -10 -25 0 -14 -4
-25 -10 -25 -5 0 -10 -18 -10 -39 0 -22 -4 -43 -10 -46 -6 -4 -10 -57 -10
-125 0 -68 4 -121 10 -125 6 -3 10 -24 10 -46 0 -21 5 -39 10 -39 6 0 10 -9
10 -19 0 -11 5 -23 10 -26 6 -3 10 -15 10 -26 0 -10 5 -19 10 -19 6 0 10 -9
10 -20 0 -11 4 -20 8 -20 4 0 16 -14 27 -32 22 -37 151 -168 166 -168 5 0 19
-9 31 -20 12 -11 30 -20 40 -20 10 0 18 -4 18 -10 0 -5 9 -10 19 -10 10 0 21
-7 25 -15 3 -9 18 -15 35 -15 16 0 33 -5 36 -10 3 -6 37 -10 74 -10 38 0 72
-5 79 -12 9 -9 18 -9 37 0 14 7 50 12 80 12 30 0 57 5 60 10 3 6 19 10 36 10
16 0 29 4 29 8 0 5 20 17 45 28 25 10 45 22 45 26 0 4 7 8 15 8 9 0 25 9 37
20 12 11 30 20 40 20 10 0 18 6 18 13 0 7 9 19 20 27 11 8 20 20 20 26 0 26
-27 19 -62 -18 -20 -21 -43 -38 -51 -38 -8 0 -20 -7 -27 -16 -17 -19 -88 -54
-112 -54 -10 0 -18 -4 -18 -10 0 -5 -25 -10 -55 -10 -30 0 -55 -4 -55 -10 0
-6 -33 -10 -79 -10 -44 0 -83 5 -86 10 -3 6 -28 10 -54 10 -26 0 -51 3 -54 7
-4 3 -30 14 -58 24 -28 10 -59 27 -69 39 -9 11 -25 20 -34 20 -9 0 -16 5 -16
10 0 6 -5 10 -11 10 -10 0 -26 15 -81 76 -9 11 -28 30 -42 43 -14 13 -26 32
-26 42 0 10 -4 19 -10 19 -5 0 -10 9 -10 20 0 11 -4 20 -10 20 -5 0 -10 8 -10
18 0 10 -4 22 -9 27 -4 6 -16 33 -25 62 -18 57 -23 287 -7 297 5 4 12 24 16
46 4 22 11 40 16 40 5 0 9 11 9 25 0 14 5 25 10 25 6 0 10 8 10 18 0 9 10 29
23 44 12 14 31 39 42 54 32 44 72 84 84 84 6 0 11 5 11 10 0 6 7 10 15 10 7 0
18 6 22 14 10 17 78 56 98 56 8 0 15 5 15 10 0 6 13 10 29 10 17 0 33 5 36 10
4 6 72 10 171 10 103 0 164 -4 164 -10 0 -5 11 -10 24 -10 14 0 28 -4 31 -10
3 -5 16 -10 29 -10 12 0 32 -9 44 -20 12 -11 26 -20 32 -20 6 0 21 -10 33 -23
12 -12 34 -29 50 -36 15 -8 27 -18 27 -23 0 -14 28 -9 33 6 7 18 -45 76 -67
76 -9 0 -16 5 -16 10 0 6 -5 10 -10 10 -10 0 -22 8 -55 38 -7 6 -20 12 -29 12
-8 0 -18 5 -21 10 -3 6 -15 10 -26 10 -10 0 -19 5 -19 10 0 6 -18 10 -39 10
-22 0 -43 5 -46 10 -4 6 -65 10 -151 10 -89 0 -144 -4 -144 -10z"/>
<path d="M6460 135 l0 -55 50 0 50 0 0 55 0 55 -50 0 -50 0 0 -55z"/>
</g>
</svg>
